<?xml version="1.0" standalone="no"?>
<!DOCTYPE svg PUBLIC "-//W3C//DTD SVG 1.1//EN" "http://www.w3.org/Graphics/SVG/1.1/DTD/svg11.dtd" >
<svg xmlns="http://www.w3.org/2000/svg" xmlns:xlink="http://www.w3.org/1999/xlink" version="1.1">
<metadata>
Created by FontForge 20161013 at Thu Oct 30 22:33:31 2008
 By ,,,
(c) 2008 Microsoft Corporation. All Rights Reserved.
</metadata>
<defs>
<font id="SegoeUI-Italic" horiz-adv-x="0" >
  <font-face 
    font-family="Segoe UI"
    font-weight="400"
    font-style="italic"
    font-stretch="normal"
    units-per-em="2048"
    panose-1="2 11 5 2 4 2 4 9 2 3"
    ascent="1638"
    descent="-410"
    x-height="1024"
    cap-height="1434"
    bbox="-937 -514 2743 2150"
    underline-thickness="119"
    underline-position="-355"
    slope="-12"
    unicode-range="U+000D-FFFD"
  />
<missing-glyph horiz-adv-x="1322" 
d="M166 0v1398h990v-1398h-990zM314 148h694v1102h-694v-1102z" />
    <glyph glyph-name=".notdef" horiz-adv-x="1322" 
d="M166 0v1398h990v-1398h-990zM314 148h694v1102h-694v-1102z" />
    <glyph glyph-name=".null" 
 />
    <glyph glyph-name="nonmarkingreturn" horiz-adv-x="199" 
 />
    <glyph glyph-name="null" unicode="&#xd;" 
 />
    <glyph glyph-name="space" unicode=" " horiz-adv-x="563" 
 />
    <glyph glyph-name="exclam" unicode="!" horiz-adv-x="653" 
d="M367 403h-136l201 1031h172zM354 92q0 -23 -9 -43t-24 -35t-35 -23.5t-42 -8.5q-23 0 -43.5 8.5t-35.5 23.5t-23.5 35t-8.5 43t8.5 43.5t23.5 35.5t35.5 23.5t43.5 8.5q22 0 42 -8.5t35 -23.5t24 -35.5t9 -43.5z" />
    <glyph glyph-name="quotedbl" unicode="&#x22;" horiz-adv-x="766" 
d="M684 987h-119l-8 447h137zM401 987h-116l-11 447h138z" />
    <glyph glyph-name="numbersign" unicode="#" horiz-adv-x="1210" 
d="M1202 926h-260l-63 -299h280l-26 -107h-275l-88 -397h-127l86 397h-250l-84 -397h-125l84 397h-262l21 107h264l61 297h-276l20 108h277l84 402h127l-82 -402h250l86 402h123l-82 -402h260zM565 926l-65 -299h254l63 299h-252z" />
    <glyph glyph-name="dollar" unicode="$" horiz-adv-x="1104" 
d="M1018 1233q-21 12 -49 24.5t-60.5 23.5t-67 19t-67.5 11l-119 -553q53 -39 103 -80t88.5 -86.5t62 -97.5t23.5 -113q0 -67 -22 -135.5t-73.5 -125t-136 -94.5t-208.5 -42l-43 -193h-103l41 195q-42 2 -88 10t-88 19t-78 23.5t-59 24.5l28 162q28 -18 65.5 -35t79.5 -31
t85 -24t82 -14l114 530q-61 44 -113 86.5t-89.5 90t-58.5 104.5t-21 129q0 82 32.5 152.5t91.5 122.5t142.5 82.5t185.5 31.5l35 166h105l-37 -170q69 -5 135 -23t111 -37zM668 1313q-63 -4 -110.5 -26t-79.5 -56.5t-48 -77.5t-16 -88q0 -38 11 -71t31 -62t47.5 -55
t61.5 -52zM764 365q0 29 -8 55.5t-25 53t-45 54t-68 58.5l-96 -465q65 5 110.5 27.5t75 56t43 75t13.5 85.5z" />
    <glyph glyph-name="percent" unicode="%" horiz-adv-x="1686" 
d="M1591 428q0 -84 -28 -164.5t-78.5 -143.5t-122 -101.5t-158.5 -38.5t-143.5 29.5t-89.5 73.5t-45.5 96t-12.5 97q0 81 28 160.5t79.5 143t124.5 102.5t164 39q64 0 116 -19.5t89 -57t57 -92t20 -124.5zM338 0h-148l1229 1434h148zM848 1161q0 -84 -28 -164.5t-79 -143.5
t-122 -101.5t-158 -38.5q-58 0 -102.5 13.5t-77 37t-54 53.5t-34 63t-18 66.5t-5.5 63.5q0 54 12.5 107.5t36.5 103t58.5 92t78 74t96.5 49.5t113 18q64 0 116 -19.5t89 -57t57.5 -92t20.5 -124.5zM1456 424q0 36 -8 69.5t-26 59.5t-47 41.5t-70 15.5q-61 0 -108.5 -32
t-80.5 -81.5t-50 -108.5t-17 -114q0 -35 9 -68.5t28 -59t49 -41t73 -15.5q56 0 101.5 28.5t78 75t50.5 106.5t18 124zM713 1157q0 36 -8 69.5t-26 59.5t-47 41.5t-71 15.5q-61 0 -108.5 -32t-80.5 -81t-50 -108.5t-17 -113.5q0 -35 9 -68t28 -59t49.5 -42t73.5 -16
q55 0 100.5 28.5t78.5 75t51 106.5t18 124z" />
    <glyph glyph-name="ampersand" unicode="&#x26;" horiz-adv-x="1576" 
d="M1336 -23q-57 0 -101 17t-80 48t-65.5 74t-56.5 95q-50 -45 -109 -87.5t-128 -75t-148.5 -52t-171.5 -19.5q-103 0 -182.5 28.5t-133.5 78.5t-81.5 118t-27.5 148q0 92 32 166.5t90 134t138.5 106.5t177.5 84q-21 18 -42.5 44.5t-38.5 59.5t-28 71.5t-11 81.5
q0 84 33.5 150.5t90.5 113t132.5 71.5t159.5 25q75 0 137 -20.5t106.5 -56.5t69 -85t24.5 -107q0 -75 -24 -130.5t-69.5 -98.5t-110 -77t-145.5 -66q59 -31 106.5 -72.5t86 -89.5t69.5 -100.5t56 -106.5q137 146 208 312.5t79 360.5h159q-4 -119 -36 -230t-84.5 -212.5
t-121.5 -193t-146 -171.5q24 -48 46 -83t46 -57.5t53 -33.5t66 -11q30 0 62 7t69 21l-33 -155q-23 -11 -53.5 -18t-68.5 -7zM484 119q79 0 147.5 18t129.5 48.5t114.5 71t102.5 84.5q-36 85 -73 148.5t-80 112.5t-95 86.5t-118 68.5q-72 -24 -142 -57.5t-125 -81t-88.5 -111
t-33.5 -147.5q0 -56 18.5 -100.5t53 -76t82.5 -48t107 -16.5zM963 1169q0 38 -15 67t-40.5 49.5t-59.5 31t-72 10.5q-57 0 -103 -17t-78 -47.5t-49.5 -72t-17.5 -89.5q0 -71 34.5 -124.5t85.5 -82.5q61 21 117.5 45.5t100.5 57t70.5 74.5t26.5 98z" />
    <glyph glyph-name="quotesingle" unicode="'" horiz-adv-x="463" 
d="M393 987h-114l-11 447h135z" />
    <glyph glyph-name="parenleft" unicode="(" horiz-adv-x="623" 
d="M813 1434q-124 -122 -223.5 -252t-169.5 -269t-108 -288.5t-38 -311.5q0 -80 10.5 -161.5t31.5 -160t51 -152.5t69 -138h-141q-42 66 -73.5 140.5t-52.5 152.5t-31.5 157t-10.5 154q0 173 37 326.5t105 292.5t165.5 265.5t218.5 244.5h160z" />
    <glyph glyph-name="parenright" unicode=")" horiz-adv-x="623" 
d="M504 829q0 -172 -37 -326t-105.5 -292.5t-166 -265t-218.5 -244.5h-161q124 122 224 251.5t170 268.5t108 288.5t38 311.5q0 80 -10.5 161t-31 160t-50.5 153t-69 139h139q42 -67 74 -142t53 -153t32 -156.5t11 -153.5z" />
    <glyph glyph-name="asterisk" unicode="*" horiz-adv-x="856" 
d="M600 1049l191 -244l-111 -76l-156 264l-157 -264l-111 76l193 244l-277 55l43 125l262 -99l-22 304h137l-23 -304l262 99l43 -125z" />
    <glyph glyph-name="plus" unicode="+" horiz-adv-x="1403" 
d="M793 530v-403h-131v403h-406v134h406v403h131v-403h403v-134h-403z" />
    <glyph glyph-name="comma" unicode="," horiz-adv-x="446" 
d="M51 -264h-129l201 491h164z" />
    <glyph glyph-name="hyphen" unicode="-" horiz-adv-x="819" 
d="M678 506h-547l29 129h547z" />
    <glyph glyph-name="hyphen" unicode="&#x2010;" horiz-adv-x="819" 
d="M678 506h-547l29 129h547z" />
    <glyph glyph-name="period" unicode="." horiz-adv-x="446" 
d="M244 88q0 -23 -8.5 -43t-23.5 -35t-35.5 -24t-43.5 -9t-43 9t-35 24t-23.5 35t-8.5 43t8.5 43.5t23.5 35.5t35 23.5t43 8.5t43.5 -8.5t35.5 -23.5t23.5 -35.5t8.5 -43.5z" />
    <glyph glyph-name="slash" unicode="/" horiz-adv-x="811" 
d="M4 -238h-168l1041 1672h167z" />
    <glyph glyph-name="zero" unicode="0" horiz-adv-x="1104" 
d="M1098 1034q0 -75 -7 -156.5t-22 -164.5t-38.5 -164.5t-56.5 -157.5t-75.5 -143.5t-95.5 -122.5q-144 -150 -346 -150q-81 0 -148.5 31.5t-115.5 92t-74.5 149t-26.5 203.5q0 111 18 229.5t55 231t92 212.5t130 176q71 75 159 116.5t199 41.5q80 0 145 -27t111.5 -80.5
t71.5 -132.5t25 -184zM932 1020q0 140 -52 219.5t-151 79.5q-59 0 -111 -25.5t-102 -76.5q-39 -41 -73.5 -97.5t-63 -122t-50.5 -137.5t-37.5 -144t-23.5 -141t-8 -129q0 -87 16.5 -149.5t45.5 -103t68.5 -59.5t84.5 -19q54 0 106 24t97 72q53 57 99 147.5t80.5 199.5
t54.5 228.5t20 233.5z" />
    <glyph glyph-name="one" unicode="1" horiz-adv-x="1104" 
d="M51 0l33 143h324l235 1106l-354 -96l35 158l526 147l-281 -1315h324l-31 -143h-811z" />
    <glyph glyph-name="two" unicode="2" horiz-adv-x="1104" 
d="M1100 1130q0 -86 -29.5 -162.5t-85 -151t-134.5 -149.5t-179 -157l-439 -358v-5h654l-31 -147h-866l30 143l560 469q90 76 156 138.5t109.5 120t65 115t21.5 124.5q0 42 -14 80t-43.5 66.5t-75 45.5t-107.5 17q-45 0 -93.5 -11t-97 -30t-94 -43t-83.5 -51l38 178
q29 16 66.5 33t83 31t97.5 23t108 9q101 0 173.5 -27t119 -72t68.5 -104.5t22 -124.5z" />
    <glyph glyph-name="three" unicode="3" horiz-adv-x="1104" 
d="M1051 1137q0 -72 -22 -136.5t-69 -116.5t-120 -89.5t-174 -55.5v-4q60 -9 110 -36t85.5 -68t55 -94t19.5 -115q0 -91 -33 -172t-100.5 -142t-169 -97t-238.5 -36q-55 0 -108 7.5t-99.5 19t-85.5 26t-67 29.5l35 156q27 -18 64.5 -36t81 -31.5t91 -22t94.5 -8.5
q105 0 176 25.5t114 67t61 95t18 109.5q0 119 -88 188.5t-266 69.5h-109l31 141h119q104 0 183.5 21t133.5 59.5t81.5 93.5t27.5 123q0 43 -14 81.5t-43.5 67t-74 45.5t-106.5 17q-51 0 -97.5 -7.5t-87.5 -19.5t-76 -27t-62 -30l34 164q26 10 58 20.5t71 19t86 14t103 5.5
q101 0 172 -28t117 -73.5t67 -103t21 -116.5z" />
    <glyph glyph-name="four" unicode="4" horiz-adv-x="1104" 
d="M864 514h189l-31 -133h-186l-80 -381h-166l80 379h-668l25 113l833 942h199zM862 1270q-15 -22 -36 -52.5t-46 -58.5l-555 -645h473l131 608q4 16 9 35.5t10 39.5t9.5 39t8.5 34h-4z" />
    <glyph glyph-name="five" unicode="5" horiz-adv-x="1104" 
d="M1053 1284h-539l-88 -418q29 2 54 3t52 1q115 0 195.5 -30.5t131.5 -82t74 -119.5t23 -144q0 -57 -12.5 -117.5t-40.5 -118.5t-72.5 -109t-109 -90t-149 -61.5t-193.5 -22.5q-45 0 -91 4t-88 11.5t-78 17t-61 21.5l37 161q24 -16 58 -30t73 -24t80.5 -15.5t81.5 -5.5
q114 0 190 34t122 86t65.5 113.5t19.5 116.5q0 129 -72 195.5t-229 66.5q-30 0 -64.5 -1t-68 -2.5t-64 -3t-52.5 -3.5l151 717h694z" />
    <glyph glyph-name="six" unicode="6" horiz-adv-x="1104" 
d="M1081 1262q-42 24 -101 40.5t-128 16.5q-81 0 -154 -29t-135 -82q-51 -42 -94 -100.5t-77.5 -126.5t-59.5 -141.5t-39 -145.5h4q26 43 63 80t82.5 64.5t99 43t111.5 15.5q89 0 156 -28t112 -79t68 -122t23 -158q0 -100 -31.5 -196t-93 -171.5t-151.5 -121.5t-206 -46
q-92 0 -168 31t-130.5 94t-84.5 158t-30 223q0 129 24.5 251.5t70 231t110 199t145.5 154.5q91 72 195.5 106.5t209.5 34.5q78 0 141.5 -13.5t100.5 -27.5zM844 496q0 55 -14.5 102.5t-44.5 82.5t-77 55t-112 20q-77 0 -135 -29t-97 -76t-59 -106t-20 -119q0 -71 18 -128.5
t51 -98t80.5 -62.5t106.5 -22q72 0 128.5 32.5t95 85.5t59 122t20.5 141z" />
    <glyph glyph-name="seven" unicode="7" horiz-adv-x="1104" 
d="M326 0h-187l797 1286h-709l31 148h930l-10 -52z" />
    <glyph glyph-name="eight" unicode="8" horiz-adv-x="1104" 
d="M1092 1137q0 -83 -26.5 -147.5t-73.5 -113.5t-113 -84t-144 -61q122 -67 184 -153t62 -205q0 -76 -30 -148t-91.5 -127.5t-156 -89t-222.5 -33.5q-96 0 -173.5 26.5t-132.5 74t-84.5 113.5t-29.5 145q0 85 28 152.5t78.5 120t121.5 91t157 66.5q-81 59 -129.5 138
t-48.5 173q0 97 37.5 169t99.5 119.5t143 71t169 23.5q95 0 165 -26.5t117 -71t70 -102.5t23 -121zM924 1118q0 45 -15 82.5t-43 63.5t-68 40.5t-91 14.5q-67 0 -118 -18t-85 -50t-51 -76t-17 -96q0 -87 45 -152t123 -116q78 20 137.5 46.5t100 63t61.5 85t21 112.5z
M813 369q0 51 -17.5 96t-50 83t-77.5 70.5t-101 59.5q-169 -48 -254.5 -127.5t-85.5 -208.5q0 -40 15.5 -80.5t48 -73t82.5 -53t119 -20.5q78 0 138 19t100.5 52.5t61.5 80.5t21 102z" />
    <glyph glyph-name="nine" unicode="9" horiz-adv-x="1104" 
d="M1071 961q0 -118 -22 -240.5t-67 -236t-112.5 -211.5t-158.5 -167q-90 -68 -190 -99.5t-212 -31.5q-78 0 -140.5 12t-94.5 29l22 156q35 -20 90.5 -38.5t130.5 -18.5q84 0 162 27.5t139 76.5q50 38 93 91t78.5 118t62.5 141t43 160h-4q-28 -45 -65 -83t-81 -65t-95 -42
t-107 -15q-105 0 -176.5 38t-115 96.5t-62.5 129.5t-19 136q0 60 12.5 122.5t39 122t66.5 112t94.5 92t125 62.5t156.5 23q103 0 179.5 -37.5t127 -104.5t75.5 -157.5t25 -197.5zM903 1004q0 71 -18 129t-51 99t-79 64t-102 23q-75 0 -133.5 -32t-99 -84.5t-61.5 -121
t-21 -141.5q0 -50 13 -99.5t42 -88.5t75.5 -63.5t113.5 -24.5q84 0 145 31t100 80.5t57.5 110t18.5 118.5z" />
    <glyph glyph-name="colon" unicode=":" horiz-adv-x="446" 
d="M422 936q0 -23 -9 -43.5t-24 -35.5t-35 -23.5t-43 -8.5t-43 8.5t-35 23.5t-23.5 35.5t-8.5 43.5q0 22 8.5 42t23.5 35.5t35 24.5t43 9t43.5 -9t35.5 -24.5t23.5 -35.5t8.5 -42zM244 88q0 -23 -8.5 -43t-23.5 -35t-35.5 -24t-43.5 -9t-43 9t-35 24t-23.5 35t-8.5 43
t8.5 43.5t23.5 35.5t35 23.5t43 8.5t43.5 -8.5t35.5 -23.5t23.5 -35.5t8.5 -43.5z" />
    <glyph glyph-name="semicolon" unicode=";" horiz-adv-x="446" 
d="M422 936q0 -23 -9 -43.5t-24 -35.5t-35 -23.5t-43 -8.5t-43 8.5t-35 23.5t-23.5 35.5t-8.5 43.5q0 22 8.5 42t23.5 35.5t35 24.5t43 9t43.5 -9t35.5 -24.5t23.5 -35.5t8.5 -42zM27 -264h-129l202 491h164z" />
    <glyph glyph-name="less" unicode="&#x3c;" horiz-adv-x="1403" 
d="M238 559v59l860 482v-150l-643 -356v-4l643 -314v-149z" />
    <glyph glyph-name="equal" unicode="=" horiz-adv-x="1403" 
d="M256 743v134h940v-134h-940zM256 317v134h940v-134h-940z" />
    <glyph glyph-name="greater" unicode="&#x3e;" horiz-adv-x="1403" 
d="M330 127v149l643 312v6l-643 354v152l858 -482v-59z" />
    <glyph glyph-name="question" unicode="?" horiz-adv-x="881" 
d="M922 1145q0 -62 -15.5 -116t-48.5 -103.5t-83.5 -97t-119.5 -95.5q-53 -37 -89.5 -70.5t-62 -71t-42.5 -83t-29 -105.5h-151q14 72 32.5 130t47 106.5t70 90t101.5 81.5q63 42 107 80.5t72 77t40.5 77.5t12.5 82q0 37 -13 72.5t-40 63t-67.5 44.5t-94.5 17
q-68 0 -140.5 -22t-140.5 -68l29 168q62 28 134 43.5t147 15.5q86 0 150.5 -26t107.5 -70t64.5 -101.5t21.5 -119.5zM414 92q0 -23 -9 -43t-24.5 -35t-35.5 -23.5t-42 -8.5q-23 0 -43 8.5t-35 23.5t-23.5 35t-8.5 43t8.5 43.5t23.5 35.5t35 23.5t43 8.5q22 0 42 -8.5
t35.5 -23.5t24.5 -35.5t9 -43.5z" />
    <glyph glyph-name="at" unicode="@" horiz-adv-x="1966" 
d="M1825 797q0 -128 -34.5 -240.5t-97 -196t-148.5 -132t-189 -48.5q-51 0 -90 14.5t-65.5 39.5t-40 58.5t-13.5 72.5q0 15 1.5 24.5l4.5 28.5h-4q-60 -115 -135.5 -175.5t-175.5 -60.5q-54 0 -99.5 22t-78.5 62.5t-51.5 97.5t-18.5 128q0 117 38 223t103.5 187t153 129
t186.5 48q43 0 78 -10t61 -27t43.5 -40.5t26.5 -49.5h4q1 5 5.5 21t10 35t10 35.5t5.5 21.5h131q-9 -31 -24.5 -84.5t-34.5 -118t-38 -134t-35 -133t-26 -115t-10 -79.5q0 -60 23.5 -83t72.5 -23q72 0 131.5 42.5t103 111t67.5 153.5t24 170q0 71 -14 140.5t-44.5 132
t-78.5 116t-115.5 92t-155 60.5t-198.5 22q-100 0 -195 -25t-179.5 -72t-154.5 -115t-121 -154.5t-79.5 -190t-28.5 -221.5q0 -138 39.5 -253.5t120.5 -198.5t204.5 -129t290.5 -46q83 0 157.5 8.5t137 21.5t111.5 29t80 31l-25 -126q-28 -13 -72 -27t-102 -26t-130.5 -19.5
t-158.5 -7.5q-185 0 -330.5 52t-246.5 148.5t-154 234t-53 308.5q0 136 33 255t92.5 219t143 178.5t184 133t216 83t238.5 28.5q179 0 312.5 -53.5t222.5 -144t133.5 -209.5t44.5 -250zM1221 811q0 75 -40 116.5t-106 41.5q-70 0 -132.5 -37.5t-109 -102.5t-73.5 -151
t-27 -184q0 -47 11.5 -83.5t31 -61t45.5 -37.5t56 -13q60 0 112 32.5t94 89.5t74 133t51 163q13 51 13 94z" />
    <glyph glyph-name="A" unicode="A" horiz-adv-x="1294" 
d="M999 0l-65 401h-608l-232 -401h-198l854 1434h176l250 -1434h-177zM815 1163q-1 10 -1.5 23t-0.5 26v26v22h-4q-3 -9 -8 -21.5t-11 -26t-12.5 -26.5l-11.5 -23l-354 -610h495z" />
    <glyph glyph-name="B" unicode="B" horiz-adv-x="1174" 
d="M1126 1124q0 -67 -19 -128.5t-58.5 -111.5t-101 -86.5t-146.5 -52.5v-4q62 -10 108.5 -36.5t77.5 -64.5t46.5 -85.5t15.5 -101.5q0 -111 -40.5 -195.5t-112.5 -141.5t-170.5 -86.5t-213.5 -29.5h-438l303 1434h395q86 0 152 -24t111 -66t68 -98.5t23 -121.5zM950 1092
q0 38 -12 72t-38.5 60.5t-69 42t-103.5 15.5h-209l-100 -463h188q86 0 150.5 20t107 56t63.5 86t21 111h2zM872 442q0 105 -73 165.5t-224 60.5h-190l-106 -516h231q94 0 162 20.5t112.5 58.5t66 91.5t21.5 119.5z" />
    <glyph glyph-name="C" unicode="C" horiz-adv-x="1309" 
d="M1325 1196q-29 19 -66.5 39t-82.5 36t-98.5 26t-114.5 10q-150 0 -270.5 -53t-204.5 -146t-129.5 -218.5t-45.5 -271.5q0 -119 33 -210.5t94 -154t146 -94.5t188 -32q66 0 120 7.5t100 21t86.5 32t78.5 39.5l-39 -176q-81 -37 -173.5 -56.5t-207.5 -19.5
q-136 0 -247.5 45t-190 127.5t-121.5 198.5t-43 258q0 188 59.5 345t169 270t263 176t340.5 63q128 0 226.5 -27.5t166.5 -62.5z" />
    <glyph glyph-name="D" unicode="D" horiz-adv-x="1458" 
d="M1401 854q0 -106 -21.5 -211t-66 -200t-114.5 -176t-167 -140.5t-222.5 -93t-281.5 -33.5h-454l305 1434h399q140 0 255 -39.5t196.5 -114.5t126.5 -182.5t45 -243.5zM1225 842q0 210 -123 325t-365 115h-219l-242 -1130h267q169 0 296.5 54t213 148t129 219.5
t43.5 268.5z" />
    <glyph glyph-name="E" unicode="E" horiz-adv-x="1022" 
d="M1071 1282h-553l-104 -489h512l-33 -152h-512l-105 -489h588l-30 -152h-760l303 1434h727z" />
    <glyph glyph-name="F" unicode="F" horiz-adv-x="1001" 
d="M1071 1278h-553l-106 -490h514l-33 -155h-514l-133 -633h-172l303 1434h727z" />
    <glyph glyph-name="G" unicode="G" horiz-adv-x="1409" 
d="M1350 1190q-33 22 -75.5 43t-93.5 37.5t-110.5 26.5t-126.5 10q-149 0 -266 -53t-198 -144.5t-124 -215.5t-43 -265q0 -117 32.5 -210t93.5 -158t147.5 -99.5t195.5 -34.5q75 0 135.5 12.5t112.5 32.5l86 418h-332l33 149h504l-141 -661q-85 -45 -188 -75t-230 -30
q-147 0 -263 49t-196.5 134.5t-123 202t-42.5 251.5q0 116 24 224t71 202.5t117 172t162 133t205.5 86t248.5 30.5q74 0 137.5 -9t116 -23t93.5 -30.5t70 -31.5z" />
    <glyph glyph-name="H" unicode="H" horiz-adv-x="1450" 
d="M1151 0h-172l137 647h-733l-135 -647h-174l303 1434h174l-135 -629h733l135 629h172z" />
    <glyph glyph-name="I" unicode="I" horiz-adv-x="545" 
d="M246 0h-172l303 1434h174z" />
    <glyph glyph-name="J" unicode="J" horiz-adv-x="709" 
d="M535 508q-28 -130 -69.5 -230t-99.5 -167t-134 -101.5t-173 -34.5q-18 0 -43 3t-49 8.5t-44 11.5t-29 12l28 160q11 -9 26.5 -17.5t33.5 -14.5t38 -9.5t39 -3.5q54 0 100 19.5t83.5 64t67.5 116t52 175.5l197 934h172z" />
    <glyph glyph-name="K" unicode="K" horiz-adv-x="1228" 
d="M573 723l498 -723h-209l-434 653q-6 11 -15 27t-14 27h-4l-149 -707h-172l303 1434h174l-143 -674h4q11 12 23.5 25t23.5 24l659 625h228z" />
    <glyph glyph-name="L" unicode="L" horiz-adv-x="948" 
d="M817 0h-743l303 1434h174l-272 -1278h571z" />
    <glyph glyph-name="M" unicode="M" horiz-adv-x="1675" 
d="M1376 0h-167l204 962q12 57 31 129.5t44 155.5h-4q-12 -24 -30 -53.5t-37.5 -57t-35.5 -49.5t-23 -33l-513 -680h-82l-224 678q-2 12 -9.5 34.5t-14.5 50t-12.5 56.5t-5.5 54h-4q-6 -43 -19.5 -116t-33.5 -171l-204 -960h-162l304 1434h200l227 -682q15 -45 23.5 -84
t10.5 -68h6q16 30 39 70t59 86l515 678h222z" />
    <glyph glyph-name="N" unicode="N" horiz-adv-x="1538" 
d="M1241 0h-186l-529 1149q-3 8 -7 19.5t-8 24.5t-7 25t-4 19h-6q-1 -10 -2.5 -24.5t-3.5 -29.5t-4.5 -29.5t-4.5 -25.5l-239 -1128h-166l303 1434h201l507 -1125q5 -9 10 -21.5t10 -26t9.5 -26.5t7.5 -22h4q1 12 3 28t4 33.5t5 34.5t5 29l233 1096h170z" />
    <glyph glyph-name="O" unicode="O" horiz-adv-x="1544" 
d="M1487 852q0 -93 -17 -184.5t-49 -176.5t-78.5 -161t-105.5 -137q-48 -50 -104 -90.5t-120 -69t-137 -43.5t-157 -15q-135 0 -243 46.5t-183.5 128t-115.5 193.5t-40 243q0 208 67.5 373t188.5 286q98 98 226.5 155.5t291.5 57.5q132 0 238.5 -45t181.5 -126t115.5 -192
t40.5 -243zM1309 846q0 107 -29 192t-83 145t-130 92t-170 32q-111 0 -212 -48t-179 -133q-44 -48 -79.5 -110t-61 -132t-39 -146t-13.5 -154q0 -100 27.5 -184t80 -144.5t129.5 -94.5t177 -34q111 0 212.5 44.5t178.5 131.5q48 54 83.5 120.5t59.5 138t36 144.5t12 140z
" />
    <glyph glyph-name="P" unicode="P" horiz-adv-x="1178" 
d="M1176 1057q0 -106 -36 -199.5t-109.5 -163.5t-186.5 -110.5t-266 -40.5h-218l-114 -543h-172l303 1434h371q115 0 196.5 -31.5t133 -84t75 -120.5t23.5 -141zM999 1042q0 54 -18.5 98.5t-54.5 76t-89.5 48.5t-123.5 17h-195l-125 -588h201q106 0 182.5 26.5t126 73
t73 110t23.5 138.5z" />
    <glyph glyph-name="Q" unicode="Q" horiz-adv-x="1544" 
d="M1309 842q0 107 -28.5 192.5t-81.5 146.5t-128.5 93.5t-169.5 32.5q-109 0 -211 -46t-180 -131q-94 -103 -145.5 -244t-51.5 -304q0 -99 27.5 -182.5t80 -144t129.5 -94.5t177 -34q117 0 217 46.5t172 127.5q48 54 84 119t60 135.5t36.5 143.5t12.5 143zM909 0
q40 -56 76.5 -99t76 -72.5t85 -44.5t104.5 -15q32 0 74.5 6.5t74.5 18.5l-34 -162q-35 -9 -80 -14.5t-79 -5.5q-96 0 -166 28.5t-126.5 78t-104.5 115.5t-99 142q-140 3 -247 52t-180 131t-110 191t-37 232q0 209 66.5 375t187.5 286q47 46 101.5 85.5t118.5 68t139.5 45
t164.5 16.5q132 0 238 -46t180.5 -127t114 -193t39.5 -244q0 -95 -16.5 -188t-49.5 -179t-82 -162.5t-113 -139t-143.5 -108.5t-173.5 -71z" />
    <glyph glyph-name="R" unicode="R" horiz-adv-x="1192" 
d="M1169 1079q0 -93 -32.5 -168t-89.5 -129t-136 -86.5t-172 -40.5v-4q47 -15 82.5 -63t57.5 -129l120 -459h-184l-106 428q-23 94 -73.5 138t-133.5 44h-125l-131 -610h-172l303 1434h395q105 0 180 -28t123 -76.5t71 -113t23 -137.5zM993 1061q0 48 -15 88.5t-46 70
t-79 46t-114 16.5h-221l-110 -520h198q105 0 178.5 25t120 66t67.5 95.5t21 112.5z" />
    <glyph glyph-name="S" unicode="S" horiz-adv-x="1018" 
d="M991 1219q-25 18 -59.5 34t-74 28t-82.5 19t-85 7q-80 0 -134.5 -22.5t-87.5 -57t-47.5 -75.5t-14.5 -77q0 -47 13 -85t39 -73t67 -70t96 -75q62 -45 110.5 -89t82.5 -90.5t51.5 -98t17.5 -111.5q0 -37 -7.5 -81.5t-27 -89.5t-53.5 -88t-86.5 -76t-126.5 -53t-174 -20
q-56 0 -110 8t-102.5 21t-89 29.5t-69.5 32.5l29 174q32 -23 73 -43.5t87 -36t95 -24.5t97 -9q76 0 130.5 18t90 49.5t52 74.5t16.5 93q0 45 -14 81t-43 70.5t-73.5 70t-105.5 78.5q-49 35 -93.5 75.5t-78 88.5t-53 104.5t-19.5 122.5q0 82 30.5 155.5t90.5 129t148.5 88
t205.5 32.5q45 0 89.5 -5.5t86.5 -15t79.5 -21t66.5 -23.5z" />
    <glyph glyph-name="T" unicode="T" horiz-adv-x="1077" 
d="M1190 1282h-408l-270 -1282h-172l272 1282h-417l32 152h996z" />
    <glyph glyph-name="U" unicode="U" horiz-adv-x="1411" 
d="M1247 563q-30 -140 -75.5 -249.5t-117 -184.5t-174.5 -114.5t-247 -39.5q-111 0 -198 35t-146 96t-90 144t-31 180q0 43 5.5 97t14.5 102l174 805h173l-173 -795q-4 -23 -8.5 -50t-8 -54t-5.5 -51t-2 -42q0 -80 24 -139t66.5 -98t100 -58.5t124.5 -19.5q85 0 152 24
t118 75t87.5 130t60.5 189l191 889h172z" />
    <glyph glyph-name="V" unicode="V" horiz-adv-x="1286" 
d="M596 0h-168l-215 1434h174l158 -1123q5 -28 7 -63.5t-1 -61.5h4q5 13 11.5 29t15 32.5l17 33t15.5 30.5l641 1123h193z" />
    <glyph glyph-name="W" unicode="W" horiz-adv-x="1903" 
d="M1362 0h-178l-92 1063q-2 31 0.5 70t5.5 73h-4q-10 -32 -25 -72t-31 -69l-544 -1065h-183l-114 1434h178l74 -1092q2 -34 0 -73t-7 -70h4q5 14 12 32t15 37.5t16.5 38.5t16.5 35l557 1092h154l90 -1100q3 -28 2 -66t-4 -69h4q5 16 11.5 34.5t14 37t15 36t14.5 31.5
l526 1096h187z" />
    <glyph glyph-name="X" unicode="X" horiz-adv-x="1210" 
d="M1364 1434q-7 -9 -35 -42t-69 -82t-92 -108.5t-104 -121.5t-104.5 -122.5t-93.5 -109.5t-71 -83.5t-37 -45.5q3 -10 17 -44t35 -83.5t46.5 -110t52 -123t52 -122.5t46.5 -109.5t35.5 -83t18.5 -43.5h-195l-213 549q-2 5 -5 14.5t-6 20.5t-5 21.5t-4 17.5h-4
q-3 -6 -8 -15.5t-11.5 -21t-13.5 -22.5t-14 -19l-455 -545h-215q7 8 36 41.5t72 82.5t96 109.5t108 124t109 125t98.5 113t76.5 88t43 49.5q-5 15 -20.5 51.5t-37 86t-47 108t-52 118.5t-51.5 117t-45 103.5t-33.5 77.5t-16.5 39h198l203 -535q3 -7 6.5 -16.5t6.5 -20
t6 -20.5t4 -17h4q3 6 8 15.5t11.5 20t13.5 21.5t14 19l440 533h201z" />
    <glyph glyph-name="Y" unicode="Y" horiz-adv-x="1135" 
d="M651 545l-114 -545h-172l114 541l-268 893h182l178 -660q7 -23 11.5 -46.5t7.5 -39.5h2q8 16 22 38.5t29 45.5l477 662h193z" />
    <glyph glyph-name="Z" unicode="Z" horiz-adv-x="1167" 
d="M1309 1391l-1082 -1239h799l-33 -152h-1071l10 51l1074 1231h-744l31 152h1026z" />
    <glyph glyph-name="bracketleft" unicode="[" horiz-adv-x="623" 
d="M752 1315h-222l-323 -1522h221l-25 -119h-368l375 1760h368z" />
    <glyph glyph-name="backslash" unicode="\" horiz-adv-x="791" 
d="M506 -240l-348 1674h147l344 -1674h-143z" />
    <glyph glyph-name="bracketright" unicode="]" horiz-adv-x="623" 
d="M215 -326h-367l25 119h221l324 1520h-221l24 121h369z" />
    <glyph glyph-name="asciicircum" unicode="^" horiz-adv-x="1403" 
d="M1055 625l-332 618h-6l-307 -618h-148l422 833h66l456 -833h-151z" />
    <glyph glyph-name="underscore" unicode="_" horiz-adv-x="850" 
d="M-172 -297l25 119h849l-24 -119h-850z" />
    <glyph glyph-name="grave" unicode="`" horiz-adv-x="715" 
d="M528 1219l-239 327h153l207 -327h-121z" />
    <glyph glyph-name="a" unicode="a" horiz-adv-x="1110" 
d="M905 328q-8 -38 -15.5 -85.5t-13 -94t-9 -86.5t-3.5 -62h-170q1 20 3 48t5.5 58t7 59t7.5 50h-4q-31 -49 -63 -92.5t-71 -76.5t-87 -52t-113 -19q-67 0 -122.5 24t-95.5 71.5t-61.5 119t-21.5 166.5q0 58 12 132t40.5 151t76 150.5t118 131.5t166.5 93t222 35
q80 0 165 -12t169 -29zM858 889q-35 8 -82 14t-88 6q-87 0 -153.5 -27.5t-115.5 -72t-82.5 -102.5t-53.5 -118.5t-28.5 -119.5t-8.5 -107q0 -57 10 -102.5t31.5 -77.5t55 -49.5t79.5 -17.5q50 0 93.5 20.5t81.5 55.5t69 81t56 97.5t42.5 105t28.5 103.5z" />
    <glyph glyph-name="b" unicode="b" horiz-adv-x="1110" 
d="M1032 666q0 -68 -14 -145.5t-45 -154t-79 -147.5t-115.5 -125t-156 -86.5t-200.5 -32.5q-46 0 -95 6.5t-96 18.5t-90 29t-78 39l308 1448h166l-103 -490q-11 -49 -22.5 -103t-22.5 -96h2q32 51 68 92t77.5 70t89 44.5t103.5 15.5q146 0 224.5 -100t78.5 -283zM864 662
q0 57 -10.5 103t-33 78t-57.5 49t-85 17q-63 0 -121 -37t-106 -98t-83 -138t-51 -157l-67 -319q34 -19 85.5 -32t106.5 -13q71 0 130 23.5t106 64.5t82 95t58 114.5t34.5 125t11.5 124.5z" />
    <glyph glyph-name="c" unicode="c" horiz-adv-x="893" 
d="M864 821q-42 37 -101.5 62.5t-131.5 25.5q-69 0 -124.5 -24t-98.5 -64t-74 -92t-51 -108t-29.5 -111.5t-9.5 -103.5q0 -143 63 -217t172 -74q66 0 137 27.5t134 70.5l-35 -164q-65 -35 -129.5 -54.5t-136.5 -19.5q-94 0 -163.5 32t-115.5 88t-69 132.5t-23 165.5
q0 84 17 165.5t50.5 154t82.5 134.5t112.5 106.5t141.5 70t169 25.5q43 0 82 -6t71 -16t57 -21.5t40 -22.5z" />
    <glyph glyph-name="d" unicode="d" horiz-adv-x="1110" 
d="M901 315q-7 -32 -13.5 -77t-11.5 -90.5t-8.5 -85.5t-3.5 -62h-170q0 17 2.5 45.5t6 59.5t7.5 59.5t7 46.5h-4q-36 -58 -72 -102.5t-76 -74t-85 -44.5t-99 -15q-70 0 -126 25t-95.5 73.5t-60.5 120t-21 164.5q0 74 15.5 154t48 157t82.5 146t119 121t158 82.5t199 30.5
q56 0 104 -7.5t83 -15.5l104 490h162zM858 885q-38 11 -79.5 17.5t-88.5 6.5q-87 0 -153.5 -27t-116 -72t-83 -102.5t-54 -118t-29 -119t-8.5 -105.5q0 -56 9.5 -102t31 -79t55.5 -51t82 -18q50 0 93.5 21t81.5 57t69 83t56 100t42.5 107.5t28.5 104.5z" />
    <glyph glyph-name="e" unicode="e" horiz-adv-x="997" 
d="M958 784q0 -81 -36 -147.5t-119 -114t-219 -73.5t-336 -27q-2 -11 -2 -23v-20q0 -54 15 -102t46.5 -84t81 -57t117.5 -21q69 0 151.5 26.5t157.5 75.5l-31 -162q-55 -32 -131 -56t-170 -24q-113 0 -190.5 35t-125 93.5t-68.5 135t-21 160.5q0 90 20 173.5t56.5 155.5
t87.5 131.5t113 101.5t133 65t147 23q79 0 139.5 -21t101 -57.5t61.5 -84.5t21 -102zM791 776q0 63 -46.5 98t-123.5 35q-61 0 -118 -26.5t-105 -73t-83 -111t-51 -139.5q143 0 243 14.5t163 42.5t92 68.5t29 91.5z" />
    <glyph glyph-name="f" unicode="f" horiz-adv-x="604" 
d="M823 1374q-10 5 -24 9.5t-30 8.5t-33.5 6.5t-33.5 2.5q-82 0 -126.5 -53.5t-67.5 -159.5l-37 -164h242l-33 -139h-242l-262 -1225h-166l264 1225h-176l31 139h176l41 190q19 88 53 150t81 101t106.5 57t130.5 18q37 0 72.5 -6t60.5 -14z" />
    <glyph glyph-name="g" unicode="g" horiz-adv-x="1110" 
d="M850 74q-25 -120 -66 -221.5t-108.5 -176t-166.5 -116t-241 -41.5q-98 0 -170.5 23t-132.5 55l31 153q63 -38 134 -64t153 -26q89 0 154.5 26t113 76.5t79 123.5t52.5 167l35 160h-4q-38 -61 -74.5 -105.5t-76.5 -74t-84 -44t-97 -14.5q-69 0 -125 24.5t-95.5 72.5
t-61 120t-21.5 166q0 89 19.5 175t56.5 163t90.5 141.5t121.5 111.5t149.5 73.5t174.5 26.5t186 -12t171 -27zM858 889q-34 8 -82.5 14t-103.5 6q-94 0 -172 -43.5t-134.5 -118t-88 -173.5t-31.5 -209q0 -54 9.5 -100t30 -79t53 -52t79.5 -19q55 0 101.5 23t85.5 61
t69.5 86.5t54 99.5t39.5 100.5t25 89.5z" />
    <glyph glyph-name="h" unicode="h" horiz-adv-x="1141" 
d="M1036 766q0 -13 -3.5 -39.5t-8 -56.5t-10 -59.5t-10.5 -49.5l-119 -561h-166l125 600q4 16 8 37t7 42t5 38.5t2 27.5q0 78 -35.5 121t-109.5 43q-64 0 -128 -37.5t-119 -97t-95.5 -133t-56.5 -145.5l-107 -496h-166l324 1516h164l-156 -732h4q37 57 81 105.5t93.5 84
t104 55.5t112.5 20q128 0 194 -75.5t66 -207.5z" />
    <glyph glyph-name="i" unicode="i" horiz-adv-x="530" 
d="M416 4q-25 -8 -56.5 -13t-62.5 -5q-101 0 -151 50.5t-50 135.5q0 25 5 59t16 84l149 709h166l-150 -713q-9 -42 -12.5 -65t-3.5 -39q0 -41 22.5 -62.5t71.5 -21.5q26 0 45.5 3t36.5 9zM533 1389q0 -45 -30.5 -77t-75.5 -32q-44 0 -76.5 31.5t-32.5 77.5t32.5 75t76.5 29
t75 -29.5t31 -74.5z" />
    <glyph glyph-name="j" unicode="j" horiz-adv-x="492" 
d="M225 47q-55 -264 -170.5 -396t-298.5 -132q-17 0 -36.5 2t-39 6t-38 9.5t-33.5 12.5l29 154q12 -8 28 -16t34 -14.5t36.5 -10.5t34.5 -4q103 0 174 89t108 269l215 1008h164zM533 1389q0 -45 -30.5 -77t-75.5 -32q-44 0 -76.5 31.5t-32.5 77.5t32.5 75t76.5 29t75 -29.5
t31 -74.5z" />
    <glyph glyph-name="k" unicode="k" horiz-adv-x="1004" 
d="M498 551l362 -551h-190l-336 541h-4l-115 -541h-166l324 1516h164l-197 -926h4l510 434h213z" />
    <glyph glyph-name="l" unicode="l" horiz-adv-x="530" 
d="M416 4q-25 -8 -56.5 -13t-62.5 -5q-101 0 -151 50.5t-50 135.5q0 25 5 59t16 84l256 1202h166l-257 -1206q-9 -42 -12.5 -65t-3.5 -39q0 -41 22.5 -62.5t71.5 -21.5q26 0 45.5 3t36.5 9z" />
    <glyph glyph-name="m" unicode="m" horiz-adv-x="1757" 
d="M1653 766q0 -13 -3.5 -39.5t-9 -56.5t-11 -59.5t-9.5 -49.5l-121 -561h-164l125 600q4 17 8 38t7.5 41.5t5.5 38t2 27.5q0 79 -34 121.5t-106 42.5q-38 0 -78.5 -17.5t-79 -47.5t-74 -70t-65 -85.5t-50.5 -93t-31 -93.5l-107 -502h-166l127 600q4 17 8 38t7.5 41.5
t5.5 38t2 27.5q0 79 -35 121.5t-105 42.5q-39 0 -80 -17.5t-80 -48t-74.5 -71t-65 -86t-50 -93t-30.5 -93.5l-107 -500h-166l158 731q8 39 16 81.5t15 82t12 73.5t8 56h160q-5 -39 -12 -81.5t-12 -78.5q-6 -42 -13 -82h4q36 58 78 107t89 84.5t98 55.5t106 20q64 0 110 -19
t76.5 -53.5t46.5 -83.5t19 -109q37 56 79.5 104.5t91 84t103 56t115.5 20.5q128 0 192 -74.5t64 -208.5z" />
    <glyph glyph-name="n" unicode="n" horiz-adv-x="1151" 
d="M1046 768q0 -15 -3.5 -41t-9 -56t-11 -59.5t-10.5 -50.5l-119 -561h-166l125 600q4 16 8 37t7 42t5 38.5t2 27.5q0 76 -36.5 120t-108.5 44q-66 0 -131 -39t-120 -99t-94.5 -132t-53.5 -139l-107 -500h-166l158 731q8 39 16 81.5t15 82t12 73.5t8 56h160
q-5 -39 -12 -81.5t-12 -78.5q-6 -42 -13 -82h4q35 55 77.5 103.5t92 85t105 57.5t116.5 21q68 0 117 -20.5t81.5 -57.5t48 -89t15.5 -114z" />
    <glyph glyph-name="o" unicode="o" horiz-adv-x="1096" 
d="M1018 645q0 -136 -38.5 -258t-111 -213.5t-176 -145t-233.5 -53.5q-88 0 -158.5 28t-120 80.5t-76 127t-26.5 168.5q0 141 40.5 263.5t114 213t176 142t226.5 51.5q87 0 157.5 -28t120.5 -80.5t77.5 -127t27.5 -168.5zM850 637q0 65 -16 115.5t-45 85t-70 53t-92 18.5
q-88 0 -159 -45t-120 -118.5t-75.5 -167t-26.5 -191.5q0 -62 15.5 -112.5t44 -86t70 -54.5t93.5 -19q89 0 160 44.5t120 118t75 167.5t26 192z" />
    <glyph glyph-name="p" unicode="p" horiz-adv-x="1110" 
d="M1032 666q0 -74 -16 -153.5t-49 -156.5t-82.5 -146t-116.5 -121.5t-152 -83t-188 -30.5q-59 0 -116.5 11t-100.5 26l-102 -487h-166l250 1184q7 32 13 77t10.5 90.5t7.5 85.5t3 62h168q0 -17 -2.5 -46t-6.5 -60.5t-8 -61t-7 -47.5h4q71 121 160 180.5t194 59.5
q70 0 126 -24t95.5 -72t60.5 -120t21 -167zM864 659q0 54 -9.5 100t-31.5 79t-56.5 52t-84.5 19q-52 0 -97.5 -21.5t-84.5 -57.5t-71 -83.5t-57 -98.5t-42.5 -102.5t-26.5 -96.5l-63 -297q18 -8 43 -14.5t52 -11.5t55 -8t52 -3q69 0 127.5 23t105 62.5t82 93t59.5 114
t36 125t12 126.5z" />
    <glyph glyph-name="q" unicode="q" horiz-adv-x="1110" 
d="M735 -475h-166l101 473q9 49 21.5 103t23.5 96h-2q-34 -52 -70.5 -93.5t-77 -70t-86 -43.5t-98.5 -15q-70 0 -126.5 25t-95.5 74t-60 120t-21 164q0 66 13.5 143t44 154t79 148t118.5 125.5t163 87.5t211 33q54 0 104.5 -5t94 -12t79.5 -15.5t62 -15.5zM858 885
q-35 9 -76 16.5t-94 7.5q-85 0 -151 -27t-115.5 -71.5t-83 -101.5t-54 -117.5t-29.5 -119.5t-9 -107q0 -54 9 -100t30 -79t55 -52t84 -19q52 0 97 22t83 58.5t69 83.5t54.5 98.5t40 102.5t25.5 95z" />
    <glyph glyph-name="r" unicode="r" horiz-adv-x="727" 
d="M766 850h-4q-20 12 -52.5 23.5t-64.5 11.5q-58 0 -111 -37.5t-96.5 -99t-76 -140.5t-50.5 -162l-96 -446h-164l144 680q9 42 18 88t16.5 92t13.5 88t9 76h162q-3 -30 -7 -63.5t-8 -65t-8 -57t-6 -39.5h4q32 57 65 103t69.5 78.5t77.5 50.5t89 18q28 0 55.5 -5.5
t49.5 -11.5z" />
    <glyph glyph-name="s" unicode="s" horiz-adv-x="809" 
d="M725 844q-45 29 -101 47t-112 18q-94 0 -145.5 -43t-51.5 -114q0 -29 9.5 -53t28 -45.5t47 -41.5t65.5 -43q112 -65 161.5 -133.5t49.5 -154.5q0 -58 -21.5 -113.5t-68.5 -98t-121.5 -68.5t-181.5 -26q-30 0 -66 4t-72.5 12t-70 19.5t-58.5 26.5l33 156q20 -14 49.5 -28
t64 -25t72 -18t74.5 -7q100 0 149.5 40t49.5 111q0 26 -7.5 48t-26.5 44t-50 44.5t-78 50.5q-102 62 -150.5 129.5t-48.5 152.5q0 62 23 118.5t68.5 100t114.5 69.5t161 26q72 0 136.5 -14t109.5 -36z" />
    <glyph glyph-name="t" unicode="t" horiz-adv-x="662" 
d="M690 885h-258l-115 -543q-6 -31 -12 -67t-6 -58q0 -51 22.5 -73.5t71.5 -22.5q12 0 31 4t39 10t39.5 13.5t34.5 13.5l-31 -144q-35 -15 -79.5 -25.5t-84.5 -10.5q-57 0 -97 14.5t-65.5 41.5t-37 65.5t-11.5 86.5q0 29 5.5 67.5t13.5 70.5l118 557h-170l31 139h168l53 250
q4 2 30.5 9.5t58 17t58 17.5t29.5 9l-63 -303h258z" />
    <glyph glyph-name="u" unicode="u" horiz-adv-x="1143" 
d="M930 291q-9 -39 -16.5 -81t-14.5 -81t-12 -73t-8 -56h-160q5 39 11.5 81.5t12.5 78.5q7 42 13 82h-4q-35 -55 -77.5 -103.5t-92 -85t-105 -57.5t-115.5 -21q-66 0 -115.5 20.5t-82.5 57.5t-49.5 89t-16.5 116q0 13 4 39t9 56t11.5 59.5t10.5 50.5l119 561h166l-127 -600
q-4 -16 -8 -37t-7.5 -42t-5.5 -38.5t-2 -27.5q0 -75 36.5 -119.5t109.5 -44.5q44 0 88 18t85.5 48.5t78.5 71t67 86t51 93.5t31 92l107 500h165z" />
    <glyph glyph-name="v" unicode="v" horiz-adv-x="969" 
d="M438 0h-139l-162 1024h166l90 -645q3 -19 5.5 -43t5 -49t3.5 -49t1 -43h4q8 18 18.5 41t23.5 47.5t26.5 49.5t25.5 46l366 645h187z" />
    <glyph glyph-name="w" unicode="w" horiz-adv-x="1475" 
d="M1024 0h-162l-59 727q-1 9 -1 23t0.5 28t2 27.5t2.5 21.5h-4q-3 -10 -8 -23t-11 -27.5t-12.5 -28t-11.5 -23.5l-383 -725h-162l-90 1024h158l49 -766q2 -22 0.5 -47.5t-4.5 -48.5h6q8 23 18.5 51.5t20.5 48.5l399 762h146l57 -768q2 -23 -0.5 -49.5t-5.5 -46.5h8
q2 10 6.5 22.5t9.5 26t10.5 26.5t10.5 23l368 766h166z" />
    <glyph glyph-name="x" unicode="x" horiz-adv-x="932" 
d="M559 500l236 -500l-181 -2l-129 321q-6 16 -16.5 43t-19.5 50h-5q-7 -10 -16.5 -22.5t-18.5 -24.5t-17.5 -22.5t-14.5 -18.5l-268 -324h-195l461 510l-230 514h181l123 -326q9 -24 18 -52t14 -44h4q6 7 14 17.5t17 22.5t18.5 24t18.5 22l278 336h187z" />
    <glyph glyph-name="y" unicode="y" horiz-adv-x="991" 
d="M367 -170q-46 -75 -93 -132.5t-98.5 -97.5t-110 -60.5t-128.5 -20.5q-23 0 -51.5 4.5t-45.5 9.5l31 145q15 -8 39 -13t47 -5q69 0 124.5 38t104.5 116l123 190l-186 1020h170l119 -786q3 -22 3.5 -42.5t-1.5 -35.5h6q5 12 15.5 34t23.5 42l454 788h181z" />
    <glyph glyph-name="z" unicode="z" horiz-adv-x="926" 
d="M981 975l-768 -836h582l-31 -139h-842l12 53l768 832h-534l31 139h792z" />
    <glyph glyph-name="braceleft" unicode="{" horiz-adv-x="623" 
d="M709 1309q-77 0 -127.5 -45t-73.5 -152l-62 -283q-24 -112 -73 -181.5t-123 -92.5v-4q38 -19 64 -61.5t26 -116.5q0 -22 -2 -45t-8 -49l-56 -259q-5 -26 -8.5 -49t-3.5 -43q0 -60 31.5 -87.5t97.5 -30.5l-26 -121q-66 1 -113.5 18t-78 46.5t-44.5 69t-14 87.5
q0 22 2.5 43.5t7.5 44.5l61 285q5 21 7 41t2 38q0 63 -30 100t-93 42l26 114q83 5 131.5 54.5t71.5 156.5l61 289q20 95 56 155.5t84.5 96t107.5 49.5t125 15z" />
    <glyph glyph-name="bar" unicode="|" horiz-adv-x="492" 
d="M174 -481v2048h145v-2048h-145z" />
    <glyph glyph-name="braceright" unicode="}" horiz-adv-x="623" 
d="M524 504q-41 -2 -73.5 -15t-57.5 -38.5t-42.5 -64.5t-28.5 -93l-62 -287q-20 -95 -55.5 -156t-83.5 -96t-107 -49t-125 -14l25 123q78 1 129 46t74 152l59 281q25 112 74 182.5t125 93.5v4q-38 19 -65 61.5t-27 117.5q0 20 2.5 44t7.5 50l55 258q12 50 12 90
q0 60 -30 88.5t-97 30.5l25 121q67 -1 114.5 -17.5t77.5 -45.5t44 -69t14 -88q0 -21 -2.5 -43t-7.5 -45l-60 -284q-5 -23 -7.5 -42.5t-2.5 -37.5q0 -65 30.5 -101.5t92.5 -39.5z" />
    <glyph glyph-name="asciitilde" unicode="~" horiz-adv-x="1403" 
d="M1210 750q-3 -67 -21.5 -124t-53 -98t-86 -64.5t-119.5 -23.5q-39 0 -73 8.5t-65.5 23.5t-61.5 35t-62 42q-18 12 -37.5 23.5t-40 21.5t-42 16t-42.5 6q-69 0 -105.5 -45.5t-40.5 -130.5h-135q3 68 22 125t54 98t86.5 64t118.5 23q38 0 71 -7.5t61.5 -20t53.5 -28.5
t49 -32q33 -22 58.5 -39.5t47.5 -28.5t44 -17t47 -6q31 0 56 13t42.5 37t27.5 57t11 72h135z" />
    <glyph glyph-name="nonbreakingspace" unicode="&#xa0;" horiz-adv-x="563" 
 />
    <glyph glyph-name="exclamdown" unicode="&#xa1;" horiz-adv-x="653" 
d="M520 942q0 -23 -8.5 -43.5t-23.5 -36t-34.5 -24.5t-41.5 -9q-23 0 -43.5 9t-35.5 24.5t-23.5 36t-8.5 43.5t8.5 43.5t23.5 35.5t35.5 23.5t43.5 8.5q22 0 41.5 -8.5t34.5 -23.5t23.5 -35.5t8.5 -43.5zM221 -399h-172l238 1030h135z" />
    <glyph glyph-name="cent" unicode="&#xa2;" horiz-adv-x="1104" 
d="M999 993q-29 32 -74 56.5t-102 33.5l-166 -780q60 6 115.5 30t112.5 66l-33 -168q-43 -27 -99.5 -47.5t-125.5 -25.5l-43 -207h-127l43 211q-75 13 -132.5 49.5t-97 90.5t-60 123t-20.5 148q0 86 14.5 159.5t40.5 136.5t62 116t78 96q34 34 74.5 60t85 44t91 28.5
t91.5 13.5l39 186h127l-39 -190q62 -8 111 -23.5t73 -34.5zM696 1079q-60 -12 -111 -41.5t-91 -74.5q-31 -35 -56 -78.5t-41.5 -92.5t-25.5 -101.5t-9 -104.5q0 -113 46.5 -181t123.5 -90z" />
    <glyph glyph-name="sterling" unicode="&#xa3;" horiz-adv-x="1104" 
d="M1100 1262q-42 27 -91.5 42t-103.5 15q-110 0 -186 -74.5t-111 -240.5l-49 -228h297l-31 -141h-295l-41 -184q-23 -113 -83 -190.5t-154 -121.5h688l-29 -139h-901l31 135q119 34 189.5 115t95.5 199l39 186h-197l29 141h198l56 260q23 106 66.5 185.5t103 132t134 78.5
t158.5 26q70 0 127 -12t93 -29z" />
    <glyph glyph-name="currency" unicode="&#xa4;" horiz-adv-x="1139" 
d="M983 258l-139 137q-56 -40 -117 -58t-121 -18q-56 0 -118.5 16.5t-120.5 59.5l-138 -137l-92 96l137 133q-44 66 -59.5 128.5t-15.5 109.5q0 50 15.5 112t59.5 126l-137 135l92 96l138 -137q60 43 121.5 60.5t117.5 17.5t119 -19t119 -59l139 137l92 -96l-137 -135
q46 -69 61 -130.5t15 -107.5q0 -48 -15.5 -108.5t-60.5 -129.5l137 -133zM883 727q0 60 -23.5 110.5t-62.5 86.5t-89 56.5t-102 20.5q-57 0 -107 -21.5t-87 -59t-58.5 -87.5t-21.5 -106q0 -57 21.5 -107t59 -87t87 -58.5t106.5 -21.5t107.5 21.5t88 58.5t59.5 87t22 107z
" />
    <glyph glyph-name="yen" unicode="&#xa5;" horiz-adv-x="1104" 
d="M741 778h285l-29 -139h-335l-44 -207h334l-28 -139h-334l-64 -293h-164l64 293h-342l29 139h342l43 207h-342l30 139h291l-213 656h174l146 -525q11 -38 17 -63.5t9 -46.5h6q14 28 32.5 56t41.5 60l359 519h190z" />
    <glyph glyph-name="brokenbar" unicode="&#xa6;" horiz-adv-x="492" 
d="M174 715v852h145v-852h-145zM174 -481v852h145v-852h-145z" />
    <glyph glyph-name="section" unicode="&#xa7;" horiz-adv-x="918" 
d="M893 1305q-37 23 -89.5 40t-105.5 17q-46 0 -85 -10t-67 -30.5t-43.5 -50.5t-15.5 -69q0 -37 13.5 -66t36 -53t52.5 -44.5t62 -41.5q58 -37 95 -72t58.5 -70t29.5 -70.5t8 -73.5q0 -50 -17.5 -96t-48 -85t-71.5 -68.5t-89 -47.5q29 -41 43.5 -78.5t14.5 -85.5
q0 -61 -21 -118t-67 -101t-119.5 -70.5t-177.5 -26.5q-36 0 -72.5 4.5t-69.5 11.5t-60 16t-44 18l31 151q23 -15 51.5 -28.5t59 -23t61.5 -15t59 -5.5q103 0 158 41t55 115q0 33 -11.5 60.5t-33.5 52t-55 49t-76 51.5q-35 23 -66 50.5t-54 60.5t-36.5 72t-13.5 85
q0 56 19 102t50.5 82.5t73 63.5t86.5 45q-27 35 -48 80t-21 94q0 88 32.5 149.5t85 100.5t119 56.5t133.5 17.5q26 0 55.5 -3t59.5 -8t57.5 -13t49.5 -17zM684 688q0 21 -5 42.5t-19 44.5t-38 46t-63 47q-22 14 -39.5 26.5t-40.5 29.5q-68 -28 -108.5 -76.5t-40.5 -114.5
q0 -28 4.5 -50.5t19 -44.5t40.5 -45t69 -52q20 -14 40.5 -26.5t37.5 -31.5q74 34 108.5 90t34.5 115z" />
    <glyph glyph-name="dieresis" unicode="&#xa8;" horiz-adv-x="715" 
d="M799 1317q0 -42 -29 -70t-70 -28q-40 0 -69 27.5t-29 70.5q0 21 8 39t21 31t30.5 20.5t36.5 7.5q21 0 39.5 -7.5t32 -21t21.5 -31t8 -38.5zM414 1317q0 -21 -8 -38.5t-21.5 -31t-32 -21t-39.5 -7.5q-19 0 -37 7.5t-31.5 20.5t-21.5 31t-8 39t8 39t21.5 31t31.5 20.5
t37 7.5q21 0 39.5 -7.5t32 -21t21.5 -31t8 -38.5z" />
    <glyph glyph-name="copyright" unicode="&#xa9;" horiz-adv-x="1862" 
d="M1720 719q0 -105 -26 -201.5t-74.5 -179t-116 -149.5t-151 -114.5t-180.5 -73.5t-203 -26q-161 0 -298.5 55.5t-238 154t-157 233.5t-56.5 295q0 104 26 200t74 178.5t116 150t151.5 116t181.5 74.5t205 26q155 0 291 -54t237.5 -152t160 -233.5t58.5 -299.5zM1630 715
q0 143 -52 264t-141 209.5t-209 138t-257 49.5q-144 0 -266 -51t-210.5 -140.5t-138 -210t-49.5 -259.5q0 -96 23.5 -182.5t67 -160.5t104 -133.5t134.5 -101t158.5 -64t176.5 -22.5q135 0 255 50t209.5 139t142 210.5t52.5 264.5zM1270 266q-18 -10 -44.5 -22.5t-61 -22.5
t-75.5 -17t-88 -7q-103 0 -193 37t-156 103t-104 157t-38 198q0 130 40.5 230.5t111 169.5t165.5 105t203 36q36 0 71 -5t66 -12.5t56.5 -17t42.5 -18.5v-150q-21 16 -49.5 29.5t-61.5 23t-69.5 14.5t-73.5 5q-69 0 -133.5 -24t-114.5 -72.5t-80.5 -122.5t-30.5 -174
q0 -92 29.5 -164t80 -121t117 -74.5t140.5 -25.5q32 0 67 6t68.5 16.5t63 24.5t51.5 30v-135z" />
    <glyph glyph-name="ordfeminine" unicode="&#xaa;" horiz-adv-x="893" 
d="M817 942q-5 -26 -10.5 -59t-10 -65.5t-7.5 -60t-3 -42.5h-137q1 13 2.5 32t4 38.5t4.5 38.5t4 32h-2q-47 -69 -111 -114.5t-145 -45.5q-100 0 -154.5 71t-54.5 202q0 39 8.5 90t28.5 105t53 106.5t83 93.5t118 66.5t157 25.5q29 0 64 -2.5t71 -6.5t70.5 -10t64.5 -12z
M764 1331q-26 6 -61.5 10.5t-63.5 4.5q-57 0 -102 -18t-79 -48.5t-57.5 -69t-38.5 -79.5t-21.5 -81t-6.5 -73q0 -37 6.5 -69t21 -54.5t38 -35.5t57.5 -13q51 0 95 32.5t78 80.5t57.5 103.5t33.5 100.5z" />
    <glyph glyph-name="guillemotleft" unicode="&#xab;" horiz-adv-x="1053" 
d="M655 526l222 -325h-156l-227 336l364 344h176zM250 526l223 -325h-158l-227 336l365 344h176z" />
    <glyph glyph-name="logicalnot" unicode="&#xac;" horiz-adv-x="1403" 
d="M1055 254v432h-809v131h940v-563h-131z" />
    <glyph glyph-name="sfthyphen" unicode="&#xad;" horiz-adv-x="819" 
d="M678 506h-547l29 129h547z" />
    <glyph glyph-name="registered" unicode="&#xae;" horiz-adv-x="1862" 
d="M1720 719q0 -105 -26 -201.5t-74.5 -179t-116 -149.5t-151 -114.5t-180.5 -73.5t-203 -26q-161 0 -298.5 55.5t-238 154t-157 233.5t-56.5 295q0 104 26 200t74 178.5t116 150t151.5 116t181.5 74.5t205 26q155 0 291 -54t237.5 -152t160 -233.5t58.5 -299.5zM1630 715
q0 143 -52 264t-141 209.5t-209 138t-257 49.5q-144 0 -266 -51t-210.5 -140.5t-138 -210t-49.5 -259.5q0 -96 23.5 -182.5t67 -160.5t104 -133.5t134.5 -101t158.5 -64t176.5 -22.5q135 0 255 50t209.5 139t142 210.5t52.5 264.5zM1171 248l-104 229q-15 34 -32.5 65
t-38.5 55t-45.5 38t-53.5 14h-88v-401h-133v954h266q96 0 162.5 -22t108.5 -58t60.5 -83t18.5 -97q0 -48 -16 -90t-46.5 -76t-75.5 -58t-103 -36v-4q21 -4 40.5 -15.5t38 -32.5t38 -52t40.5 -76l125 -254h-162zM1149 926q0 39 -10.5 69t-35.5 50.5t-67.5 31t-107.5 10.5
h-119v-325h143q43 0 79 10.5t62.5 31.5t41 51.5t14.5 70.5z" />
    <glyph glyph-name="uni00AF" unicode="&#xaf;" horiz-adv-x="715" 
d="M240 1219l16 108h508l-16 -108h-508z" />
    <glyph glyph-name="degree" unicode="&#xb0;" horiz-adv-x="772" 
d="M801 1176q0 -58 -22 -108.5t-60 -88.5t-88.5 -60t-108.5 -22q-57 0 -107.5 22t-88 60t-59 88.5t-21.5 108.5q0 57 21.5 107t59 87t88 58.5t107.5 21.5q58 0 108.5 -21.5t88.5 -58.5t60 -87t22 -107zM682 1176q0 33 -12.5 61.5t-34.5 50t-51 33.5t-62 12q-32 0 -60.5 -12
t-50 -33.5t-34 -50t-12.5 -61.5t12.5 -62.5t34 -51.5t50 -35t60.5 -13t61 13t51 35t35 51.5t13 62.5z" />
    <glyph glyph-name="plusminus" unicode="&#xb1;" horiz-adv-x="1403" 
d="M793 651v-403h-131v403h-406v133h406v404h131v-404h403v-133h-403zM256 0v133h940v-133h-940z" />
    <glyph glyph-name="twosuperior" unicode="&#xb2;" horiz-adv-x="793" 
d="M184 884l24 110l297 250q45 38 83.5 72.5t66.5 69t43.5 69.5t15.5 74q0 43 -31 72.5t-88 29.5q-55 0 -114 -25.5t-109 -60.5l33 152q35 20 89 38.5t126 18.5q59 0 103 -16t73 -44t43.5 -66t14.5 -81q0 -61 -23 -112t-61.5 -97t-88 -88t-102.5 -84l-197 -155l-2 -4h381
l-28 -123h-549z" />
    <glyph glyph-name="threesuperior" unicode="&#xb3;" horiz-adv-x="788" 
d="M790 1127q0 -44 -17 -91t-56 -85.5t-103 -63t-158 -24.5q-27 0 -61 3.5t-68 9.5t-63 15t-45 19l28 133q18 -12 43.5 -22.5t54.5 -19t60 -13t59 -4.5q53 0 89.5 12.5t59 33t32.5 46t10 51.5q0 30 -10.5 54t-34 41.5t-60 26.5t-88.5 9h-84l27 121h84q55 0 97 13t70 34.5
t42 49t14 55.5q0 43 -31 72.5t-100 29.5q-54 0 -102.5 -16t-93.5 -41l30 141q19 8 43 14.5t49.5 11.5t51.5 8t49 3q55 0 99.5 -14t76 -39.5t48.5 -62.5t17 -83q0 -86 -58 -144t-157 -83v-4q156 -41 156 -197z" />
    <glyph glyph-name="acute" unicode="&#xb4;" horiz-adv-x="715" 
d="M455 1219h-123l289 327h161z" />
    <glyph glyph-name="mu1" unicode="&#xb5;" horiz-adv-x="1175" 
d="M114 -395h-162l300 1419h166l-127 -600q-4 -16 -8 -37t-7.5 -42t-5.5 -38.5t-2 -27.5q0 -75 36.5 -119.5t109.5 -44.5q44 0 88 18t85.5 48.5t78 71t66.5 86t51.5 93.5t31.5 92l107 500h165l-153 -713q-7 -31 -12 -65t-5 -54q0 -22 8 -37t20 -24t27 -12.5t30 -3.5
q18 0 36.5 3t35.5 9l-26 -131q-25 -8 -57 -13t-63 -5q-96 0 -138 45.5t-42 120.5q0 9 0.5 22.5t2 27.5t3 27t2.5 21h-4q-31 -56 -70.5 -104.5t-86 -84.5t-100.5 -57t-114 -21t-105 27t-62 71z" />
    <glyph glyph-name="paragraph" unicode="&#xb6;" horiz-adv-x="938" 
d="M778 1331v-1331h-106v1331h-158v-1331h-108v903q-52 0 -97.5 19.5t-79.5 54.5t-53.5 84t-19.5 108q0 63 21.5 112.5t57.5 83t82 51.5t95 18h493v-103h-127z" />
    <glyph glyph-name="periodcentered" unicode="&#xb7;" horiz-adv-x="446" 
d="M354 623q0 -23 -8.5 -43.5t-23.5 -35.5t-34.5 -23.5t-41.5 -8.5q-23 0 -43.5 8.5t-35.5 23.5t-23.5 35.5t-8.5 43.5q0 22 8.5 42t23.5 35t35 24t42 9q23 0 43 -9t35 -24t23.5 -35t8.5 -42z" />
    <glyph glyph-name="cedilla" unicode="&#xb8;" horiz-adv-x="715" 
d="M418 -238q0 -89 -75 -142.5t-218 -53.5q-20 0 -43 1.5t-45 4.5l18 88q41 -6 76 -6q87 0 128.5 25t41.5 67q0 35 -28.5 55.5t-90.5 20.5q-14 0 -27.5 -1t-27.5 -3l39 182h96l-24 -104q37 0 69.5 -8.5t57 -25.5t39 -42t14.5 -58z" />
    <glyph glyph-name="onesuperior" unicode="&#xb9;" horiz-adv-x="795" 
d="M237 884l25 112h182l127 592l-207 -55l27 125l348 96l-164 -758h190l-24 -112h-504z" />
    <glyph glyph-name="ordmasculine" unicode="&#xba;" horiz-adv-x="915" 
d="M938 1151q0 -82 -23 -163.5t-72.5 -146t-127 -105t-185.5 -40.5q-73 0 -131 23.5t-99 65.5t-63 100.5t-22 128.5q0 91 28 171t80.5 140t128.5 94.5t173 34.5q76 0 134.5 -23t98 -64t60 -96t20.5 -120zM803 1141q0 41 -11 78t-34 64.5t-58.5 43.5t-83.5 16q-66 0 -116 -27
t-83 -72.5t-50 -104t-17 -121.5q0 -48 13 -86.5t37 -66.5t58.5 -43t76.5 -15q75 0 126.5 31t83 79t45 107.5t13.5 116.5z" />
    <glyph glyph-name="guillemotright" unicode="&#xbb;" horiz-adv-x="1053" 
d="M600 203h-176l381 354l-225 326h155l230 -336zM195 203h-177l381 354l-223 326h156l227 -336z" />
    <glyph glyph-name="onequarter" unicode="&#xbc;" horiz-adv-x="1876" 
d="M174 584l25 112h182l127 592l-207 -55l27 125l348 96l-164 -758h190l-24 -112h-504zM1571 206l-45 -205h-131l45 205h-391l18 92l481 553h160l-115 -537h113l-23 -108h-112zM1552 732q-8 -15 -21 -33t-30 -36l-293 -349h254l70 326q5 22 11.5 47t12.5 43zM497 0h-148
l1164 1434h145z" />
    <glyph glyph-name="onehalf" unicode="&#xbd;" horiz-adv-x="1939" 
d="M174 584l25 112h182l127 592l-207 -55l27 125l348 96l-164 -758h190l-24 -112h-504zM1129 1l24 110l297 250q45 38 83.5 72.5t66.5 69t43.5 69.5t15.5 74q0 43 -31 72.5t-88 29.5q-55 0 -114 -25.5t-109 -60.5l33 152q35 20 89 38.5t126 18.5q59 0 103 -16t73 -44
t43.5 -66t14.5 -81q0 -61 -23 -112t-61.5 -97t-88 -88t-102.5 -84l-197 -155l-2 -4h381l-28 -123h-549zM477 0h-148l1164 1434h145z" />
    <glyph glyph-name="threequarters" unicode="&#xbe;" horiz-adv-x="1968" 
d="M727 827q0 -44 -17 -91t-56 -85.5t-103 -63t-158 -24.5q-27 0 -61 3.5t-68 9.5t-63 15t-45 19l28 133q18 -12 43.5 -22.5t54.5 -19t60 -13t59 -4.5q53 0 89.5 12.5t59 33t32.5 46t10 51.5q0 30 -10.5 54t-34 41.5t-60 26.5t-88.5 9h-84l27 121h84q55 0 97 13t70 34.5
t42 49t14 55.5q0 43 -31 72.5t-100 29.5q-54 0 -102.5 -16t-93.5 -41l30 141q19 8 43 14.5t49.5 11.5t51.5 8t49 3q55 0 99.5 -14t76 -39.5t48.5 -62.5t17 -83q0 -86 -58 -144t-157 -83v-4q156 -41 156 -197zM1657 206l-45 -205h-131l45 205h-391l18 92l481 553h160
l-115 -537h113l-23 -108h-112zM1638 732q-8 -15 -21 -33t-30 -36l-293 -349h254l70 326q5 22 11.5 47t12.5 43zM535 0h-148l1164 1434h145z" />
    <glyph glyph-name="questiondown" unicode="&#xbf;" horiz-adv-x="881" 
d="M698 942q0 -23 -8.5 -43.5t-23.5 -36t-35 -24.5t-43 -9q-22 0 -42.5 9t-35.5 24.5t-24 36t-9 43.5t9 43.5t24 35.5t35.5 23.5t42.5 8.5q23 0 43 -8.5t35 -23.5t23.5 -35.5t8.5 -43.5zM598 -367q-62 -27 -136 -44t-149 -17q-78 0 -141.5 24t-108.5 67t-69.5 100.5
t-24.5 125.5q0 62 15.5 116t48.5 103.5t83.5 97t119.5 95.5q53 37 90 70.5t62.5 71t42 83t28.5 105.5h149q-14 -72 -31.5 -130t-45.5 -106.5t-69 -90t-102 -81.5q-63 -41 -106.5 -80t-71.5 -77t-40.5 -77.5t-12.5 -82.5q0 -45 15 -81t42 -62t65 -40t83 -14q68 0 141 22
t141 70z" />
    <glyph glyph-name="Agrave" unicode="&#xc0;" horiz-adv-x="1294" 
d="M999 0l-65 401h-608l-232 -401h-198l854 1434h176l250 -1434h-177zM815 1163q-1 10 -1.5 23t-0.5 26v26v22h-4q-3 -9 -8 -21.5t-11 -26t-12.5 -26.5l-11.5 -23l-354 -610h495zM897 1567l-239 327h153l207 -327h-121z" />
    <glyph glyph-name="Aacute" unicode="&#xc1;" horiz-adv-x="1294" 
d="M999 0l-65 401h-608l-232 -401h-198l854 1434h176l250 -1434h-177zM815 1163q-1 10 -1.5 23t-0.5 26v26v22h-4q-3 -9 -8 -21.5t-11 -26t-12.5 -26.5l-11.5 -23l-354 -610h495zM801 1567h-123l289 327h161z" />
    <glyph glyph-name="Acircumflex" unicode="&#xc2;" horiz-adv-x="1294" 
d="M999 0l-65 401h-608l-232 -401h-198l854 1434h176l250 -1434h-177zM815 1163q-1 10 -1.5 23t-0.5 26v26v22h-4q-3 -9 -8 -21.5t-11 -26t-12.5 -26.5l-11.5 -23l-354 -610h495zM1022 1567l-114 231l-213 -231h-121l283 331h133l145 -331h-113z" />
    <glyph glyph-name="Atilde" unicode="&#xc3;" horiz-adv-x="1294" 
d="M999 0l-65 401h-608l-232 -401h-198l854 1434h176l250 -1434h-177zM815 1163q-1 10 -1.5 23t-0.5 26v26v22h-4q-3 -9 -8 -21.5t-11 -26t-12.5 -26.5l-11.5 -23l-354 -610h495zM1198 1806q-3 -45 -20.5 -85t-46 -70t-67 -47t-83.5 -17q-48 0 -80.5 14.5t-58 31.5t-49 31.5
t-54.5 14.5q-51 0 -80.5 -33t-34.5 -79h-96q3 48 21.5 89t48.5 70t70.5 45.5t87.5 16.5q44 0 73.5 -15t54.5 -33.5t49.5 -33.5t57.5 -15q22 0 41 9t34 24.5t24 36.5t12 45h96z" />
    <glyph glyph-name="Adieresis" unicode="&#xc4;" horiz-adv-x="1294" 
d="M999 0l-65 401h-608l-232 -401h-198l854 1434h176l250 -1434h-177zM815 1163q-1 10 -1.5 23t-0.5 26v26v22h-4q-3 -9 -8 -21.5t-11 -26t-12.5 -26.5l-11.5 -23l-354 -610h495zM1151 1665q0 -42 -29 -70t-70 -28q-40 0 -69 27.5t-29 70.5q0 21 8 39t21 31t30.5 20.5
t36.5 7.5q21 0 39.5 -7.5t32 -21t21.5 -31t8 -38.5zM766 1665q0 -21 -8 -38.5t-21.5 -31t-32 -21t-39.5 -7.5q-19 0 -37 7.5t-31.5 20.5t-21.5 31t-8 39t8 39t21.5 31t31.5 20.5t37 7.5q21 0 39.5 -7.5t32 -21t21.5 -31t8 -38.5z" />
    <glyph glyph-name="Aring" unicode="&#xc5;" horiz-adv-x="1294" 
d="M999 0l-65 401h-608l-232 -401h-198l825 1384q-38 23 -62 63.5t-24 94.5q0 45 16.5 82t45 63t66.5 40t81 14q45 0 82 -14.5t64 -40t42 -61t15 -77.5q0 -59 -31 -104t-80 -68l240 -1376h-177zM954 1548q0 25 -9 45.5t-24.5 35t-36 22.5t-44.5 8q-51 0 -82 -31.5t-31 -79.5
q0 -55 31.5 -84.5t81.5 -29.5q49 0 81.5 32.5t32.5 81.5zM815 1163q-1 10 -1.5 23t-0.5 26v26v22h-4q-3 -9 -8 -21.5t-11 -26t-12.5 -26.5l-11.5 -23l-354 -610h495z" />
    <glyph glyph-name="AE" unicode="&#xc6;" horiz-adv-x="1751" 
d="M1800 1280h-555l-104 -487h514l-33 -152h-514l-104 -489h587l-30 -152h-760l86 401h-508l-293 -401h-207l1067 1434h887zM1016 1280l-522 -723h426l151 723h-55z" />
    <glyph glyph-name="Ccedilla" unicode="&#xc7;" horiz-adv-x="1309" 
d="M1116 51q-87 -38 -175.5 -57t-190.5 -19l-17 -79q36 0 68.5 -8.5t56.5 -25.5t38.5 -42t14.5 -58q0 -89 -74.5 -142.5t-218.5 -53.5q-20 0 -43 1.5t-45 4.5l19 88q39 -6 76 -6q86 0 128 25t42 67q0 35 -28.5 55.5t-90.5 20.5q-13 0 -27 -1t-28 -3l34 162
q-119 13 -215.5 63t-164.5 131t-105 190t-37 240q0 188 59.5 345t169 270t263 176t340.5 63q128 0 226.5 -27.5t166.5 -62.5l-37 -172q-29 19 -66 39t-82.5 36t-99 26t-115.5 10q-150 0 -269.5 -53t-203.5 -146t-129 -218.5t-45 -271.5q0 -119 33 -210.5t93.5 -154
t145 -94.5t187.5 -32q66 0 120 7.5t100 21t86.5 32t78.5 39.5z" />
    <glyph glyph-name="Egrave" unicode="&#xc8;" horiz-adv-x="1022" 
d="M1071 1282h-553l-104 -489h512l-33 -152h-512l-105 -489h588l-30 -152h-760l303 1434h727zM800 1567l-239 327h153l207 -327h-121z" />
    <glyph glyph-name="Eacute" unicode="&#xc9;" horiz-adv-x="1022" 
d="M1071 1282h-553l-104 -489h512l-33 -152h-512l-105 -489h588l-30 -152h-760l303 1434h727zM768 1567h-123l289 327h161z" />
    <glyph glyph-name="Ecircumflex" unicode="&#xca;" horiz-adv-x="1022" 
d="M1071 1282h-553l-104 -489h512l-33 -152h-512l-105 -489h588l-30 -152h-760l303 1434h727zM940 1567l-114 231l-213 -231h-121l283 331h133l145 -331h-113z" />
    <glyph glyph-name="Edieresis" unicode="&#xcb;" horiz-adv-x="1022" 
d="M1071 1282h-553l-104 -489h512l-33 -152h-512l-105 -489h588l-30 -152h-760l303 1434h727zM1065 1665q0 -42 -29 -70t-70 -28q-40 0 -69 27.5t-29 70.5q0 21 8 39t21 31t30.5 20.5t36.5 7.5q21 0 39.5 -7.5t32 -21t21.5 -31t8 -38.5zM680 1665q0 -21 -8 -38.5t-21.5 -31
t-32 -21t-39.5 -7.5q-19 0 -37 7.5t-31.5 20.5t-21.5 31t-8 39t8 39t21.5 31t31.5 20.5t37 7.5q21 0 39.5 -7.5t32 -21t21.5 -31t8 -38.5z" />
    <glyph glyph-name="Igrave" unicode="&#xcc;" horiz-adv-x="545" 
d="M246 0h-172l303 1434h174zM548 1567l-239 327h153l207 -327h-121z" />
    <glyph glyph-name="Iacute" unicode="&#xcd;" horiz-adv-x="545" 
d="M246 0h-172l303 1434h174zM434 1567h-123l289 327h161z" />
    <glyph glyph-name="Icircumflex" unicode="&#xce;" horiz-adv-x="545" 
d="M246 0h-172l303 1434h174zM653 1567l-114 231l-213 -231h-121l283 331h133l145 -331h-113z" />
    <glyph glyph-name="Idieresis" unicode="&#xcf;" horiz-adv-x="545" 
d="M246 0h-172l303 1434h174zM787 1665q0 -42 -29 -70t-70 -28q-40 0 -69 27.5t-29 70.5q0 21 8 39t21 31t30.5 20.5t36.5 7.5q21 0 39.5 -7.5t32 -21t21.5 -31t8 -38.5zM402 1665q0 -21 -8 -38.5t-21.5 -31t-32 -21t-39.5 -7.5q-19 0 -37 7.5t-31.5 20.5t-21.5 31t-8 39
t8 39t21.5 31t31.5 20.5t37 7.5q21 0 39.5 -7.5t32 -21t21.5 -31t8 -38.5z" />
    <glyph glyph-name="Eth" unicode="&#xd0;" horiz-adv-x="1458" 
d="M1401 844q0 -108 -22 -213t-67.5 -198.5t-116 -173t-168 -137t-223 -90t-280.5 -32.5h-450l139 649h-166l29 152h168l135 633h391q143 0 259.5 -41.5t199 -118t127.5 -185.5t45 -245zM1225 831q0 105 -31 189t-92.5 142t-152.5 89t-212 31h-219l-104 -481h342l-31 -152
h-342l-107 -497h252q179 0 310 51.5t217 142.5t128 215.5t42 269.5z" />
    <glyph glyph-name="Ntilde" unicode="&#xd1;" horiz-adv-x="1538" 
d="M1241 0h-186l-529 1149q-3 8 -7 19.5t-8 24.5t-7 25t-4 19h-6q-1 -10 -2.5 -24.5t-3.5 -29.5t-4.5 -29.5t-4.5 -25.5l-239 -1128h-166l303 1434h201l507 -1125q5 -9 10 -21.5t10 -26t9.5 -26.5t7.5 -22h4q1 12 3 28t4 33.5t5 34.5t5 29l233 1096h170zM1325 1806
q-3 -45 -20.5 -85t-46 -70t-67 -47t-83.5 -17q-48 0 -80.5 14.5t-58 31.5t-49 31.5t-54.5 14.5q-51 0 -80.5 -33t-34.5 -79h-96q3 48 21.5 89t48.5 70t70.5 45.5t87.5 16.5q44 0 73.5 -15t54.5 -33.5t49.5 -33.5t57.5 -15q22 0 41 9t34 24.5t24 36.5t12 45h96z" />
    <glyph glyph-name="Ograve" unicode="&#xd2;" horiz-adv-x="1544" 
d="M1487 852q0 -93 -17 -184.5t-49 -176.5t-78.5 -161t-105.5 -137q-48 -50 -104 -90.5t-120 -69t-137 -43.5t-157 -15q-135 0 -243 46.5t-183.5 128t-115.5 193.5t-40 243q0 208 67.5 373t188.5 286q98 98 226.5 155.5t291.5 57.5q132 0 238.5 -45t181.5 -126t115.5 -192
t40.5 -243zM1309 846q0 107 -29 192t-83 145t-130 92t-170 32q-111 0 -212 -48t-179 -133q-44 -48 -79.5 -110t-61 -132t-39 -146t-13.5 -154q0 -100 27.5 -184t80 -144.5t129.5 -94.5t177 -34q111 0 212.5 44.5t178.5 131.5q48 54 83.5 120.5t59.5 138t36 144.5t12 140z
M985 1567l-239 327h153l207 -327h-121z" />
    <glyph glyph-name="Oacute" unicode="&#xd3;" horiz-adv-x="1544" 
d="M1487 852q0 -93 -17 -184.5t-49 -176.5t-78.5 -161t-105.5 -137q-48 -50 -104 -90.5t-120 -69t-137 -43.5t-157 -15q-135 0 -243 46.5t-183.5 128t-115.5 193.5t-40 243q0 208 67.5 373t188.5 286q98 98 226.5 155.5t291.5 57.5q132 0 238.5 -45t181.5 -126t115.5 -192
t40.5 -243zM1309 846q0 107 -29 192t-83 145t-130 92t-170 32q-111 0 -212 -48t-179 -133q-44 -48 -79.5 -110t-61 -132t-39 -146t-13.5 -154q0 -100 27.5 -184t80 -144.5t129.5 -94.5t177 -34q111 0 212.5 44.5t178.5 131.5q48 54 83.5 120.5t59.5 138t36 144.5t12 140z
M863 1567h-123l289 327h161z" />
    <glyph glyph-name="Ocircumflex" unicode="&#xd4;" horiz-adv-x="1544" 
d="M1487 852q0 -93 -17 -184.5t-49 -176.5t-78.5 -161t-105.5 -137q-48 -50 -104 -90.5t-120 -69t-137 -43.5t-157 -15q-135 0 -243 46.5t-183.5 128t-115.5 193.5t-40 243q0 208 67.5 373t188.5 286q98 98 226.5 155.5t291.5 57.5q132 0 238.5 -45t181.5 -126t115.5 -192
t40.5 -243zM1309 846q0 107 -29 192t-83 145t-130 92t-170 32q-111 0 -212 -48t-179 -133q-44 -48 -79.5 -110t-61 -132t-39 -146t-13.5 -154q0 -100 27.5 -184t80 -144.5t129.5 -94.5t177 -34q111 0 212.5 44.5t178.5 131.5q48 54 83.5 120.5t59.5 138t36 144.5t12 140z
M1075 1567l-114 231l-213 -231h-121l283 331h133l145 -331h-113z" />
    <glyph glyph-name="Otilde" unicode="&#xd5;" horiz-adv-x="1544" 
d="M1487 852q0 -93 -17 -184.5t-49 -176.5t-78.5 -161t-105.5 -137q-48 -50 -104 -90.5t-120 -69t-137 -43.5t-157 -15q-135 0 -243 46.5t-183.5 128t-115.5 193.5t-40 243q0 208 67.5 373t188.5 286q98 98 226.5 155.5t291.5 57.5q132 0 238.5 -45t181.5 -126t115.5 -192
t40.5 -243zM1309 846q0 107 -29 192t-83 145t-130 92t-170 32q-111 0 -212 -48t-179 -133q-44 -48 -79.5 -110t-61 -132t-39 -146t-13.5 -154q0 -100 27.5 -184t80 -144.5t129.5 -94.5t177 -34q111 0 212.5 44.5t178.5 131.5q48 54 83.5 120.5t59.5 138t36 144.5t12 140z
M1286 1806q-3 -45 -20.5 -85t-46 -70t-67 -47t-83.5 -17q-48 0 -80.5 14.5t-58 31.5t-49 31.5t-54.5 14.5q-51 0 -80.5 -33t-34.5 -79h-96q3 48 21.5 89t48.5 70t70.5 45.5t87.5 16.5q44 0 73.5 -15t54.5 -33.5t49.5 -33.5t57.5 -15q22 0 41 9t34 24.5t24 36.5t12 45h96z
" />
    <glyph glyph-name="Odieresis" unicode="&#xd6;" horiz-adv-x="1544" 
d="M1487 852q0 -93 -17 -184.5t-49 -176.5t-78.5 -161t-105.5 -137q-48 -50 -104 -90.5t-120 -69t-137 -43.5t-157 -15q-135 0 -243 46.5t-183.5 128t-115.5 193.5t-40 243q0 208 67.5 373t188.5 286q98 98 226.5 155.5t291.5 57.5q132 0 238.5 -45t181.5 -126t115.5 -192
t40.5 -243zM1309 846q0 107 -29 192t-83 145t-130 92t-170 32q-111 0 -212 -48t-179 -133q-44 -48 -79.5 -110t-61 -132t-39 -146t-13.5 -154q0 -100 27.5 -184t80 -144.5t129.5 -94.5t177 -34q111 0 212.5 44.5t178.5 131.5q48 54 83.5 120.5t59.5 138t36 144.5t12 140z
M1237 1665q0 -42 -29 -70t-70 -28q-40 0 -69 27.5t-29 70.5q0 21 8 39t21 31t30.5 20.5t36.5 7.5q21 0 39.5 -7.5t32 -21t21.5 -31t8 -38.5zM852 1665q0 -21 -8 -38.5t-21.5 -31t-32 -21t-39.5 -7.5q-19 0 -37 7.5t-31.5 20.5t-21.5 31t-8 39t8 39t21.5 31t31.5 20.5t37 7.5
q21 0 39.5 -7.5t32 -21t21.5 -31t8 -38.5z" />
    <glyph glyph-name="multiply" unicode="&#xd7;" horiz-adv-x="1403" 
d="M1055 164l-338 340l-340 -340l-94 94l340 338l-340 340l94 94l340 -340l338 340l94 -94l-340 -340l340 -338z" />
    <glyph glyph-name="Oslash" unicode="&#xd8;" horiz-adv-x="1544" 
d="M1384 1219q51 -79 77 -172.5t26 -198.5q0 -94 -17.5 -188t-52.5 -182.5t-87.5 -168.5t-121.5 -145q-94 -90 -215 -139.5t-280 -49.5q-68 0 -128 12.5t-112 34.5t-95 52t-77 65l-170 -168l-82 78l180 180q-43 76 -67.5 165t-24.5 192q0 208 69 372t187 283
q100 100 226.5 156.5t293.5 56.5q130 0 229.5 -41.5t168.5 -107.5l159 161l80 -80zM1190 1186q-51 52 -124 84.5t-163 32.5q-61 0 -117.5 -13t-106.5 -36t-94 -54.5t-79 -69.5q-46 -51 -82 -113.5t-60.5 -133t-37.5 -147.5t-13 -158q0 -62 12 -118t33 -106zM1309 850
q0 71 -14.5 132.5t-39.5 111.5l-833 -838q51 -63 127 -96t178 -33q106 0 198.5 37t164.5 108q52 51 93 117t69 141t42.5 156.5t14.5 163.5z" />
    <glyph glyph-name="Ugrave" unicode="&#xd9;" horiz-adv-x="1411" 
d="M1247 563q-30 -140 -75.5 -249.5t-117 -184.5t-174.5 -114.5t-247 -39.5q-111 0 -198 35t-146 96t-90 144t-31 180q0 43 5.5 97t14.5 102l174 805h173l-173 -795q-4 -23 -8.5 -50t-8 -54t-5.5 -51t-2 -42q0 -80 24 -139t66.5 -98t100 -58.5t124.5 -19.5q85 0 152 24
t118 75t87.5 130t60.5 189l191 889h172zM974 1567l-239 327h153l207 -327h-121z" />
    <glyph glyph-name="Uacute" unicode="&#xda;" horiz-adv-x="1411" 
d="M1247 563q-30 -140 -75.5 -249.5t-117 -184.5t-174.5 -114.5t-247 -39.5q-111 0 -198 35t-146 96t-90 144t-31 180q0 43 5.5 97t14.5 102l174 805h173l-173 -795q-4 -23 -8.5 -50t-8 -54t-5.5 -51t-2 -42q0 -80 24 -139t66.5 -98t100 -58.5t124.5 -19.5q85 0 152 24
t118 75t87.5 130t60.5 189l191 889h172zM881 1567h-123l289 327h161z" />
    <glyph glyph-name="Ucircumflex" unicode="&#xdb;" horiz-adv-x="1411" 
d="M1247 563q-30 -140 -75.5 -249.5t-117 -184.5t-174.5 -114.5t-247 -39.5q-111 0 -198 35t-146 96t-90 144t-31 180q0 43 5.5 97t14.5 102l174 805h173l-173 -795q-4 -23 -8.5 -50t-8 -54t-5.5 -51t-2 -42q0 -80 24 -139t66.5 -98t100 -58.5t124.5 -19.5q85 0 152 24
t118 75t87.5 130t60.5 189l191 889h172zM1081 1567l-114 231l-213 -231h-121l283 331h133l145 -331h-113z" />
    <glyph glyph-name="Udieresis" unicode="&#xdc;" horiz-adv-x="1411" 
d="M1247 563q-30 -140 -75.5 -249.5t-117 -184.5t-174.5 -114.5t-247 -39.5q-111 0 -198 35t-146 96t-90 144t-31 180q0 43 5.5 97t14.5 102l174 805h173l-173 -795q-4 -23 -8.5 -50t-8 -54t-5.5 -51t-2 -42q0 -80 24 -139t66.5 -98t100 -58.5t124.5 -19.5q85 0 152 24
t118 75t87.5 130t60.5 189l191 889h172zM1209 1665q0 -42 -29 -70t-70 -28q-40 0 -69 27.5t-29 70.5q0 21 8 39t21 31t30.5 20.5t36.5 7.5q21 0 39.5 -7.5t32 -21t21.5 -31t8 -38.5zM824 1665q0 -21 -8 -38.5t-21.5 -31t-32 -21t-39.5 -7.5q-19 0 -37 7.5t-31.5 20.5
t-21.5 31t-8 39t8 39t21.5 31t31.5 20.5t37 7.5q21 0 39.5 -7.5t32 -21t21.5 -31t8 -38.5z" />
    <glyph glyph-name="Yacute" unicode="&#xdd;" horiz-adv-x="1135" 
d="M651 545l-114 -545h-172l114 541l-268 893h182l178 -660q7 -23 11.5 -46.5t7.5 -39.5h2q8 16 22 38.5t29 45.5l477 662h193zM750 1567h-123l289 327h161z" />
    <glyph glyph-name="Thorn" unicode="&#xde;" horiz-adv-x="1178" 
d="M1128 834q0 -106 -35.5 -200t-109 -164.5t-186 -111.5t-267.5 -41h-215l-69 -317h-172l303 1434h174l-47 -226h196q116 0 197 -31t132.5 -83t75 -119.5t23.5 -140.5zM952 819q0 49 -17 92.5t-53 75.5t-92.5 51t-136.5 19h-182l-125 -588h201q106 0 182.5 26.5t126 73
t73 111t23.5 139.5z" />
    <glyph glyph-name="germandbls" unicode="&#xdf;" horiz-adv-x="1106" 
d="M1077 1221q0 -88 -31 -157.5t-79.5 -121.5t-108.5 -85t-119 -48v-4q72 -15 125 -49t88 -82.5t52.5 -108.5t17.5 -125q0 -88 -28.5 -171.5t-87 -149t-148.5 -105t-213 -39.5q-23 0 -50 2.5t-52.5 7t-47.5 10t-35 11.5l35 156q16 -11 37 -19.5t43 -14.5t43 -9.5t37 -3.5
q84 0 140.5 30t91.5 77t50 104.5t15 111.5q0 63 -17.5 116t-54 92.5t-93 63.5t-134.5 29l27 133q77 12 138 41t103.5 72.5t65 100.5t22.5 124q0 39 -11.5 74t-34 61t-54.5 41t-74 15q-52 0 -95.5 -17t-78.5 -54.5t-61.5 -98t-44.5 -146.5l-232 -1085h-166l242 1137
q20 93 56 167.5t91 127t130 80.5t172 28q79 0 140 -25t103 -68t64 -101t22 -125z" />
    <glyph glyph-name="agrave" unicode="&#xe0;" horiz-adv-x="1110" 
d="M905 328q-8 -38 -15.5 -85.5t-13 -94t-9 -86.5t-3.5 -62h-170q1 20 3 48t5.5 58t7 59t7.5 50h-4q-31 -49 -63 -92.5t-71 -76.5t-87 -52t-113 -19q-67 0 -122.5 24t-95.5 71.5t-61.5 119t-21.5 166.5q0 58 12 132t40.5 151t76 150.5t118 131.5t166.5 93t222 35
q80 0 165 -12t169 -29zM858 889q-35 8 -82 14t-88 6q-87 0 -153.5 -27.5t-115.5 -72t-82.5 -102.5t-53.5 -118.5t-28.5 -119.5t-8.5 -107q0 -57 10 -102.5t31.5 -77.5t55 -49.5t79.5 -17.5q50 0 93.5 20.5t81.5 55.5t69 81t56 97.5t42.5 105t28.5 103.5zM774 1219l-239 327
h153l207 -327h-121z" />
    <glyph glyph-name="aacute" unicode="&#xe1;" horiz-adv-x="1110" 
d="M905 328q-8 -38 -15.5 -85.5t-13 -94t-9 -86.5t-3.5 -62h-170q1 20 3 48t5.5 58t7 59t7.5 50h-4q-31 -49 -63 -92.5t-71 -76.5t-87 -52t-113 -19q-67 0 -122.5 24t-95.5 71.5t-61.5 119t-21.5 166.5q0 58 12 132t40.5 151t76 150.5t118 131.5t166.5 93t222 35
q80 0 165 -12t169 -29zM858 889q-35 8 -82 14t-88 6q-87 0 -153.5 -27.5t-115.5 -72t-82.5 -102.5t-53.5 -118.5t-28.5 -119.5t-8.5 -107q0 -57 10 -102.5t31.5 -77.5t55 -49.5t79.5 -17.5q50 0 93.5 20.5t81.5 55.5t69 81t56 97.5t42.5 105t28.5 103.5zM699 1219h-123
l289 327h161z" />
    <glyph glyph-name="acircumflex" unicode="&#xe2;" horiz-adv-x="1110" 
d="M905 328q-8 -38 -15.5 -85.5t-13 -94t-9 -86.5t-3.5 -62h-170q1 20 3 48t5.5 58t7 59t7.5 50h-4q-31 -49 -63 -92.5t-71 -76.5t-87 -52t-113 -19q-67 0 -122.5 24t-95.5 71.5t-61.5 119t-21.5 166.5q0 58 12 132t40.5 151t76 150.5t118 131.5t166.5 93t222 35
q80 0 165 -12t169 -29zM858 889q-35 8 -82 14t-88 6q-87 0 -153.5 -27.5t-115.5 -72t-82.5 -102.5t-53.5 -118.5t-28.5 -119.5t-8.5 -107q0 -57 10 -102.5t31.5 -77.5t55 -49.5t79.5 -17.5q50 0 93.5 20.5t81.5 55.5t69 81t56 97.5t42.5 105t28.5 103.5zM880 1219l-114 231
l-213 -231h-121l283 331h133l145 -331h-113z" />
    <glyph glyph-name="atilde" unicode="&#xe3;" horiz-adv-x="1110" 
d="M905 328q-8 -38 -15.5 -85.5t-13 -94t-9 -86.5t-3.5 -62h-170q1 20 3 48t5.5 58t7 59t7.5 50h-4q-31 -49 -63 -92.5t-71 -76.5t-87 -52t-113 -19q-67 0 -122.5 24t-95.5 71.5t-61.5 119t-21.5 166.5q0 58 12 132t40.5 151t76 150.5t118 131.5t166.5 93t222 35
q80 0 165 -12t169 -29zM858 889q-35 8 -82 14t-88 6q-87 0 -153.5 -27.5t-115.5 -72t-82.5 -102.5t-53.5 -118.5t-28.5 -119.5t-8.5 -107q0 -57 10 -102.5t31.5 -77.5t55 -49.5t79.5 -17.5q50 0 93.5 20.5t81.5 55.5t69 81t56 97.5t42.5 105t28.5 103.5zM1041 1458
q-3 -45 -20.5 -85t-46 -70t-67 -47t-83.5 -17q-48 0 -80.5 14.5t-58 31.5t-49 31.5t-54.5 14.5q-51 0 -80.5 -33t-34.5 -79h-96q3 48 21.5 89t48.5 70t70.5 45.5t87.5 16.5q44 0 73.5 -15t54.5 -33.5t49.5 -33.5t57.5 -15q22 0 41 9t34 24.5t24 36.5t12 45h96z" />
    <glyph glyph-name="adieresis" unicode="&#xe4;" horiz-adv-x="1110" 
d="M905 328q-8 -38 -15.5 -85.5t-13 -94t-9 -86.5t-3.5 -62h-170q1 20 3 48t5.5 58t7 59t7.5 50h-4q-31 -49 -63 -92.5t-71 -76.5t-87 -52t-113 -19q-67 0 -122.5 24t-95.5 71.5t-61.5 119t-21.5 166.5q0 58 12 132t40.5 151t76 150.5t118 131.5t166.5 93t222 35
q80 0 165 -12t169 -29zM858 889q-35 8 -82 14t-88 6q-87 0 -153.5 -27.5t-115.5 -72t-82.5 -102.5t-53.5 -118.5t-28.5 -119.5t-8.5 -107q0 -57 10 -102.5t31.5 -77.5t55 -49.5t79.5 -17.5q50 0 93.5 20.5t81.5 55.5t69 81t56 97.5t42.5 105t28.5 103.5zM1002 1317
q0 -42 -29 -70t-70 -28q-40 0 -69 27.5t-29 70.5q0 21 8 39t21 31t30.5 20.5t36.5 7.5q21 0 39.5 -7.5t32 -21t21.5 -31t8 -38.5zM617 1317q0 -21 -8 -38.5t-21.5 -31t-32 -21t-39.5 -7.5q-19 0 -37 7.5t-31.5 20.5t-21.5 31t-8 39t8 39t21.5 31t31.5 20.5t37 7.5
q21 0 39.5 -7.5t32 -21t21.5 -31t8 -38.5z" />
    <glyph glyph-name="aring" unicode="&#xe5;" horiz-adv-x="1110" 
d="M905 328q-8 -38 -15.5 -85.5t-13 -94t-9 -86.5t-3.5 -62h-170q1 20 3 48t5.5 58t7 59t7.5 50h-4q-31 -49 -63 -92.5t-71 -76.5t-87 -52t-113 -19q-67 0 -122.5 24t-95.5 71.5t-61.5 119t-21.5 166.5q0 58 12 132t40.5 151t76 150.5t118 131.5t166.5 93t222 35
q80 0 165 -12t169 -29zM858 889q-35 8 -82 14t-88 6q-87 0 -153.5 -27.5t-115.5 -72t-82.5 -102.5t-53.5 -118.5t-28.5 -119.5t-8.5 -107q0 -57 10 -102.5t31.5 -77.5t55 -49.5t79.5 -17.5q50 0 93.5 20.5t81.5 55.5t69 81t56 97.5t42.5 105t28.5 103.5zM934 1374
q0 -42 -16 -78t-44 -63t-66 -42t-81 -15t-80 13.5t-64.5 38.5t-43 60t-15.5 78q0 46 16.5 83t44.5 62.5t66.5 39.5t81.5 14q45 0 82 -14t63.5 -39.5t41 -60.5t14.5 -77zM842 1372q0 25 -9 45.5t-24.5 35t-36.5 22.5t-45 8q-49 0 -80.5 -31.5t-31.5 -79.5q0 -54 32 -84.5
t80 -30.5q25 0 46 9t36.5 25t24 36.5t8.5 44.5z" />
    <glyph glyph-name="ae" unicode="&#xe6;" horiz-adv-x="1692" 
d="M1655 784q0 -81 -36 -147.5t-119 -114t-220 -73.5t-338 -27q0 -11 -1 -20.5t-1 -18.5q0 -54 14.5 -102.5t46 -85t81.5 -58.5t120 -22q69 0 151.5 26.5t157.5 75.5l-30 -162q-56 -32 -131.5 -56t-169.5 -24q-90 0 -159 25.5t-117 70.5t-75 107.5t-34 136.5h-4
q-36 -64 -80 -125t-97.5 -109t-116.5 -77t-137 -29q-76 0 -129.5 27.5t-87.5 76.5t-49.5 116.5t-15.5 146.5q0 71 16.5 151t51 158.5t88.5 150.5t129.5 127t174 87.5t220.5 32.5q96 0 172.5 -22.5t136.5 -51.5q56 35 122.5 54.5t147.5 19.5q64 0 121.5 -18t101 -52
t69.5 -83.5t26 -111.5zM1487 774q0 33 -13 58t-36.5 42.5t-55 26t-69.5 8.5q-61 0 -117.5 -24t-103.5 -69t-82 -109.5t-52 -145.5q144 0 245 15t164 42.5t91.5 67t28.5 88.5zM942 868q-17 8 -40 15.5t-49 13t-54 9t-54 3.5q-89 0 -161 -27t-128 -71.5t-96 -103t-65.5 -121
t-38 -125t-12.5 -115.5q0 -51 8.5 -93.5t25.5 -73t43.5 -47.5t63.5 -17q42 0 88 20.5t94.5 68t99 125.5t101.5 193q12 27 30 69t40 90t48.5 97t55.5 90z" />
    <glyph glyph-name="ccedilla" unicode="&#xe7;" horiz-adv-x="893" 
d="M715 49q-63 -34 -127.5 -54t-138.5 -20l-17 -79q36 0 68.5 -8.5t56.5 -25.5t38.5 -42t14.5 -58q0 -89 -74.5 -142.5t-218.5 -53.5q-20 0 -43 1.5t-45 4.5l19 88q39 -6 76 -6q86 0 128 25t42 67q0 35 -28.5 55.5t-90.5 20.5q-13 0 -27.5 -1t-28.5 -3l37 168
q-70 15 -122.5 51t-87 89.5t-51.5 121t-17 145.5q0 84 17 165.5t50.5 154t82.5 134.5t112.5 106.5t141.5 70t169 25.5q43 0 82 -6t71 -16t57 -21.5t40 -22.5l-37 -162q-42 37 -101.5 62.5t-131.5 25.5q-69 0 -124.5 -24t-98.5 -64t-74 -92t-51 -108t-29.5 -111.5
t-9.5 -103.5q0 -143 63 -217t172 -74q66 0 137 27.5t134 70.5z" />
    <glyph glyph-name="egrave" unicode="&#xe8;" horiz-adv-x="997" 
d="M958 784q0 -81 -36 -147.5t-119 -114t-219 -73.5t-336 -27q-2 -11 -2 -23v-20q0 -54 15 -102t46.5 -84t81 -57t117.5 -21q69 0 151.5 26.5t157.5 75.5l-31 -162q-55 -32 -131 -56t-170 -24q-113 0 -190.5 35t-125 93.5t-68.5 135t-21 160.5q0 90 20 173.5t56.5 155.5
t87.5 131.5t113 101.5t133 65t147 23q79 0 139.5 -21t101 -57.5t61.5 -84.5t21 -102zM791 776q0 63 -46.5 98t-123.5 35q-61 0 -118 -26.5t-105 -73t-83 -111t-51 -139.5q143 0 243 14.5t163 42.5t92 68.5t29 91.5zM700 1219l-239 327h153l207 -327h-121z" />
    <glyph glyph-name="eacute" unicode="&#xe9;" horiz-adv-x="997" 
d="M958 784q0 -81 -36 -147.5t-119 -114t-219 -73.5t-336 -27q-2 -11 -2 -23v-20q0 -54 15 -102t46.5 -84t81 -57t117.5 -21q69 0 151.5 26.5t157.5 75.5l-31 -162q-55 -32 -131 -56t-170 -24q-113 0 -190.5 35t-125 93.5t-68.5 135t-21 160.5q0 90 20 173.5t56.5 155.5
t87.5 131.5t113 101.5t133 65t147 23q79 0 139.5 -21t101 -57.5t61.5 -84.5t21 -102zM791 776q0 63 -46.5 98t-123.5 35q-61 0 -118 -26.5t-105 -73t-83 -111t-51 -139.5q143 0 243 14.5t163 42.5t92 68.5t29 91.5zM623 1219h-123l289 327h161z" />
    <glyph glyph-name="ecircumflex" unicode="&#xea;" horiz-adv-x="997" 
d="M958 784q0 -81 -36 -147.5t-119 -114t-219 -73.5t-336 -27q-2 -11 -2 -23v-20q0 -54 15 -102t46.5 -84t81 -57t117.5 -21q69 0 151.5 26.5t157.5 75.5l-31 -162q-55 -32 -131 -56t-170 -24q-113 0 -190.5 35t-125 93.5t-68.5 135t-21 160.5q0 90 20 173.5t56.5 155.5
t87.5 131.5t113 101.5t133 65t147 23q79 0 139.5 -21t101 -57.5t61.5 -84.5t21 -102zM791 776q0 63 -46.5 98t-123.5 35q-61 0 -118 -26.5t-105 -73t-83 -111t-51 -139.5q143 0 243 14.5t163 42.5t92 68.5t29 91.5zM815 1219l-114 231l-213 -231h-121l283 331h133l145 -331
h-113z" />
    <glyph glyph-name="edieresis" unicode="&#xeb;" horiz-adv-x="997" 
d="M958 784q0 -81 -36 -147.5t-119 -114t-219 -73.5t-336 -27q-2 -11 -2 -23v-20q0 -54 15 -102t46.5 -84t81 -57t117.5 -21q69 0 151.5 26.5t157.5 75.5l-31 -162q-55 -32 -131 -56t-170 -24q-113 0 -190.5 35t-125 93.5t-68.5 135t-21 160.5q0 90 20 173.5t56.5 155.5
t87.5 131.5t113 101.5t133 65t147 23q79 0 139.5 -21t101 -57.5t61.5 -84.5t21 -102zM791 776q0 63 -46.5 98t-123.5 35q-61 0 -118 -26.5t-105 -73t-83 -111t-51 -139.5q143 0 243 14.5t163 42.5t92 68.5t29 91.5zM940 1317q0 -42 -29 -70t-70 -28q-40 0 -69 27.5t-29 70.5
q0 21 8 39t21 31t30.5 20.5t36.5 7.5q21 0 39.5 -7.5t32 -21t21.5 -31t8 -38.5zM555 1317q0 -21 -8 -38.5t-21.5 -31t-32 -21t-39.5 -7.5q-19 0 -37 7.5t-31.5 20.5t-21.5 31t-8 39t8 39t21.5 31t31.5 20.5t37 7.5q21 0 39.5 -7.5t32 -21t21.5 -31t8 -38.5z" />
    <glyph glyph-name="igrave" unicode="&#xec;" horiz-adv-x="530" 
d="M416 4q-25 -8 -56.5 -13t-62.5 -5q-101 0 -151 50.5t-50 135.5q0 25 5 59t16 84l149 709h166l-150 -713q-9 -42 -12.5 -65t-3.5 -39q0 -41 22.5 -62.5t71.5 -21.5q26 0 45.5 3t36.5 9zM437 1219l-239 327h153l207 -327h-121z" />
    <glyph glyph-name="iacute" unicode="&#xed;" horiz-adv-x="530" 
d="M416 4q-25 -8 -56.5 -13t-62.5 -5q-101 0 -151 50.5t-50 135.5q0 25 5 59t16 84l149 709h166l-150 -713q-9 -42 -12.5 -65t-3.5 -39q0 -41 22.5 -62.5t71.5 -21.5q26 0 45.5 3t36.5 9zM335 1219h-123l289 327h161z" />
    <glyph glyph-name="icircumflex" unicode="&#xee;" horiz-adv-x="530" 
d="M416 4q-25 -8 -56.5 -13t-62.5 -5q-101 0 -151 50.5t-50 135.5q0 25 5 59t16 84l149 709h166l-150 -713q-9 -42 -12.5 -65t-3.5 -39q0 -41 22.5 -62.5t71.5 -21.5q26 0 45.5 3t36.5 9zM547 1219l-114 231l-213 -231h-121l283 331h133l145 -331h-113z" />
    <glyph glyph-name="idieresis" unicode="&#xef;" horiz-adv-x="530" 
d="M416 4q-25 -8 -56.5 -13t-62.5 -5q-101 0 -151 50.5t-50 135.5q0 25 5 59t16 84l149 709h166l-150 -713q-9 -42 -12.5 -65t-3.5 -39q0 -41 22.5 -62.5t71.5 -21.5q26 0 45.5 3t36.5 9zM687 1317q0 -42 -29 -70t-70 -28q-40 0 -69 27.5t-29 70.5q0 21 8 39t21 31
t30.5 20.5t36.5 7.5q21 0 39.5 -7.5t32 -21t21.5 -31t8 -38.5zM302 1317q0 -21 -8 -38.5t-21.5 -31t-32 -21t-39.5 -7.5q-19 0 -37 7.5t-31.5 20.5t-21.5 31t-8 39t8 39t21.5 31t31.5 20.5t37 7.5q21 0 39.5 -7.5t32 -21t21.5 -31t8 -38.5z" />
    <glyph glyph-name="eth" unicode="&#xf0;" horiz-adv-x="1069" 
d="M799 1303q91 -116 142.5 -269t51.5 -342q0 -80 -14.5 -164.5t-44 -164t-74.5 -150.5t-106.5 -123.5t-139.5 -83.5t-174 -31q-81 0 -148 26.5t-114.5 77.5t-73.5 125t-26 169q0 89 17.5 173.5t50 160t79 138t104 108t124.5 71t141 25.5q75 0 127 -29t80 -70h4
q-10 41 -26.5 82.5t-36 80t-41.5 71.5t-44 57l-295 -123l-40 96l268 111q-21 25 -48 50.5t-57 50.5t-60 48t-56 42h219q32 -25 70.5 -58.5t70.5 -71.5l287 121l43 -94zM825 653q0 49 -11 95t-36.5 82t-67 57.5t-102.5 21.5q-84 0 -151 -47.5t-114 -123.5t-72 -170t-25 -187
q0 -61 13 -110t39.5 -83.5t65 -53.5t89.5 -19q64 0 116.5 25.5t94 67.5t71.5 97.5t50 115t30 120t10 112.5z" />
    <glyph glyph-name="ntilde" unicode="&#xf1;" horiz-adv-x="1151" 
d="M1046 768q0 -15 -3.5 -41t-9 -56t-11 -59.5t-10.5 -50.5l-119 -561h-166l125 600q4 16 8 37t7 42t5 38.5t2 27.5q0 76 -36.5 120t-108.5 44q-66 0 -131 -39t-120 -99t-94.5 -132t-53.5 -139l-107 -500h-166l158 731q8 39 16 81.5t15 82t12 73.5t8 56h160
q-5 -39 -12 -81.5t-12 -78.5q-6 -42 -13 -82h4q35 55 77.5 103.5t92 85t105 57.5t116.5 21q68 0 117 -20.5t81.5 -57.5t48 -89t15.5 -114zM1041 1458q-3 -45 -20.5 -85t-46 -70t-67 -47t-83.5 -17q-48 0 -80.5 14.5t-58 31.5t-49 31.5t-54.5 14.5q-51 0 -80.5 -33t-34.5 -79
h-96q3 48 21.5 89t48.5 70t70.5 45.5t87.5 16.5q44 0 73.5 -15t54.5 -33.5t49.5 -33.5t57.5 -15q22 0 41 9t34 24.5t24 36.5t12 45h96z" />
    <glyph glyph-name="ograve" unicode="&#xf2;" horiz-adv-x="1096" 
d="M1018 645q0 -136 -38.5 -258t-111 -213.5t-176 -145t-233.5 -53.5q-88 0 -158.5 28t-120 80.5t-76 127t-26.5 168.5q0 141 40.5 263.5t114 213t176 142t226.5 51.5q87 0 157.5 -28t120.5 -80.5t77.5 -127t27.5 -168.5zM850 637q0 65 -16 115.5t-45 85t-70 53t-92 18.5
q-88 0 -159 -45t-120 -118.5t-75.5 -167t-26.5 -191.5q0 -62 15.5 -112.5t44 -86t70 -54.5t93.5 -19q89 0 160 44.5t120 118t75 167.5t26 192zM745 1219l-239 327h153l207 -327h-121z" />
    <glyph glyph-name="oacute" unicode="&#xf3;" horiz-adv-x="1096" 
d="M1018 645q0 -136 -38.5 -258t-111 -213.5t-176 -145t-233.5 -53.5q-88 0 -158.5 28t-120 80.5t-76 127t-26.5 168.5q0 141 40.5 263.5t114 213t176 142t226.5 51.5q87 0 157.5 -28t120.5 -80.5t77.5 -127t27.5 -168.5zM850 637q0 65 -16 115.5t-45 85t-70 53t-92 18.5
q-88 0 -159 -45t-120 -118.5t-75.5 -167t-26.5 -191.5q0 -62 15.5 -112.5t44 -86t70 -54.5t93.5 -19q89 0 160 44.5t120 118t75 167.5t26 192zM639 1219h-123l289 327h161z" />
    <glyph glyph-name="ocircumflex" unicode="&#xf4;" horiz-adv-x="1096" 
d="M1018 645q0 -136 -38.5 -258t-111 -213.5t-176 -145t-233.5 -53.5q-88 0 -158.5 28t-120 80.5t-76 127t-26.5 168.5q0 141 40.5 263.5t114 213t176 142t226.5 51.5q87 0 157.5 -28t120.5 -80.5t77.5 -127t27.5 -168.5zM850 637q0 65 -16 115.5t-45 85t-70 53t-92 18.5
q-88 0 -159 -45t-120 -118.5t-75.5 -167t-26.5 -191.5q0 -62 15.5 -112.5t44 -86t70 -54.5t93.5 -19q89 0 160 44.5t120 118t75 167.5t26 192zM827 1219l-114 231l-213 -231h-121l283 331h133l145 -331h-113z" />
    <glyph glyph-name="otilde" unicode="&#xf5;" horiz-adv-x="1096" 
d="M1018 645q0 -136 -38.5 -258t-111 -213.5t-176 -145t-233.5 -53.5q-88 0 -158.5 28t-120 80.5t-76 127t-26.5 168.5q0 141 40.5 263.5t114 213t176 142t226.5 51.5q87 0 157.5 -28t120.5 -80.5t77.5 -127t27.5 -168.5zM850 637q0 65 -16 115.5t-45 85t-70 53t-92 18.5
q-88 0 -159 -45t-120 -118.5t-75.5 -167t-26.5 -191.5q0 -62 15.5 -112.5t44 -86t70 -54.5t93.5 -19q89 0 160 44.5t120 118t75 167.5t26 192zM1020 1458q-3 -45 -20.5 -85t-46 -70t-67 -47t-83.5 -17q-48 0 -80.5 14.5t-58 31.5t-49 31.5t-54.5 14.5q-51 0 -80.5 -33
t-34.5 -79h-96q3 48 21.5 89t48.5 70t70.5 45.5t87.5 16.5q44 0 73.5 -15t54.5 -33.5t49.5 -33.5t57.5 -15q22 0 41 9t34 24.5t24 36.5t12 45h96z" />
    <glyph glyph-name="odieresis" unicode="&#xf6;" horiz-adv-x="1096" 
d="M1018 645q0 -136 -38.5 -258t-111 -213.5t-176 -145t-233.5 -53.5q-88 0 -158.5 28t-120 80.5t-76 127t-26.5 168.5q0 141 40.5 263.5t114 213t176 142t226.5 51.5q87 0 157.5 -28t120.5 -80.5t77.5 -127t27.5 -168.5zM850 637q0 65 -16 115.5t-45 85t-70 53t-92 18.5
q-88 0 -159 -45t-120 -118.5t-75.5 -167t-26.5 -191.5q0 -62 15.5 -112.5t44 -86t70 -54.5t93.5 -19q89 0 160 44.5t120 118t75 167.5t26 192zM971 1317q0 -42 -29 -70t-70 -28q-40 0 -69 27.5t-29 70.5q0 21 8 39t21 31t30.5 20.5t36.5 7.5q21 0 39.5 -7.5t32 -21t21.5 -31
t8 -38.5zM586 1317q0 -21 -8 -38.5t-21.5 -31t-32 -21t-39.5 -7.5q-19 0 -37 7.5t-31.5 20.5t-21.5 31t-8 39t8 39t21.5 31t31.5 20.5t37 7.5q21 0 39.5 -7.5t32 -21t21.5 -31t8 -38.5z" />
    <glyph glyph-name="divide" unicode="&#xf7;" horiz-adv-x="1403" 
d="M836 975q0 -47 -30.5 -77t-71.5 -30q-45 0 -75 30.5t-30 74.5q0 45 29 76.5t76 31.5q102 0 102 -106zM1196 530h-940v134h940v-134zM830 217q0 -47 -29.5 -75.5t-70.5 -28.5q-45 0 -76 29.5t-31 72.5q0 46 30 78.5t77 32.5q100 0 100 -109z" />
    <glyph glyph-name="oslash" unicode="&#xf8;" horiz-adv-x="1096" 
d="M979 838q19 -39 29 -88t10 -105q0 -142 -40.5 -264.5t-114 -212.5t-176.5 -141.5t-228 -51.5q-90 0 -161.5 29.5t-121.5 85.5l-156 -145l-75 82l170 157q-17 44 -27 91.5t-10 103.5q0 140 40.5 262t114 213t176.5 143t228 52q91 0 160.5 -30t120.5 -83l180 168l78 -82z
M799 823q-29 44 -73 65t-99 21q-88 0 -159 -45t-120 -118.5t-75.5 -168t-26.5 -194.5q0 -38 6 -70zM850 643q0 39 -6 70l-549 -512q26 -38 71.5 -62t102.5 -24q89 0 160 45t120 118.5t75 169t26 195.5z" />
    <glyph glyph-name="ugrave" unicode="&#xf9;" horiz-adv-x="1143" 
d="M930 291q-9 -39 -16.5 -81t-14.5 -81t-12 -73t-8 -56h-160q5 39 11.5 81.5t12.5 78.5q7 42 13 82h-4q-35 -55 -77.5 -103.5t-92 -85t-105 -57.5t-115.5 -21q-66 0 -115.5 20.5t-82.5 57.5t-49.5 89t-16.5 116q0 13 4 39t9 56t11.5 59.5t10.5 50.5l119 561h166l-127 -600
q-4 -16 -8 -37t-7.5 -42t-5.5 -38.5t-2 -27.5q0 -75 36.5 -119.5t109.5 -44.5q44 0 88 18t85.5 48.5t78.5 71t67 86t51 93.5t31 92l107 500h165zM743 1219l-239 327h153l207 -327h-121z" />
    <glyph glyph-name="uacute" unicode="&#xfa;" horiz-adv-x="1143" 
d="M930 291q-9 -39 -16.5 -81t-14.5 -81t-12 -73t-8 -56h-160q5 39 11.5 81.5t12.5 78.5q7 42 13 82h-4q-35 -55 -77.5 -103.5t-92 -85t-105 -57.5t-115.5 -21q-66 0 -115.5 20.5t-82.5 57.5t-49.5 89t-16.5 116q0 13 4 39t9 56t11.5 59.5t10.5 50.5l119 561h166l-127 -600
q-4 -16 -8 -37t-7.5 -42t-5.5 -38.5t-2 -27.5q0 -75 36.5 -119.5t109.5 -44.5q44 0 88 18t85.5 48.5t78.5 71t67 86t51 93.5t31 92l107 500h165zM678 1219h-123l289 327h161z" />
    <glyph glyph-name="ucircumflex" unicode="&#xfb;" horiz-adv-x="1143" 
d="M930 291q-9 -39 -16.5 -81t-14.5 -81t-12 -73t-8 -56h-160q5 39 11.5 81.5t12.5 78.5q7 42 13 82h-4q-35 -55 -77.5 -103.5t-92 -85t-105 -57.5t-115.5 -21q-66 0 -115.5 20.5t-82.5 57.5t-49.5 89t-16.5 116q0 13 4 39t9 56t11.5 59.5t10.5 50.5l119 561h166l-127 -600
q-4 -16 -8 -37t-7.5 -42t-5.5 -38.5t-2 -27.5q0 -75 36.5 -119.5t109.5 -44.5q44 0 88 18t85.5 48.5t78.5 71t67 86t51 93.5t31 92l107 500h165zM852 1219l-114 231l-213 -231h-121l283 331h133l145 -331h-113z" />
    <glyph glyph-name="udieresis" unicode="&#xfc;" horiz-adv-x="1143" 
d="M930 291q-9 -39 -16.5 -81t-14.5 -81t-12 -73t-8 -56h-160q5 39 11.5 81.5t12.5 78.5q7 42 13 82h-4q-35 -55 -77.5 -103.5t-92 -85t-105 -57.5t-115.5 -21q-66 0 -115.5 20.5t-82.5 57.5t-49.5 89t-16.5 116q0 13 4 39t9 56t11.5 59.5t10.5 50.5l119 561h166l-127 -600
q-4 -16 -8 -37t-7.5 -42t-5.5 -38.5t-2 -27.5q0 -75 36.5 -119.5t109.5 -44.5q44 0 88 18t85.5 48.5t78.5 71t67 86t51 93.5t31 92l107 500h165zM1000 1317q0 -42 -29 -70t-70 -28q-40 0 -69 27.5t-29 70.5q0 21 8 39t21 31t30.5 20.5t36.5 7.5q21 0 39.5 -7.5t32 -21
t21.5 -31t8 -38.5zM615 1317q0 -21 -8 -38.5t-21.5 -31t-32 -21t-39.5 -7.5q-19 0 -37 7.5t-31.5 20.5t-21.5 31t-8 39t8 39t21.5 31t31.5 20.5t37 7.5q21 0 39.5 -7.5t32 -21t21.5 -31t8 -38.5z" />
    <glyph glyph-name="yacute" unicode="&#xfd;" horiz-adv-x="991" 
d="M367 -170q-46 -75 -93 -132.5t-98.5 -97.5t-110 -60.5t-128.5 -20.5q-23 0 -51.5 4.5t-45.5 9.5l31 145q15 -8 39 -13t47 -5q69 0 124.5 38t104.5 116l123 190l-186 1020h170l119 -786q3 -22 3.5 -42.5t-1.5 -35.5h6q5 12 15.5 34t23.5 42l454 788h181zM609 1219h-123
l289 327h161z" />
    <glyph glyph-name="thorn" unicode="&#xfe;" horiz-adv-x="1110" 
d="M1032 666q0 -74 -16 -153.5t-49 -156.5t-82.5 -146t-116.5 -121.5t-152 -83t-188 -30.5q-59 0 -116.5 11t-100.5 26l-102 -487h-166l422 1991h163l-106 -502q-12 -56 -24.5 -107.5t-26.5 -97.5h4q144 240 354 240q70 0 126 -24t95.5 -72t60.5 -120t21 -167zM864 659
q0 54 -9.5 100t-31.5 79t-56.5 52t-84.5 19q-52 0 -97.5 -21.5t-84.5 -57.5t-71 -83.5t-57 -98.5t-42.5 -102.5t-26.5 -96.5l-63 -297q18 -8 43 -14.5t52 -11.5t55 -8t52 -3q69 0 127.5 23t105 62.5t82 93t59.5 114t36 125t12 126.5z" />
    <glyph glyph-name="ydieresis" unicode="&#xff;" horiz-adv-x="991" 
d="M367 -170q-46 -75 -93 -132.5t-98.5 -97.5t-110 -60.5t-128.5 -20.5q-23 0 -51.5 4.5t-45.5 9.5l31 145q15 -8 39 -13t47 -5q69 0 124.5 38t104.5 116l123 190l-186 1020h170l119 -786q3 -22 3.5 -42.5t-1.5 -35.5h6q5 12 15.5 34t23.5 42l454 788h181zM912 1317
q0 -42 -29 -70t-70 -28q-40 0 -69 27.5t-29 70.5q0 21 8 39t21 31t30.5 20.5t36.5 7.5q21 0 39.5 -7.5t32 -21t21.5 -31t8 -38.5zM527 1317q0 -21 -8 -38.5t-21.5 -31t-32 -21t-39.5 -7.5q-19 0 -37 7.5t-31.5 20.5t-21.5 31t-8 39t8 39t21.5 31t31.5 20.5t37 7.5
q21 0 39.5 -7.5t32 -21t21.5 -31t8 -38.5z" />
    <glyph glyph-name="Amacron" unicode="&#x100;" horiz-adv-x="1294" 
d="M999 0l-65 401h-608l-232 -401h-198l854 1434h176l250 -1434h-177zM815 1163q-1 10 -1.5 23t-0.5 26v26v22h-4q-3 -9 -8 -21.5t-11 -26t-12.5 -26.5l-11.5 -23l-354 -610h495zM583 1567l16 108h508l-16 -108h-508z" />
    <glyph glyph-name="amacron" unicode="&#x101;" horiz-adv-x="1110" 
d="M905 328q-8 -38 -15.5 -85.5t-13 -94t-9 -86.5t-3.5 -62h-170q1 20 3 48t5.5 58t7 59t7.5 50h-4q-31 -49 -63 -92.5t-71 -76.5t-87 -52t-113 -19q-67 0 -122.5 24t-95.5 71.5t-61.5 119t-21.5 166.5q0 58 12 132t40.5 151t76 150.5t118 131.5t166.5 93t222 35
q80 0 165 -12t169 -29zM858 889q-35 8 -82 14t-88 6q-87 0 -153.5 -27.5t-115.5 -72t-82.5 -102.5t-53.5 -118.5t-28.5 -119.5t-8.5 -107q0 -57 10 -102.5t31.5 -77.5t55 -49.5t79.5 -17.5q50 0 93.5 20.5t81.5 55.5t69 81t56 97.5t42.5 105t28.5 103.5zM463 1219l16 108
h508l-16 -108h-508z" />
    <glyph glyph-name="Abreve" unicode="&#x102;" horiz-adv-x="1294" 
d="M999 0l-65 401h-608l-232 -401h-198l854 1434h176l250 -1434h-177zM815 1163q-1 10 -1.5 23t-0.5 26v26v22h-4q-3 -9 -8 -21.5t-11 -26t-12.5 -26.5l-11.5 -23l-354 -610h495zM1165 1822q-18 -60 -48.5 -107t-72 -80t-91.5 -50t-107 -17q-55 0 -100.5 16t-77 44.5t-49 68
t-17.5 86.5q0 12 1.5 20t4.5 19h105q-2 -7 -2 -13v-14q0 -60 38.5 -93.5t100.5 -33.5q77 0 128 37.5t77 116.5h110z" />
    <glyph glyph-name="abreve" unicode="&#x103;" horiz-adv-x="1110" 
d="M905 328q-8 -38 -15.5 -85.5t-13 -94t-9 -86.5t-3.5 -62h-170q1 20 3 48t5.5 58t7 59t7.5 50h-4q-31 -49 -63 -92.5t-71 -76.5t-87 -52t-113 -19q-67 0 -122.5 24t-95.5 71.5t-61.5 119t-21.5 166.5q0 58 12 132t40.5 151t76 150.5t118 131.5t166.5 93t222 35
q80 0 165 -12t169 -29zM858 889q-35 8 -82 14t-88 6q-87 0 -153.5 -27.5t-115.5 -72t-82.5 -102.5t-53.5 -118.5t-28.5 -119.5t-8.5 -107q0 -57 10 -102.5t31.5 -77.5t55 -49.5t79.5 -17.5q50 0 93.5 20.5t81.5 55.5t69 81t56 97.5t42.5 105t28.5 103.5zM1030 1473
q-18 -60 -48.5 -107t-72 -80t-91.5 -50t-107 -17q-55 0 -100.5 16t-77 44.5t-49 68t-17.5 86.5q0 12 1.5 20t4.5 19h105q-2 -7 -2 -13v-14q0 -60 38.5 -93.5t100.5 -33.5q77 0 128 37.5t77 116.5h110z" />
    <glyph glyph-name="Aogonek" unicode="&#x104;" horiz-adv-x="1294" 
d="M1102 0q-52 -47 -88 -83t-58 -65.5t-32 -54t-10 -47.5q0 -80 80 -80q23 0 48.5 8.5t41.5 16.5l-15 -103q-18 -9 -46 -15.5t-62 -6.5q-82 0 -122 41.5t-40 114.5q0 27 10 56.5t33 63t61.5 72t96.5 82.5h-1l-65 401h-608l-232 -401h-198l854 1434h176l250 -1434h-74z
M815 1163q-1 10 -1.5 23t-0.5 26v48h-4q-3 -9 -8 -21.5t-11 -26t-13 -26.5l-11 -23l-354 -610h495z" />
    <glyph glyph-name="aogonek" unicode="&#x105;" horiz-adv-x="1110" 
d="M796 0q-52 -47 -88 -83t-58 -65.5t-32 -54t-10 -47.5q0 -80 80 -80q23 0 48.5 8.5t41.5 16.5l-15 -103q-18 -9 -46 -15.5t-62 -6.5q-82 0 -122 41.5t-40 114.5q0 27 10 56.5t33 63t61.5 72t96.5 82.5q1 20 3 48t5.5 58t7 59t7.5 50h-4q-31 -49 -63 -92.5t-71 -76.5
t-87 -52t-113 -19q-67 0 -122.5 24t-95.5 71.5t-61.5 119t-21.5 166.5q0 58 12 132t40.5 151t76 150.5t118 131.5t166.5 93t222 35q80 0 165 -12t169 -29l-142 -680q-8 -38 -15.5 -85.5t-13 -94t-9 -86.5t-3.5 -62h-68zM858 889q-35 8 -82 14t-88 6q-87 0 -153.5 -27.5
t-115.5 -72t-82.5 -102.5t-53.5 -118.5t-28.5 -119.5t-8.5 -107q0 -57 10 -102.5t31.5 -77.5t55 -49.5t79.5 -17.5q50 0 93.5 20.5t81.5 55.5t69 81t56 97.5t42.5 105t28.5 103.5z" />
    <glyph glyph-name="Cacute" unicode="&#x106;" horiz-adv-x="1309" 
d="M1325 1196q-29 19 -66.5 39t-82.5 36t-98.5 26t-114.5 10q-150 0 -270.5 -53t-204.5 -146t-129.5 -218.5t-45.5 -271.5q0 -119 33 -210.5t94 -154t146 -94.5t188 -32q66 0 120 7.5t100 21t86.5 32t78.5 39.5l-39 -176q-81 -37 -173.5 -56.5t-207.5 -19.5
q-136 0 -247.5 45t-190 127.5t-121.5 198.5t-43 258q0 188 59.5 345t169 270t263 176t340.5 63q128 0 226.5 -27.5t166.5 -62.5zM924 1567h-123l289 327h161z" />
    <glyph glyph-name="cacute" unicode="&#x107;" horiz-adv-x="893" 
d="M864 821q-42 37 -101.5 62.5t-131.5 25.5q-69 0 -124.5 -24t-98.5 -64t-74 -92t-51 -108t-29.5 -111.5t-9.5 -103.5q0 -143 63 -217t172 -74q66 0 137 27.5t134 70.5l-35 -164q-65 -35 -129.5 -54.5t-136.5 -19.5q-94 0 -163.5 32t-115.5 88t-69 132.5t-23 165.5
q0 84 17 165.5t50.5 154t82.5 134.5t112.5 106.5t141.5 70t169 25.5q43 0 82 -6t71 -16t57 -21.5t40 -22.5zM694 1219h-123l289 327h161z" />
    <glyph glyph-name="Ccircumflex" unicode="&#x108;" horiz-adv-x="1309" 
d="M1325 1196q-29 19 -66.5 39t-82.5 36t-98.5 26t-114.5 10q-150 0 -270.5 -53t-204.5 -146t-129.5 -218.5t-45.5 -271.5q0 -119 33 -210.5t94 -154t146 -94.5t188 -32q66 0 120 7.5t100 21t86.5 32t78.5 39.5l-39 -176q-81 -37 -173.5 -56.5t-207.5 -19.5
q-136 0 -247.5 45t-190 127.5t-121.5 198.5t-43 258q0 188 59.5 345t169 270t263 176t340.5 63q128 0 226.5 -27.5t166.5 -62.5zM1113 1568l-114 231l-213 -231h-121l283 331h133l145 -331h-113z" />
    <glyph glyph-name="ccircumflex" unicode="&#x109;" horiz-adv-x="893" 
d="M864 821q-42 37 -101.5 62.5t-131.5 25.5q-69 0 -124.5 -24t-98.5 -64t-74 -92t-51 -108t-29.5 -111.5t-9.5 -103.5q0 -143 63 -217t172 -74q66 0 137 27.5t134 70.5l-35 -164q-65 -35 -129.5 -54.5t-136.5 -19.5q-94 0 -163.5 32t-115.5 88t-69 132.5t-23 165.5
q0 84 17 165.5t50.5 154t82.5 134.5t112.5 106.5t141.5 70t169 25.5q43 0 82 -6t71 -16t57 -21.5t40 -22.5zM833 1219l-114 231l-213 -231h-121l283 331h133l145 -331h-113z" />
    <glyph glyph-name="Cdotaccent" unicode="&#x10a;" horiz-adv-x="1309" 
d="M1325 1196q-29 19 -66.5 39t-82.5 36t-98.5 26t-114.5 10q-150 0 -270.5 -53t-204.5 -146t-129.5 -218.5t-45.5 -271.5q0 -119 33 -210.5t94 -154t146 -94.5t188 -32q66 0 120 7.5t100 21t86.5 32t78.5 39.5l-39 -176q-81 -37 -173.5 -56.5t-207.5 -19.5
q-136 0 -247.5 45t-190 127.5t-121.5 198.5t-43 258q0 188 59.5 345t169 270t263 176t340.5 63q128 0 226.5 -27.5t166.5 -62.5zM1094 1667q0 -42 -28 -71t-70 -29q-19 0 -36.5 7.5t-30.5 21t-21 32t-8 39.5t8 38.5t21 30t30.5 20t36.5 7.5q20 0 37.5 -7.5t31 -20t21.5 -30
t8 -38.5z" />
    <glyph glyph-name="cdotaccent" unicode="&#x10b;" horiz-adv-x="893" 
d="M864 821q-42 37 -101.5 62.5t-131.5 25.5q-69 0 -124.5 -24t-98.5 -64t-74 -92t-51 -108t-29.5 -111.5t-9.5 -103.5q0 -143 63 -217t172 -74q66 0 137 27.5t134 70.5l-35 -164q-65 -35 -129.5 -54.5t-136.5 -19.5q-94 0 -163.5 32t-115.5 88t-69 132.5t-23 165.5
q0 84 17 165.5t50.5 154t82.5 134.5t112.5 106.5t141.5 70t169 25.5q43 0 82 -6t71 -16t57 -21.5t40 -22.5zM807 1319q0 -42 -28 -71t-70 -29q-19 0 -36.5 7.5t-30.5 21t-21 32t-8 39.5t8 38.5t21 30t30.5 20t36.5 7.5q20 0 37.5 -7.5t31 -20t21.5 -30t8 -38.5z" />
    <glyph glyph-name="Ccaron" unicode="&#x10c;" horiz-adv-x="1309" 
d="M1325 1196q-29 19 -66.5 39t-82.5 36t-98.5 26t-114.5 10q-150 0 -270.5 -53t-204.5 -146t-129.5 -218.5t-45.5 -271.5q0 -119 33 -210.5t94 -154t146 -94.5t188 -32q66 0 120 7.5t100 21t86.5 32t78.5 39.5l-39 -176q-81 -37 -173.5 -56.5t-207.5 -19.5
q-136 0 -247.5 45t-190 127.5t-121.5 198.5t-43 258q0 188 59.5 345t169 270t263 176t340.5 63q128 0 226.5 -27.5t166.5 -62.5zM991 1567h-135l-145 331h112l115 -231l215 231h119z" />
    <glyph glyph-name="ccaron" unicode="&#x10d;" horiz-adv-x="893" 
d="M864 821q-42 37 -101.5 62.5t-131.5 25.5q-69 0 -124.5 -24t-98.5 -64t-74 -92t-51 -108t-29.5 -111.5t-9.5 -103.5q0 -143 63 -217t172 -74q66 0 137 27.5t134 70.5l-35 -164q-65 -35 -129.5 -54.5t-136.5 -19.5q-94 0 -163.5 32t-115.5 88t-69 132.5t-23 165.5
q0 84 17 165.5t50.5 154t82.5 134.5t112.5 106.5t141.5 70t169 25.5q43 0 82 -6t71 -16t57 -21.5t40 -22.5zM733 1219h-135l-145 331h112l115 -231l215 231h119z" />
    <glyph glyph-name="Dcaron" unicode="&#x10e;" horiz-adv-x="1458" 
d="M1401 854q0 -106 -21.5 -211t-66 -200t-114.5 -176t-167 -140.5t-222.5 -93t-281.5 -33.5h-454l305 1434h399q140 0 255 -39.5t196.5 -114.5t126.5 -182.5t45 -243.5zM1225 842q0 210 -123 325t-365 115h-219l-242 -1130h267q169 0 296.5 54t213 148t129 219.5
t43.5 268.5zM857 1567h-135l-145 331h112l115 -231l215 231h119z" />
    <glyph glyph-name="dcaron" unicode="&#x10f;" horiz-adv-x="1221" 
d="M901 315q-7 -32 -13.5 -77t-11.5 -90.5t-8.5 -85.5t-3.5 -62h-170q0 17 2.5 45.5t6 59.5t7.5 59.5t7 46.5h-4q-36 -58 -72 -102.5t-76 -74t-85 -44.5t-99 -15q-70 0 -126 25t-95.5 73.5t-60.5 120t-21 164.5q0 74 15.5 154t48 157t82.5 146t119 121t158 82.5t199 30.5
q56 0 104 -7.5t83 -15.5l104 490h162zM858 885q-38 11 -79.5 17.5t-88.5 6.5q-87 0 -153.5 -27t-116 -72t-83 -102.5t-54 -118t-29 -119t-8.5 -105.5q0 -56 9.5 -102t31 -79t55.5 -51t82 -18q50 0 93.5 21t81.5 57t69 83t56 100t42.5 107.5t28.5 104.5zM1525 1516l-221 -260
h-123l172 260h172z" />
    <glyph glyph-name="Dcroat" unicode="&#x110;" horiz-adv-x="1458" 
d="M1401 844q0 -108 -22 -213t-67.5 -198.5t-116 -173t-168 -137t-223 -90t-280.5 -32.5h-450l139 649h-166l29 152h168l135 633h391q143 0 259.5 -41.5t199 -118t127.5 -185.5t45 -245zM1225 831q0 105 -31 189t-92.5 142t-152.5 89t-212 31h-219l-104 -481h342l-31 -152
h-342l-107 -497h252q179 0 310 51.5t217 142.5t128 215.5t42 269.5z" />
    <glyph glyph-name="dcroat" unicode="&#x111;" horiz-adv-x="1110" 
d="M901 315q-7 -32 -13.5 -77t-11.5 -90.5t-8.5 -85.5t-3.5 -62h-170q0 17 2.5 45.5t6 59.5t7.5 59.5t7 46.5h-4q-36 -58 -72 -102.5t-76 -74t-85 -44.5t-99 -15q-70 0 -126 25t-95.5 73.5t-60.5 120t-21 164.5q0 74 15.5 154t48 157t82.5 146t119 121t158 82.5t199 30.5
q56 0 104 -7.5t83 -15.5l37 176h-332l29 133h331l39 181h162l-38 -181h136l-29 -133h-135zM858 885q-38 11 -79.5 17.5t-88.5 6.5q-87 0 -153.5 -27t-116 -72t-83 -102.5t-54 -118t-29 -119t-8.5 -105.5q0 -56 9.5 -102t31 -79t55.5 -51t82 -18q50 0 93.5 21t81.5 57t69 83
t56 100t42.5 107.5t28.5 104.5z" />
    <glyph glyph-name="Emacron" unicode="&#x112;" horiz-adv-x="1022" 
d="M1071 1282h-553l-104 -489h512l-33 -152h-512l-105 -489h588l-30 -152h-760l303 1434h727zM496 1567l16 108h508l-16 -108h-508z" />
    <glyph glyph-name="emacron" unicode="&#x113;" horiz-adv-x="997" 
d="M958 784q0 -81 -36 -147.5t-119 -114t-219 -73.5t-336 -27q-2 -11 -2 -23v-20q0 -54 15 -102t46.5 -84t81 -57t117.5 -21q69 0 151.5 26.5t157.5 75.5l-31 -162q-55 -32 -131 -56t-170 -24q-113 0 -190.5 35t-125 93.5t-68.5 135t-21 160.5q0 90 20 173.5t56.5 155.5
t87.5 131.5t113 101.5t133 65t147 23q79 0 139.5 -21t101 -57.5t61.5 -84.5t21 -102zM791 776q0 63 -46.5 98t-123.5 35q-61 0 -118 -26.5t-105 -73t-83 -111t-51 -139.5q143 0 243 14.5t163 42.5t92 68.5t29 91.5zM430 1219l16 108h508l-16 -108h-508z" />
    <glyph glyph-name="Ebreve" unicode="&#x114;" horiz-adv-x="1022" 
d="M1071 1282h-553l-104 -489h512l-33 -152h-512l-105 -489h588l-30 -152h-760l303 1434h727zM1062 1822q-18 -60 -48.5 -107t-72 -80t-91.5 -50t-107 -17q-55 0 -100.5 16t-77 44.5t-49 68t-17.5 86.5q0 12 1.5 20t4.5 19h105q-2 -7 -2 -13v-14q0 -60 38.5 -93.5
t100.5 -33.5q77 0 128 37.5t77 116.5h110z" />
    <glyph glyph-name="ebreve" unicode="&#x115;" horiz-adv-x="997" 
d="M958 784q0 -81 -36 -147.5t-119 -114t-219 -73.5t-336 -27q-2 -11 -2 -23v-20q0 -54 15 -102t46.5 -84t81 -57t117.5 -21q69 0 151.5 26.5t157.5 75.5l-31 -162q-55 -32 -131 -56t-170 -24q-113 0 -190.5 35t-125 93.5t-68.5 135t-21 160.5q0 90 20 173.5t56.5 155.5
t87.5 131.5t113 101.5t133 65t147 23q79 0 139.5 -21t101 -57.5t61.5 -84.5t21 -102zM791 776q0 63 -46.5 98t-123.5 35q-61 0 -118 -26.5t-105 -73t-83 -111t-51 -139.5q143 0 243 14.5t163 42.5t92 68.5t29 91.5zM990 1473q-18 -60 -48.5 -107t-72 -80t-91.5 -50t-107 -17
q-55 0 -100.5 16t-77 44.5t-49 68t-17.5 86.5q0 12 1.5 20t4.5 19h105q-2 -7 -2 -13v-14q0 -60 38.5 -93.5t100.5 -33.5q77 0 128 37.5t77 116.5h110z" />
    <glyph glyph-name="Edotaccent" unicode="&#x116;" horiz-adv-x="1022" 
d="M1071 1282h-553l-104 -489h512l-33 -152h-512l-105 -489h588l-30 -152h-760l303 1434h727zM863 1667q0 -42 -28 -71t-70 -29q-19 0 -36.5 7.5t-30.5 21t-21 32t-8 39.5t8 38.5t21 30t30.5 20t36.5 7.5q20 0 37.5 -7.5t31 -20t21.5 -30t8 -38.5z" />
    <glyph glyph-name="edotaccent" unicode="&#x117;" horiz-adv-x="997" 
d="M958 784q0 -81 -36 -147.5t-119 -114t-219 -73.5t-336 -27q-2 -11 -2 -23v-20q0 -54 15 -102t46.5 -84t81 -57t117.5 -21q69 0 151.5 26.5t157.5 75.5l-31 -162q-55 -32 -131 -56t-170 -24q-113 0 -190.5 35t-125 93.5t-68.5 135t-21 160.5q0 90 20 173.5t56.5 155.5
t87.5 131.5t113 101.5t133 65t147 23q79 0 139.5 -21t101 -57.5t61.5 -84.5t21 -102zM791 776q0 63 -46.5 98t-123.5 35q-61 0 -118 -26.5t-105 -73t-83 -111t-51 -139.5q143 0 243 14.5t163 42.5t92 68.5t29 91.5zM788 1319q0 -42 -28 -71t-70 -29q-19 0 -36.5 7.5
t-30.5 21t-21 32t-8 39.5t8 38.5t21 30t30.5 20t36.5 7.5q20 0 37.5 -7.5t31 -20t21.5 -30t8 -38.5z" />
    <glyph glyph-name="Eogonek" unicode="&#x118;" horiz-adv-x="1022" 
d="M695 0q-52 -47 -88 -83t-58 -65.5t-32 -54t-10 -47.5q0 -80 80 -80q23 0 48.5 8.5t41.5 16.5l-15 -103q-18 -9 -46 -15.5t-62 -6.5q-82 0 -122 41.5t-40 114.5q0 27 10 56.5t33 63t61.5 72t96.5 82.5h-519l303 1434h727l-33 -152h-553l-104 -489h512l-33 -152h-512
l-105 -489h588l-30 -152h-139z" />
    <glyph glyph-name="eogonek" unicode="&#x119;" horiz-adv-x="997" 
d="M958 784q0 -81 -36 -147.5t-119 -114t-219 -73.5t-336 -27q-2 -11 -2 -23v-20q0 -54 15 -102t46.5 -84t81 -57t117.5 -21q69 0 151.5 26.5t157.5 75.5l-31 -162q-55 -32 -131 -56q-50 -15 -107 -21q-36 -34 -63 -61q-36 -36 -58 -65.5t-32 -54t-10 -47.5q0 -80 80 -80
q23 0 48.5 8.5t41.5 16.5l-15 -103q-18 -9 -46 -15.5t-62 -6.5q-82 0 -122 41.5t-40 114.5q0 27 10 56.5t33 63t61 72.5q28 28 66 59q-84 5 -146 33q-77 35 -124.5 93.5t-68.5 135t-21 160.5q0 90 20 173.5t56.5 155.5t87.5 131.5t113 101.5t133 65t147 23q79 0 139.5 -21
t101 -57.5t61.5 -84.5t21 -102zM791 776q0 63 -46.5 98t-123.5 35q-61 0 -118 -26.5t-105 -73t-83 -111t-51 -139.5q143 0 243 14.5t163 42.5t92 68.5t29 91.5z" />
    <glyph glyph-name="Ecaron" unicode="&#x11a;" horiz-adv-x="1022" 
d="M1071 1282h-553l-104 -489h512l-33 -152h-512l-105 -489h588l-30 -152h-760l303 1434h727zM825 1567h-135l-145 331h112l115 -231l215 231h119z" />
    <glyph glyph-name="ecaron" unicode="&#x11b;" horiz-adv-x="997" 
d="M958 784q0 -81 -36 -147.5t-119 -114t-219 -73.5t-336 -27q-2 -11 -2 -23v-20q0 -54 15 -102t46.5 -84t81 -57t117.5 -21q69 0 151.5 26.5t157.5 75.5l-31 -162q-55 -32 -131 -56t-170 -24q-113 0 -190.5 35t-125 93.5t-68.5 135t-21 160.5q0 90 20 173.5t56.5 155.5
t87.5 131.5t113 101.5t133 65t147 23q79 0 139.5 -21t101 -57.5t61.5 -84.5t21 -102zM791 776q0 63 -46.5 98t-123.5 35q-61 0 -118 -26.5t-105 -73t-83 -111t-51 -139.5q143 0 243 14.5t163 42.5t92 68.5t29 91.5zM747 1219h-135l-145 331h112l115 -231l215 231h119z" />
    <glyph glyph-name="Gcircumflex" unicode="&#x11c;" horiz-adv-x="1409" 
d="M1350 1190q-33 22 -75.5 43t-93.5 37.5t-110.5 26.5t-126.5 10q-149 0 -266 -53t-198 -144.5t-124 -215.5t-43 -265q0 -117 32.5 -210t93.5 -158t147.5 -99.5t195.5 -34.5q75 0 135.5 12.5t112.5 32.5l86 418h-332l33 149h504l-141 -661q-85 -45 -188 -75t-230 -30
q-147 0 -263 49t-196.5 134.5t-123 202t-42.5 251.5q0 116 24 224t71 202.5t117 172t162 133t205.5 86t248.5 30.5q74 0 137.5 -9t116 -23t93.5 -30.5t70 -31.5zM1113 1569l-114 231l-213 -231h-121l283 331h133l145 -331h-113z" />
    <glyph glyph-name="gcircumflex" unicode="&#x11d;" horiz-adv-x="1110" 
d="M850 74q-25 -120 -66 -221.5t-108.5 -176t-166.5 -116t-241 -41.5q-98 0 -170.5 23t-132.5 55l31 153q63 -38 134 -64t153 -26q89 0 154.5 26t113 76.5t79 123.5t52.5 167l35 160h-4q-38 -61 -74.5 -105.5t-76.5 -74t-84 -44t-97 -14.5q-69 0 -125 24.5t-95.5 72.5
t-61 120t-21.5 166q0 89 19.5 175t56.5 163t90.5 141.5t121.5 111.5t149.5 73.5t174.5 26.5t186 -12t171 -27zM858 889q-34 8 -82.5 14t-103.5 6q-94 0 -172 -43.5t-134.5 -118t-88 -173.5t-31.5 -209q0 -54 9.5 -100t30 -79t53 -52t79.5 -19q55 0 101.5 23t85.5 61
t69.5 86.5t54 99.5t39.5 100.5t25 89.5zM889 1219l-114 231l-213 -231h-121l283 331h133l145 -331h-113z" />
    <glyph glyph-name="Gbreve" unicode="&#x11e;" horiz-adv-x="1409" 
d="M1350 1190q-33 22 -75.5 43t-93.5 37.5t-110.5 26.5t-126.5 10q-149 0 -266 -53t-198 -144.5t-124 -215.5t-43 -265q0 -117 32.5 -210t93.5 -158t147.5 -99.5t195.5 -34.5q75 0 135.5 12.5t112.5 32.5l86 418h-332l33 149h504l-141 -661q-85 -45 -188 -75t-230 -30
q-147 0 -263 49t-196.5 134.5t-123 202t-42.5 251.5q0 116 24 224t71 202.5t117 172t162 133t205.5 86t248.5 30.5q74 0 137.5 -9t116 -23t93.5 -30.5t70 -31.5zM1300 1820q-18 -60 -48.5 -107t-72 -80t-91.5 -50t-107 -17q-55 0 -100.5 16t-77 44.5t-49 68t-17.5 86.5
q0 12 1.5 20t4.5 19h105q-2 -7 -2 -13v-14q0 -60 38.5 -93.5t100.5 -33.5q77 0 128 37.5t77 116.5h110z" />
    <glyph glyph-name="gbreve" unicode="&#x11f;" horiz-adv-x="1110" 
d="M850 74q-25 -120 -66 -221.5t-108.5 -176t-166.5 -116t-241 -41.5q-98 0 -170.5 23t-132.5 55l31 153q63 -38 134 -64t153 -26q89 0 154.5 26t113 76.5t79 123.5t52.5 167l35 160h-4q-38 -61 -74.5 -105.5t-76.5 -74t-84 -44t-97 -14.5q-69 0 -125 24.5t-95.5 72.5
t-61 120t-21.5 166q0 89 19.5 175t56.5 163t90.5 141.5t121.5 111.5t149.5 73.5t174.5 26.5t186 -12t171 -27zM858 889q-34 8 -82.5 14t-103.5 6q-94 0 -172 -43.5t-134.5 -118t-88 -173.5t-31.5 -209q0 -54 9.5 -100t30 -79t53 -52t79.5 -19q55 0 101.5 23t85.5 61
t69.5 86.5t54 99.5t39.5 100.5t25 89.5zM1073 1473q-18 -60 -48.5 -107t-72 -80t-91.5 -50t-107 -17q-55 0 -100.5 16t-77 44.5t-49 68t-17.5 86.5q0 12 1.5 20t4.5 19h105q-2 -7 -2 -13v-14q0 -60 38.5 -93.5t100.5 -33.5q77 0 128 37.5t77 116.5h110z" />
    <glyph glyph-name="Gdotaccent" unicode="&#x120;" horiz-adv-x="1409" 
d="M1350 1190q-33 22 -75.5 43t-93.5 37.5t-110.5 26.5t-126.5 10q-149 0 -266 -53t-198 -144.5t-124 -215.5t-43 -265q0 -117 32.5 -210t93.5 -158t147.5 -99.5t195.5 -34.5q75 0 135.5 12.5t112.5 32.5l86 418h-332l33 149h504l-141 -661q-85 -45 -188 -75t-230 -30
q-147 0 -263 49t-196.5 134.5t-123 202t-42.5 251.5q0 116 24 224t71 202.5t117 172t162 133t205.5 86t248.5 30.5q74 0 137.5 -9t116 -23t93.5 -30.5t70 -31.5zM1116 1667q0 -42 -28 -71t-70 -29q-19 0 -36.5 7.5t-30.5 21t-21 32t-8 39.5t8 38.5t21 30t30.5 20t36.5 7.5
q20 0 37.5 -7.5t31 -20t21.5 -30t8 -38.5z" />
    <glyph glyph-name="gdotaccent" unicode="&#x121;" horiz-adv-x="1110" 
d="M850 74q-25 -120 -66 -221.5t-108.5 -176t-166.5 -116t-241 -41.5q-98 0 -170.5 23t-132.5 55l31 153q63 -38 134 -64t153 -26q89 0 154.5 26t113 76.5t79 123.5t52.5 167l35 160h-4q-38 -61 -74.5 -105.5t-76.5 -74t-84 -44t-97 -14.5q-69 0 -125 24.5t-95.5 72.5
t-61 120t-21.5 166q0 89 19.5 175t56.5 163t90.5 141.5t121.5 111.5t149.5 73.5t174.5 26.5t186 -12t171 -27zM858 889q-34 8 -82.5 14t-103.5 6q-94 0 -172 -43.5t-134.5 -118t-88 -173.5t-31.5 -209q0 -54 9.5 -100t30 -79t53 -52t79.5 -19q55 0 101.5 23t85.5 61
t69.5 86.5t54 99.5t39.5 100.5t25 89.5zM835 1319q0 -42 -28 -71t-70 -29q-19 0 -36.5 7.5t-30.5 21t-21 32t-8 39.5t8 38.5t21 30t30.5 20t36.5 7.5q20 0 37.5 -7.5t31 -20t21.5 -30t8 -38.5z" />
    <glyph glyph-name="Gcommaaccent" unicode="&#x122;" horiz-adv-x="1409" 
d="M1350 1190q-33 22 -75.5 43t-93.5 37.5t-110.5 26.5t-126.5 10q-149 0 -266 -53t-198 -144.5t-124 -215.5t-43 -265q0 -117 32.5 -210t93.5 -158t147.5 -99.5t195.5 -34.5q75 0 135.5 12.5t112.5 32.5l86 418h-332l33 149h504l-141 -661q-85 -45 -188 -75t-230 -30
q-147 0 -263 49t-196.5 134.5t-123 202t-42.5 251.5q0 116 24 224t71 202.5t117 172t162 133t205.5 86t248.5 30.5q74 0 137.5 -9t116 -23t93.5 -30.5t70 -31.5zM840 -119l-166 -260h-123l117 260h172z" />
    <glyph glyph-name="gcommaaccent" unicode="&#x123;" horiz-adv-x="1110" 
d="M850 74q-25 -120 -66 -221.5t-108.5 -176t-166.5 -116t-241 -41.5q-98 0 -170.5 23t-132.5 55l31 153q63 -38 134 -64t153 -26q89 0 154.5 26t113 76.5t79 123.5t52.5 167l35 160h-4q-38 -61 -74.5 -105.5t-76.5 -74t-84 -44t-97 -14.5q-69 0 -125 24.5t-95.5 72.5
t-61 120t-21.5 166q0 89 19.5 175t56.5 163t90.5 141.5t121.5 111.5t149.5 73.5t174.5 26.5t186 -12t171 -27zM858 889q-34 8 -82.5 14t-103.5 6q-94 0 -172 -43.5t-134.5 -118t-88 -173.5t-31.5 -209q0 -54 9.5 -100t30 -79t53 -52t79.5 -19q55 0 101.5 23t85.5 61
t69.5 86.5t54 99.5t39.5 100.5t25 89.5zM762 1219h-172l221 260h123z" />
    <glyph glyph-name="Hcircumflex" unicode="&#x124;" horiz-adv-x="1450" 
d="M1151 0h-172l137 647h-733l-135 -647h-174l303 1434h174l-135 -629h733l135 629h172zM1088 1567l-114 231l-213 -231h-121l283 331h133l145 -331h-113z" />
    <glyph glyph-name="hcircumflex" unicode="&#x125;" horiz-adv-x="1141" 
d="M1036 766q0 -13 -3.5 -39.5t-8 -56.5t-10 -59.5t-10.5 -49.5l-119 -561h-166l125 600q4 16 8 37t7 42t5 38.5t2 27.5q0 78 -35.5 121t-109.5 43q-64 0 -128 -37.5t-119 -97t-95.5 -133t-56.5 -145.5l-107 -496h-166l324 1516h164l-156 -732h4q37 57 81 105.5t93.5 84
t104 55.5t112.5 20q128 0 194 -75.5t66 -207.5zM913 1648l-114 231l-213 -231h-121l283 331h133l145 -331h-113z" />
    <glyph glyph-name="Hbar" unicode="&#x126;" horiz-adv-x="1450" 
d="M1151 0h-172l137 647h-733l-135 -647h-174l217 1028h-160l33 152h159l54 254h174l-55 -254h733l55 254h172l-54 -254h158l-33 -152h-158zM1149 805l48 223h-733l-48 -223h733z" />
    <glyph glyph-name="hbar" unicode="&#x127;" horiz-adv-x="1141" 
d="M1036 766q0 -13 -3.5 -39.5t-8 -56.5t-10 -59.5t-10.5 -49.5l-119 -561h-166l125 600q4 16 8 37t7 42t5 38.5t2 27.5q0 78 -35.5 121t-109.5 43q-64 0 -128 -37.5t-119 -97t-95.5 -133t-56.5 -145.5l-107 -496h-166l257 1202h-135l28 133h135l39 181h164l-39 -181h332
l-28 -133h-332l-89 -418h4q37 57 81 105.5t93.5 84t104 55.5t112.5 20q128 0 194 -75.5t66 -207.5z" />
    <glyph glyph-name="Itilde" unicode="&#x128;" horiz-adv-x="545" 
d="M246 0h-172l303 1434h174zM816 1803q-3 -45 -20.5 -85t-46 -70t-67 -47t-83.5 -17q-48 0 -80.5 14.5t-58 31.5t-49 31.5t-54.5 14.5q-51 0 -80.5 -33t-34.5 -79h-96q3 48 21.5 89t48.5 70t70.5 45.5t87.5 16.5q44 0 73.5 -15t54.5 -33.5t49.5 -33.5t57.5 -15q22 0 41 9
t34 24.5t24 36.5t12 45h96z" />
    <glyph glyph-name="itilde" unicode="&#x129;" horiz-adv-x="530" 
d="M416 4q-25 -8 -56.5 -13t-62.5 -5q-101 0 -151 50.5t-50 135.5q0 25 5 59t16 84l149 709h166l-150 -713q-9 -42 -12.5 -65t-3.5 -39q0 -41 22.5 -62.5t71.5 -21.5q26 0 45.5 3t36.5 9zM743 1458q-3 -45 -20.5 -85t-46 -70t-67 -47t-83.5 -17q-48 0 -80.5 14.5t-58 31.5
t-49 31.5t-54.5 14.5q-51 0 -80.5 -33t-34.5 -79h-96q3 48 21.5 89t48.5 70t70.5 45.5t87.5 16.5q44 0 73.5 -15t54.5 -33.5t49.5 -33.5t57.5 -15q22 0 41 9t34 24.5t24 36.5t12 45h96z" />
    <glyph glyph-name="Imacron" unicode="&#x12a;" horiz-adv-x="545" 
d="M246 0h-172l303 1434h174zM228 1566l16 108h508l-16 -108h-508z" />
    <glyph glyph-name="imacron" unicode="&#x12b;" horiz-adv-x="530" 
d="M416 4q-25 -8 -56.5 -13t-62.5 -5q-101 0 -151 50.5t-50 135.5q0 25 5 59t16 84l149 709h166l-150 -713q-9 -42 -12.5 -65t-3.5 -39q0 -41 22.5 -62.5t71.5 -21.5q26 0 45.5 3t36.5 9zM107 1219l16 108h508l-16 -108h-508z" />
    <glyph glyph-name="Ibreve" unicode="&#x12c;" horiz-adv-x="545" 
d="M246 0h-172l303 1434h174zM811 1821q-18 -60 -48.5 -107t-72 -80t-91.5 -50t-107 -17q-55 0 -100.5 16t-77 44.5t-49 68t-17.5 86.5q0 12 1.5 20t4.5 19h105q-2 -7 -2 -13v-14q0 -60 38.5 -93.5t100.5 -33.5q77 0 128 37.5t77 116.5h110z" />
    <glyph glyph-name="ibreve" unicode="&#x12d;" horiz-adv-x="530" 
d="M416 4q-25 -8 -56.5 -13t-62.5 -5q-101 0 -151 50.5t-50 135.5q0 25 5 59t16 84l149 709h166l-150 -713q-9 -42 -12.5 -65t-3.5 -39q0 -41 22.5 -62.5t71.5 -21.5q26 0 45.5 3t36.5 9zM699 1473q-18 -60 -48.5 -107t-72 -80t-91.5 -50t-107 -17q-55 0 -100.5 16t-77 44.5
t-49 68t-17.5 86.5q0 12 1.5 20t4.5 19h105q-2 -7 -2 -13v-14q0 -60 38.5 -93.5t100.5 -33.5q77 0 128 37.5t77 116.5h110z" />
    <glyph glyph-name="Iogonek" unicode="&#x12e;" horiz-adv-x="545" 
d="M225 0q-52 -47 -88 -83t-58 -65.5t-32 -54t-10 -47.5q0 -80 80 -80q23 0 48.5 8.5t41.5 16.5l-15 -103q-18 -9 -46 -15.5t-62 -6.5q-82 0 -122 41.5t-40 114.5q0 27 10 56.5t33 63t61.5 72t96.5 82.5h-49l303 1434h174l-305 -1434h-21z" />
    <glyph glyph-name="iogonek" unicode="&#x12f;" horiz-adv-x="530" 
d="M292 -14q-94 0 -145 49.5t-51 136.5q0 25 5 59t16 84l149 709h166l-150 -713q-9 -42 -12.5 -65t-3.5 -39q0 -41 22.5 -62.5t71.5 -21.5q26 0 45.5 3t36.5 9l-26 -131q-56 -51 -92 -87t-58 -65.5t-32 -54t-10 -47.5q0 -80 80 -80q23 0 48.5 8.5t41.5 16.5l-15 -103
q-18 -9 -46 -15.5t-62 -6.5q-82 0 -122 41.5t-40 114.5q0 27 10 56.5t33 63t63 73t77 67.5zM533 1389q0 -45 -30.5 -77t-75.5 -32q-44 0 -76.5 31.5t-32.5 77.5t32.5 75t76.5 29t75 -29.5t31 -74.5z" />
    <glyph glyph-name="Idotaccent" unicode="&#x130;" horiz-adv-x="545" 
d="M246 0h-172l303 1434h174zM603 1667q0 -42 -28 -71t-70 -29q-19 0 -36.5 7.5t-30.5 21t-21 32t-8 39.5t8 38.5t21 30t30.5 20t36.5 7.5q20 0 37.5 -7.5t31 -20t21.5 -30t8 -38.5z" />
    <glyph glyph-name="dotlessi" unicode="&#x131;" horiz-adv-x="530" 
d="M416 4q-25 -8 -56.5 -13t-62.5 -5q-101 0 -151 50.5t-50 135.5q0 25 5 59t16 84l149 709h166l-150 -713q-9 -42 -12.5 -65t-3.5 -39q0 -41 22.5 -62.5t71.5 -21.5q26 0 45.5 3t36.5 9z" />
    <glyph glyph-name="IJ" unicode="&#x132;" horiz-adv-x="1268" 
d="M246 0h-172l303 1434h174zM1094 508q-28 -130 -69.5 -230t-99.5 -167t-134 -101.5t-173 -34.5q-18 0 -43 3t-49 8.5t-44 11.5t-29 12l28 160q11 -9 26.5 -17.5t33.5 -14.5t38 -9.5t39 -3.5q54 0 100 19.5t83.5 64t67.5 116t52 175.5l197 934h172z" />
    <glyph glyph-name="ij" unicode="&#x133;" horiz-adv-x="1025" 
d="M416 4q-25 -8 -56.5 -13t-62.5 -5q-101 0 -151 50.5t-50 135.5q0 25 5 59t16 84l149 709h166l-150 -713q-9 -42 -12.5 -65t-3.5 -39q0 -41 22.5 -62.5t71.5 -21.5q26 0 45.5 3t36.5 9zM533 1389q0 -45 -30.5 -77t-75.5 -32q-44 0 -76.5 31.5t-32.5 77.5t32.5 75t76.5 29
t75 -29.5t31 -74.5zM758 47q-55 -264 -170.5 -396t-298.5 -132q-17 0 -36.5 2t-39 6t-38 9.5t-33.5 12.5l29 154q12 -8 28 -16t34 -14.5t36.5 -10.5t34.5 -4q103 0 174 89t108 269l215 1008h164zM1066 1389q0 -45 -30.5 -77t-75.5 -32q-44 0 -76.5 31.5t-32.5 77.5t32.5 75
t76.5 29t75 -29.5t31 -74.5z" />
    <glyph glyph-name="Jcircumflex" unicode="&#x134;" horiz-adv-x="709" 
d="M535 508q-28 -130 -69.5 -230t-99.5 -167t-134 -101.5t-173 -34.5q-18 0 -43 3t-49 8.5t-44 11.5t-29 12l28 160q11 -9 26.5 -17.5t33.5 -14.5t38 -9.5t39 -3.5q54 0 100 19.5t83.5 64t67.5 116t52 175.5l197 934h172zM809 1567l-114 231l-213 -231h-121l283 331h133
l145 -331h-113z" />
    <glyph glyph-name="jcircumflex" unicode="&#x135;" horiz-adv-x="492" 
d="M225 47q-55 -264 -170.5 -396t-298.5 -132q-17 0 -36.5 2t-39 6t-38 9.5t-33.5 12.5l29 154q12 -8 28 -16t34 -14.5t36.5 -10.5t34.5 -4q103 0 174 89t108 269l215 1008h164zM519 1219l-114 231l-213 -231h-121l283 331h133l145 -331h-113z" />
    <glyph glyph-name="Kcommaaccent" unicode="&#x136;" horiz-adv-x="1228" 
d="M573 723l498 -723h-209l-434 653q-6 11 -15 27t-14 27h-4l-149 -707h-172l303 1434h174l-143 -674h4q11 12 23.5 25t23.5 24l659 625h228zM647 -119l-166 -260h-123l117 260h172z" />
    <glyph glyph-name="kcommaaccent" unicode="&#x137;" horiz-adv-x="1004" 
d="M498 551l362 -551h-190l-336 541h-4l-115 -541h-166l324 1516h164l-197 -926h4l510 434h213zM556 -119l-166 -260h-123l117 260h172z" />
    <glyph glyph-name="kgreenlandic" unicode="&#x138;" horiz-adv-x="1004" 
d="M495 534l365 -534h-190l-339 524h-4l-112 -524h-166l218 1024h164l-94 -451h4l513 451h213z" />
    <glyph glyph-name="Lacute" unicode="&#x139;" horiz-adv-x="948" 
d="M817 0h-743l303 1434h174l-272 -1278h571zM787 1567h-123l289 327h161z" />
    <glyph glyph-name="lacute" unicode="&#x13a;" horiz-adv-x="530" 
d="M416 4q-25 -8 -56.5 -13t-62.5 -5q-101 0 -151 50.5t-50 135.5q0 25 5 59t16 84l256 1202h166l-257 -1206q-9 -42 -12.5 -65t-3.5 -39q0 -41 22.5 -62.5t71.5 -21.5q26 0 45.5 3t36.5 9zM467 1652h-123l289 327h161z" />
    <glyph glyph-name="Lcommaaccent" unicode="&#x13b;" horiz-adv-x="948" 
d="M619 -238q0 -89 -75 -142.5t-218 -53.5q-20 0 -43 1.5t-45 4.5l18 88q41 -6 76 -6q87 0 128.5 25t41.5 67q0 35 -28.5 55.5t-90.5 20.5q-14 0 -27.5 -1t-27.5 -3l39 182h-293l303 1434h174l-272 -1278h571l-33 -156h-354l-24 -104q37 0 69.5 -8.5t57 -25.5t39 -42
t14.5 -58z" />
    <glyph glyph-name="lcommaaccent" unicode="&#x13c;" horiz-adv-x="530" 
d="M197 3q-28 11 -51 33q-50 51 -50 136q0 25 5 59t16 84l256 1202h166l-257 -1206q-9 -42 -12.5 -65t-3.5 -39q0 -41 22.5 -62.5t71.5 -21.5q26 0 45.5 3t36.5 9l-26 -131q-25 -8 -53.5 -13t-72.5 -6l-21 -89q37 0 69.5 -8.5t57 -25.5t39 -42t14.5 -58q0 -89 -75 -142.5
t-218 -53.5q-20 0 -43 1.5t-45 4.5l18 88q41 -6 76 -6q87 0 128.5 25t41.5 67q0 35 -28.5 55.5t-90.5 20.5q-14 0 -27.5 -1t-27.5 -3z" />
    <glyph glyph-name="Lcaron" unicode="&#x13d;" horiz-adv-x="965" 
d="M817 0h-743l303 1434h174l-272 -1278h571zM1094 1434l-221 -260h-123l172 260h172z" />
    <glyph glyph-name="lcaron" unicode="&#x13e;" horiz-adv-x="604" 
d="M416 4q-25 -8 -56.5 -13t-62.5 -5q-101 0 -151 50.5t-50 135.5q0 25 5 59t16 84l256 1202h166l-257 -1206q-9 -42 -12.5 -65t-3.5 -39q0 -41 22.5 -62.5t71.5 -21.5q26 0 45.5 3t36.5 9zM918 1516l-221 -260h-123l172 260h172z" />
    <glyph glyph-name="Ldot" unicode="&#x13f;" horiz-adv-x="965" 
d="M817 0h-743l303 1434h174l-272 -1278h571zM894 751q0 -42 -28 -71t-70 -29q-19 0 -36.5 7.5t-30.5 21t-21 32t-8 39.5t8 38.5t21 30t30.5 20t36.5 7.5q20 0 37.5 -7.5t31 -20t21.5 -30t8 -38.5z" />
    <glyph glyph-name="ldot" unicode="&#x140;" horiz-adv-x="645" 
d="M416 4q-25 -8 -56.5 -13t-62.5 -5q-101 0 -151 50.5t-50 135.5q0 25 5 59t16 84l256 1202h166l-257 -1206q-9 -42 -12.5 -65t-3.5 -39q0 -41 22.5 -62.5t71.5 -21.5q26 0 45.5 3t36.5 9zM708 751q0 -42 -28 -71t-70 -29q-19 0 -36.5 7.5t-30.5 21t-21 32t-8 39.5t8 38.5
t21 30t30.5 20t36.5 7.5q20 0 37.5 -7.5t31 -20t21.5 -30t8 -38.5z" />
    <glyph glyph-name="Lslash" unicode="&#x141;" horiz-adv-x="948" 
d="M817 0h-743l125 592l-170 -74l30 158l174 76l144 682h174l-127 -600l315 145l-30 -156l-320 -149l-110 -518h571z" />
    <glyph glyph-name="lslash" unicode="&#x142;" horiz-adv-x="563" 
d="M315 311q-9 -42 -12.5 -65t-3.5 -39q0 -41 22.5 -62.5t71.5 -21.5q26 0 45.5 3t36.5 9l-26 -131q-25 -8 -56.5 -13t-62.5 -5q-101 0 -151 50.5t-50 135.5q0 25 5 59t16 84l69 320l-170 -100l31 155l170 96l156 731h166l-134 -626l180 104l-32 -153l-180 -103z" />
    <glyph glyph-name="Nacute" unicode="&#x143;" horiz-adv-x="1538" 
d="M1241 0h-186l-529 1149q-3 8 -7 19.5t-8 24.5t-7 25t-4 19h-6q-1 -10 -2.5 -24.5t-3.5 -29.5t-4.5 -29.5t-4.5 -25.5l-239 -1128h-166l303 1434h201l507 -1125q5 -9 10 -21.5t10 -26t9.5 -26.5t7.5 -22h4q1 12 3 28t4 33.5t5 34.5t5 29l233 1096h170zM937 1567h-123
l289 327h161z" />
    <glyph glyph-name="nacute" unicode="&#x144;" horiz-adv-x="1151" 
d="M1046 768q0 -15 -3.5 -41t-9 -56t-11 -59.5t-10.5 -50.5l-119 -561h-166l125 600q4 16 8 37t7 42t5 38.5t2 27.5q0 76 -36.5 120t-108.5 44q-66 0 -131 -39t-120 -99t-94.5 -132t-53.5 -139l-107 -500h-166l158 731q8 39 16 81.5t15 82t12 73.5t8 56h160
q-5 -39 -12 -81.5t-12 -78.5q-6 -42 -13 -82h4q35 55 77.5 103.5t92 85t105 57.5t116.5 21q68 0 117 -20.5t81.5 -57.5t48 -89t15.5 -114zM775 1219h-123l289 327h161z" />
    <glyph glyph-name="Ncommaaccent" unicode="&#x145;" horiz-adv-x="1538" 
d="M1241 0h-186l-529 1149q-3 8 -7 19.5t-8 24.5t-7 25t-4 19h-6q-1 -10 -2.5 -24.5t-3.5 -29.5t-4.5 -29.5t-4.5 -25.5l-239 -1128h-166l303 1434h201l507 -1125q5 -9 10 -21.5t10 -26t9.5 -26.5t7.5 -22h4q1 12 3 28t4 33.5t5 34.5t5 29l233 1096h170zM776 -119l-166 -260
h-123l117 260h172z" />
    <glyph glyph-name="ncommaaccent" unicode="&#x146;" horiz-adv-x="1151" 
d="M1046 768q0 -15 -3.5 -41t-9 -56t-11 -59.5t-10.5 -50.5l-119 -561h-166l125 600q4 16 8 37t7 42t5 38.5t2 27.5q0 76 -36.5 120t-108.5 44q-66 0 -131 -39t-120 -99t-94.5 -132t-53.5 -139l-107 -500h-166l158 731q8 39 16 81.5t15 82t12 73.5t8 56h160
q-5 -39 -12 -81.5t-12 -78.5q-6 -42 -13 -82h4q35 55 77.5 103.5t92 85t105 57.5t116.5 21q68 0 117 -20.5t81.5 -57.5t48 -89t15.5 -114zM583 -119l-166 -260h-123l117 260h172z" />
    <glyph glyph-name="Ncaron" unicode="&#x147;" horiz-adv-x="1538" 
d="M1241 0h-186l-529 1149q-3 8 -7 19.5t-8 24.5t-7 25t-4 19h-6q-1 -10 -2.5 -24.5t-3.5 -29.5t-4.5 -29.5t-4.5 -25.5l-239 -1128h-166l303 1434h201l507 -1125q5 -9 10 -21.5t10 -26t9.5 -26.5t7.5 -22h4q1 12 3 28t4 33.5t5 34.5t5 29l233 1096h170zM1031 1567h-135
l-145 331h112l115 -231l215 231h119z" />
    <glyph glyph-name="ncaron" unicode="&#x148;" horiz-adv-x="1151" 
d="M1046 768q0 -15 -3.5 -41t-9 -56t-11 -59.5t-10.5 -50.5l-119 -561h-166l125 600q4 16 8 37t7 42t5 38.5t2 27.5q0 76 -36.5 120t-108.5 44q-66 0 -131 -39t-120 -99t-94.5 -132t-53.5 -139l-107 -500h-166l158 731q8 39 16 81.5t15 82t12 73.5t8 56h160
q-5 -39 -12 -81.5t-12 -78.5q-6 -42 -13 -82h4q35 55 77.5 103.5t92 85t105 57.5t116.5 21q68 0 117 -20.5t81.5 -57.5t48 -89t15.5 -114zM784 1219h-135l-145 331h112l115 -231l215 231h119z" />
    <glyph glyph-name="napostrophe" unicode="&#x149;" horiz-adv-x="1241" 
d="M1136 768q0 -15 -3.5 -41t-9 -56t-11 -59.5t-10.5 -50.5l-119 -561h-166l125 600q4 16 8 37t7 42t5 38.5t2 27.5q0 76 -36.5 120t-108.5 44q-66 0 -131 -39t-120 -99t-94.5 -132t-53.5 -139l-107 -500h-166l158 731q8 39 16 81.5t15 82t12 73.5t8 56h160
q-5 -39 -12 -81.5t-12 -78.5q-6 -42 -13 -82h4q35 55 77.5 103.5t92 85t105 57.5t116.5 21q68 0 117 -20.5t81.5 -57.5t48 -89t15.5 -114zM193 987h-116l176 447h147z" />
    <glyph glyph-name="Eng" unicode="&#x14a;" horiz-adv-x="1538" 
d="M543 1132q-3 8 -9.5 23t-13 32t-12 32t-6.5 22h-6q-1 -10 -3 -24.5t-4 -29.5t-4 -29.5t-4 -25.5l-241 -1132h-166l303 1434h201l512 -1100q5 -9 10 -21.5t10 -26t9.5 -26.5t7.5 -22h4q1 12 3 28t4.5 33.5t5 34.5t4.5 29l228 1071h170l-305 -1434q-18 -89 -49.5 -166
t-81.5 -134t-121 -89.5t-169 -32.5q-17 0 -40.5 2.5t-47.5 7t-46.5 11t-37.5 13.5l28 146q12 -8 30.5 -15.5t39 -13t41 -9t36.5 -3.5q56 0 95.5 18t68 53.5t48.5 88.5t37 122z" />
    <glyph glyph-name="eng" unicode="&#x14b;" horiz-adv-x="1151" 
d="M915 106q-55 -264 -170.5 -396t-298.5 -132q-17 0 -36.5 2t-39 6t-38 9.5t-33.5 12.5l29 154q12 -8 28 -16t34 -14.5t36.5 -10.5t34.5 -4q103 0 174 89t108 269l109 525q4 16 8 37t7 42t5 38.5t2 27.5q0 76 -36.5 120t-108.5 44q-66 0 -131 -39t-120 -99t-94.5 -132
t-53.5 -139l-107 -500h-166l158 731q8 39 16 81.5t15 82t12 73.5t8 56h160q-5 -39 -12 -81.5t-12 -78.5q-6 -42 -13 -82h4q35 55 77.5 103.5t92 85t105 57.5t116.5 21q68 0 117 -20.5t81.5 -57.5t48 -89t15.5 -114q0 -15 -3.5 -41t-9 -56t-11 -59.5t-10.5 -50.5z" />
    <glyph glyph-name="Omacron" unicode="&#x14c;" horiz-adv-x="1544" 
d="M1487 852q0 -93 -17 -184.5t-49 -176.5t-78.5 -161t-105.5 -137q-48 -50 -104 -90.5t-120 -69t-137 -43.5t-157 -15q-135 0 -243 46.5t-183.5 128t-115.5 193.5t-40 243q0 208 67.5 373t188.5 286q98 98 226.5 155.5t291.5 57.5q132 0 238.5 -45t181.5 -126t115.5 -192
t40.5 -243zM1309 846q0 107 -29 192t-83 145t-130 92t-170 32q-111 0 -212 -48t-179 -133q-44 -48 -79.5 -110t-61 -132t-39 -146t-13.5 -154q0 -100 27.5 -184t80 -144.5t129.5 -94.5t177 -34q111 0 212.5 44.5t178.5 131.5q48 54 83.5 120.5t59.5 138t36 144.5t12 140z
M668 1567l16 108h508l-16 -108h-508z" />
    <glyph glyph-name="omacron" unicode="&#x14d;" horiz-adv-x="1096" 
d="M1018 645q0 -136 -38.5 -258t-111 -213.5t-176 -145t-233.5 -53.5q-88 0 -158.5 28t-120 80.5t-76 127t-26.5 168.5q0 141 40.5 263.5t114 213t176 142t226.5 51.5q87 0 157.5 -28t120.5 -80.5t77.5 -127t27.5 -168.5zM850 637q0 65 -16 115.5t-45 85t-70 53t-92 18.5
q-88 0 -159 -45t-120 -118.5t-75.5 -167t-26.5 -191.5q0 -62 15.5 -112.5t44 -86t70 -54.5t93.5 -19q89 0 160 44.5t120 118t75 167.5t26 192zM393 1219l16 108h508l-16 -108h-508z" />
    <glyph glyph-name="Obreve" unicode="&#x14e;" horiz-adv-x="1544" 
d="M1487 852q0 -93 -17 -184.5t-49 -176.5t-78.5 -161t-105.5 -137q-48 -50 -104 -90.5t-120 -69t-137 -43.5t-157 -15q-135 0 -243 46.5t-183.5 128t-115.5 193.5t-40 243q0 208 67.5 373t188.5 286q98 98 226.5 155.5t291.5 57.5q132 0 238.5 -45t181.5 -126t115.5 -192
t40.5 -243zM1309 846q0 107 -29 192t-83 145t-130 92t-170 32q-111 0 -212 -48t-179 -133q-44 -48 -79.5 -110t-61 -132t-39 -146t-13.5 -154q0 -100 27.5 -184t80 -144.5t129.5 -94.5t177 -34q111 0 212.5 44.5t178.5 131.5q48 54 83.5 120.5t59.5 138t36 144.5t12 140z
M1272 1822q-18 -60 -48.5 -107t-72 -80t-91.5 -50t-107 -17q-55 0 -100.5 16t-77 44.5t-49 68t-17.5 86.5q0 12 1.5 20t4.5 19h105q-2 -7 -2 -13v-14q0 -60 38.5 -93.5t100.5 -33.5q77 0 128 37.5t77 116.5h110z" />
    <glyph glyph-name="obreve" unicode="&#x14f;" horiz-adv-x="1096" 
d="M1018 645q0 -136 -38.5 -258t-111 -213.5t-176 -145t-233.5 -53.5q-88 0 -158.5 28t-120 80.5t-76 127t-26.5 168.5q0 141 40.5 263.5t114 213t176 142t226.5 51.5q87 0 157.5 -28t120.5 -80.5t77.5 -127t27.5 -168.5zM850 637q0 65 -16 115.5t-45 85t-70 53t-92 18.5
q-88 0 -159 -45t-120 -118.5t-75.5 -167t-26.5 -191.5q0 -62 15.5 -112.5t44 -86t70 -54.5t93.5 -19q89 0 160 44.5t120 118t75 167.5t26 192zM1003 1473q-18 -60 -48.5 -107t-72 -80t-91.5 -50t-107 -17q-55 0 -100.5 16t-77 44.5t-49 68t-17.5 86.5q0 12 1.5 20t4.5 19
h105q-2 -7 -2 -13v-14q0 -60 38.5 -93.5t100.5 -33.5q77 0 128 37.5t77 116.5h110z" />
    <glyph glyph-name="Ohungarumlaut" unicode="&#x150;" horiz-adv-x="1544" 
d="M1487 852q0 -93 -17 -184.5t-49 -176.5t-78.5 -161t-105.5 -137q-48 -50 -104 -90.5t-120 -69t-137 -43.5t-157 -15q-135 0 -243 46.5t-183.5 128t-115.5 193.5t-40 243q0 208 67.5 373t188.5 286q98 98 226.5 155.5t291.5 57.5q132 0 238.5 -45t181.5 -126t115.5 -192
t40.5 -243zM1309 846q0 107 -29 192t-83 145t-130 92t-170 32q-111 0 -212 -48t-179 -133q-44 -48 -79.5 -110t-61 -132t-39 -146t-13.5 -154q0 -100 27.5 -184t80 -144.5t129.5 -94.5t177 -34q111 0 212.5 44.5t178.5 131.5q48 54 83.5 120.5t59.5 138t36 144.5t12 140z
M1041 1568h-102l247 325h142zM785 1568h-102l249 325h136z" />
    <glyph glyph-name="ohungarumlaut" unicode="&#x151;" horiz-adv-x="1096" 
d="M1018 645q0 -136 -38.5 -258t-111 -213.5t-176 -145t-233.5 -53.5q-88 0 -158.5 28t-120 80.5t-76 127t-26.5 168.5q0 141 40.5 263.5t114 213t176 142t226.5 51.5q87 0 157.5 -28t120.5 -80.5t77.5 -127t27.5 -168.5zM850 637q0 65 -16 115.5t-45 85t-70 53t-92 18.5
q-88 0 -159 -45t-120 -118.5t-75.5 -167t-26.5 -191.5q0 -62 15.5 -112.5t44 -86t70 -54.5t93.5 -19q89 0 160 44.5t120 118t75 167.5t26 192zM808 1219h-102l247 325h142zM552 1219h-102l249 325h136z" />
    <glyph glyph-name="OE" unicode="&#x152;" horiz-adv-x="1892" 
d="M1942 1282h-553l-105 -489h514l-33 -152h-514l-104 -489h588l-31 -152h-676q-35 0 -71 -4t-74 -8.5t-80 -8.5t-90 -4q-135 0 -242.5 46.5t-182.5 128.5t-115 194t-40 242q0 208 67.5 373t188.5 286q98 98 228 155.5t301 57.5q62 0 116 -3.5t102.5 -8t92 -8.5t84.5 -4h661
zM1214 1274q-52 15 -127 24t-182 9q-121 0 -222.5 -46.5t-176.5 -130.5q-44 -47 -80 -108t-61.5 -131.5t-39.5 -148t-14 -158.5q0 -96 26 -179.5t78 -145t130.5 -97t183.5 -35.5q71 0 132.5 10.5t117.5 26.5z" />
    <glyph glyph-name="oe" unicode="&#x153;" horiz-adv-x="1743" 
d="M1706 784q0 -81 -36 -147.5t-119 -114t-220 -73.5t-338 -27q0 -11 -1 -23.5t-1 -23.5q0 -51 15 -98t46.5 -83t81 -57.5t117.5 -21.5q35 0 73.5 7t79 20t81 32t78.5 43l-31 -162q-56 -32 -132.5 -56t-170.5 -24q-77 0 -136 18t-102 50t-71.5 76.5t-45.5 97.5h-4
q-72 -112 -177.5 -177t-233.5 -65q-88 0 -158.5 28t-120 80.5t-76 127t-26.5 168.5q0 141 40.5 263.5t114 213t176 142t226.5 51.5q64 0 117 -17.5t94.5 -49.5t71 -76t45.5 -97h4q37 54 81.5 98.5t96.5 76t111.5 48.5t125.5 17q79 0 139.5 -21t101.5 -57.5t62 -84.5t21 -102
zM1538 772q0 68 -47.5 102.5t-122.5 34.5q-60 0 -117 -25.5t-104.5 -71.5t-82.5 -110.5t-52 -142.5q157 0 258.5 17t161 46.5t83 68t23.5 81.5zM844 637q0 130 -57 201t-160 71q-88 0 -159 -45t-120 -118.5t-75.5 -167t-26.5 -191.5q0 -62 15.5 -112.5t44 -86t70 -54.5
t93.5 -19q89 0 159 44.5t118 118t73 167.5t25 192z" />
    <glyph glyph-name="Racute" unicode="&#x154;" horiz-adv-x="1192" 
d="M1169 1079q0 -93 -32.5 -168t-89.5 -129t-136 -86.5t-172 -40.5v-4q47 -15 82.5 -63t57.5 -129l120 -459h-184l-106 428q-23 94 -73.5 138t-133.5 44h-125l-131 -610h-172l303 1434h395q105 0 180 -28t123 -76.5t71 -113t23 -137.5zM993 1061q0 48 -15 88.5t-46 70
t-79 46t-114 16.5h-221l-110 -520h198q105 0 178.5 25t120 66t67.5 95.5t21 112.5zM758 1567h-123l289 327h161z" />
    <glyph glyph-name="racute" unicode="&#x155;" horiz-adv-x="727" 
d="M766 850h-4q-20 12 -52.5 23.5t-64.5 11.5q-58 0 -111 -37.5t-96.5 -99t-76 -140.5t-50.5 -162l-96 -446h-164l144 680q9 42 18 88t16.5 92t13.5 88t9 76h162q-3 -30 -7 -63.5t-8 -65t-8 -57t-6 -39.5h4q32 57 65 103t69.5 78.5t77.5 50.5t89 18q28 0 55.5 -5.5
t49.5 -11.5zM575 1219h-123l289 327h161z" />
    <glyph glyph-name="Rcommaaccent" unicode="&#x156;" horiz-adv-x="1192" 
d="M1169 1079q0 -93 -32.5 -168t-89.5 -129t-136 -86.5t-172 -40.5v-4q47 -15 82.5 -63t57.5 -129l120 -459h-184l-106 428q-23 94 -73.5 138t-133.5 44h-125l-131 -610h-172l303 1434h395q105 0 180 -28t123 -76.5t71 -113t23 -137.5zM993 1061q0 48 -15 88.5t-46 70
t-79 46t-114 16.5h-221l-110 -520h198q105 0 178.5 25t120 66t67.5 95.5t21 112.5zM629 -119l-166 -260h-123l117 260h172z" />
    <glyph glyph-name="rcommaaccent" unicode="&#x157;" horiz-adv-x="727" 
d="M766 850h-4q-20 12 -52.5 23.5t-64.5 11.5q-58 0 -111 -37.5t-96.5 -99t-76 -140.5t-50.5 -162l-96 -446h-164l144 680q9 42 18 88t16.5 92t13.5 88t9 76h162q-3 -30 -7 -63.5t-8 -65t-8 -57t-6 -39.5h4q32 57 65 103t69.5 78.5t77.5 50.5t89 18q28 0 55.5 -5.5
t49.5 -11.5zM451 -119l-166 -260h-123l117 260h172z" />
    <glyph glyph-name="Rcaron" unicode="&#x158;" horiz-adv-x="1192" 
d="M1169 1079q0 -93 -32.5 -168t-89.5 -129t-136 -86.5t-172 -40.5v-4q47 -15 82.5 -63t57.5 -129l120 -459h-184l-106 428q-23 94 -73.5 138t-133.5 44h-125l-131 -610h-172l303 1434h395q105 0 180 -28t123 -76.5t71 -113t23 -137.5zM993 1061q0 48 -15 88.5t-46 70
t-79 46t-114 16.5h-221l-110 -520h198q105 0 178.5 25t120 66t67.5 95.5t21 112.5zM802 1567h-135l-145 331h112l115 -231l215 231h119z" />
    <glyph glyph-name="rcaron" unicode="&#x159;" horiz-adv-x="727" 
d="M766 850h-4q-20 12 -52.5 23.5t-64.5 11.5q-58 0 -111 -37.5t-96.5 -99t-76 -140.5t-50.5 -162l-96 -446h-164l144 680q9 42 18 88t16.5 92t13.5 88t9 76h162q-3 -30 -7 -63.5t-8 -65t-8 -57t-6 -39.5h4q32 57 65 103t69.5 78.5t77.5 50.5t89 18q28 0 55.5 -5.5
t49.5 -11.5zM591 1219h-135l-145 331h112l115 -231l215 231h119z" />
    <glyph glyph-name="Sacute" unicode="&#x15a;" horiz-adv-x="1018" 
d="M991 1219q-25 18 -59.5 34t-74 28t-82.5 19t-85 7q-80 0 -134.5 -22.5t-87.5 -57t-47.5 -75.5t-14.5 -77q0 -47 13 -85t39 -73t67 -70t96 -75q62 -45 110.5 -89t82.5 -90.5t51.5 -98t17.5 -111.5q0 -37 -7.5 -81.5t-27 -89.5t-53.5 -88t-86.5 -76t-126.5 -53t-174 -20
q-56 0 -110 8t-102.5 21t-89 29.5t-69.5 32.5l29 174q32 -23 73 -43.5t87 -36t95 -24.5t97 -9q76 0 130.5 18t90 49.5t52 74.5t16.5 93q0 45 -14 81t-43 70.5t-73.5 70t-105.5 78.5q-49 35 -93.5 75.5t-78 88.5t-53 104.5t-19.5 122.5q0 82 30.5 155.5t90.5 129t148.5 88
t205.5 32.5q45 0 89.5 -5.5t86.5 -15t79.5 -21t66.5 -23.5zM726 1566h-123l289 327h161z" />
    <glyph glyph-name="sacute" unicode="&#x15b;" horiz-adv-x="809" 
d="M725 844q-45 29 -101 47t-112 18q-94 0 -145.5 -43t-51.5 -114q0 -29 9.5 -53t28 -45.5t47 -41.5t65.5 -43q112 -65 161.5 -133.5t49.5 -154.5q0 -58 -21.5 -113.5t-68.5 -98t-121.5 -68.5t-181.5 -26q-30 0 -66 4t-72.5 12t-70 19.5t-58.5 26.5l33 156q20 -14 49.5 -28
t64 -25t72 -18t74.5 -7q100 0 149.5 40t49.5 111q0 26 -7.5 48t-26.5 44t-50 44.5t-78 50.5q-102 62 -150.5 129.5t-48.5 152.5q0 62 23 118.5t68.5 100t114.5 69.5t161 26q72 0 136.5 -14t109.5 -36zM578 1219h-123l289 327h161z" />
    <glyph glyph-name="Scircumflex" unicode="&#x15c;" horiz-adv-x="1018" 
d="M991 1219q-25 18 -59.5 34t-74 28t-82.5 19t-85 7q-80 0 -134.5 -22.5t-87.5 -57t-47.5 -75.5t-14.5 -77q0 -47 13 -85t39 -73t67 -70t96 -75q62 -45 110.5 -89t82.5 -90.5t51.5 -98t17.5 -111.5q0 -37 -7.5 -81.5t-27 -89.5t-53.5 -88t-86.5 -76t-126.5 -53t-174 -20
q-56 0 -110 8t-102.5 21t-89 29.5t-69.5 32.5l29 174q32 -23 73 -43.5t87 -36t95 -24.5t97 -9q76 0 130.5 18t90 49.5t52 74.5t16.5 93q0 45 -14 81t-43 70.5t-73.5 70t-105.5 78.5q-49 35 -93.5 75.5t-78 88.5t-53 104.5t-19.5 122.5q0 82 30.5 155.5t90.5 129t148.5 88
t205.5 32.5q45 0 89.5 -5.5t86.5 -15t79.5 -21t66.5 -23.5zM904 1567l-114 231l-213 -231h-121l283 331h133l145 -331h-113z" />
    <glyph glyph-name="scircumflex" unicode="&#x15d;" horiz-adv-x="809" 
d="M725 844q-45 29 -101 47t-112 18q-94 0 -145.5 -43t-51.5 -114q0 -29 9.5 -53t28 -45.5t47 -41.5t65.5 -43q112 -65 161.5 -133.5t49.5 -154.5q0 -58 -21.5 -113.5t-68.5 -98t-121.5 -68.5t-181.5 -26q-30 0 -66 4t-72.5 12t-70 19.5t-58.5 26.5l33 156q20 -14 49.5 -28
t64 -25t72 -18t74.5 -7q100 0 149.5 40t49.5 111q0 26 -7.5 48t-26.5 44t-50 44.5t-78 50.5q-102 62 -150.5 129.5t-48.5 152.5q0 62 23 118.5t68.5 100t114.5 69.5t161 26q72 0 136.5 -14t109.5 -36zM730 1219l-114 231l-213 -231h-121l283 331h133l145 -331h-113z" />
    <glyph glyph-name="Scedilla" unicode="&#x15e;" horiz-adv-x="1018" 
d="M616 -238q0 -89 -75 -142.5t-218 -53.5q-20 0 -43 1.5t-45 4.5l18 88q41 -6 76 -6q87 0 128.5 25t41.5 67q0 35 -28.5 55.5t-90.5 20.5q-14 0 -27.5 -1t-27.5 -3l34 159q-31 2 -61 6q-54 8 -102.5 21t-89 29.5t-69.5 32.5l29 174q32 -23 73 -43.5t87 -36t95 -24.5t97 -9
q76 0 130.5 18t90 49.5t52 74.5t16.5 93q0 45 -14 81t-43 70.5t-73.5 70t-105.5 78.5q-49 35 -93.5 75.5t-78 88.5t-53 104.5t-19.5 122.5q0 82 30.5 155.5t90.5 129t148.5 88t205.5 32.5q45 0 89.5 -5.5t86.5 -15t79.5 -21t66.5 -23.5l-33 -174q-25 18 -59.5 34t-74 28
t-82.5 19t-85 7q-80 0 -134.5 -22.5t-87.5 -57t-47.5 -75.5t-14.5 -77q0 -47 13 -85t39 -73t67 -70t96 -75q62 -45 110.5 -89t82.5 -90.5t51.5 -98t17.5 -111.5q0 -37 -7.5 -81.5t-27 -89.5t-53.5 -88t-86.5 -76t-126.5 -53q-56 -15 -128 -19l-18 -80q37 0 69.5 -8.5
t57 -25.5t39 -42t14.5 -58z" />
    <glyph glyph-name="scedilla" unicode="&#x15f;" horiz-adv-x="809" 
d="M497 -238q0 -89 -75 -142.5t-218 -53.5q-20 0 -43 1.5t-45 4.5l18 88q41 -6 76 -6q87 0 128.5 25t41.5 67q0 35 -28.5 55.5t-90.5 20.5q-14 0 -27.5 -1t-27.5 -3l34 159q-11 1 -23 2q-36 4 -72.5 12t-70 19.5t-58.5 26.5l33 156q20 -14 49.5 -28t64 -25t72 -18t74.5 -7
q100 0 149.5 40t49.5 111q0 26 -7.5 48t-26.5 44t-50 44.5t-78 50.5q-102 62 -150.5 129.5t-48.5 152.5q0 62 23 118.5t68.5 100t114.5 69.5t161 26q72 0 136.5 -14t109.5 -36l-35 -155q-45 29 -101 47t-112 18q-94 0 -145.5 -43t-51.5 -114q0 -29 9.5 -53t28 -45.5
t47 -41.5t65.5 -43q112 -65 161.5 -133.5t49.5 -154.5q0 -58 -21.5 -113.5t-68.5 -98t-122 -68.5q-55 -19 -129 -24l-18 -81q37 0 69.5 -8.5t57 -25.5t39 -42t14.5 -58z" />
    <glyph glyph-name="Scaron" unicode="&#x160;" horiz-adv-x="1018" 
d="M991 1219q-25 18 -59.5 34t-74 28t-82.5 19t-85 7q-80 0 -134.5 -22.5t-87.5 -57t-47.5 -75.5t-14.5 -77q0 -47 13 -85t39 -73t67 -70t96 -75q62 -45 110.5 -89t82.5 -90.5t51.5 -98t17.5 -111.5q0 -37 -7.5 -81.5t-27 -89.5t-53.5 -88t-86.5 -76t-126.5 -53t-174 -20
q-56 0 -110 8t-102.5 21t-89 29.5t-69.5 32.5l29 174q32 -23 73 -43.5t87 -36t95 -24.5t97 -9q76 0 130.5 18t90 49.5t52 74.5t16.5 93q0 45 -14 81t-43 70.5t-73.5 70t-105.5 78.5q-49 35 -93.5 75.5t-78 88.5t-53 104.5t-19.5 122.5q0 82 30.5 155.5t90.5 129t148.5 88
t205.5 32.5q45 0 89.5 -5.5t86.5 -15t79.5 -21t66.5 -23.5zM790 1567h-135l-145 331h112l115 -231l215 231h119z" />
    <glyph glyph-name="scaron" unicode="&#x161;" horiz-adv-x="809" 
d="M725 844q-45 29 -101 47t-112 18q-94 0 -145.5 -43t-51.5 -114q0 -29 9.5 -53t28 -45.5t47 -41.5t65.5 -43q112 -65 161.5 -133.5t49.5 -154.5q0 -58 -21.5 -113.5t-68.5 -98t-121.5 -68.5t-181.5 -26q-30 0 -66 4t-72.5 12t-70 19.5t-58.5 26.5l33 156q20 -14 49.5 -28
t64 -25t72 -18t74.5 -7q100 0 149.5 40t49.5 111q0 26 -7.5 48t-26.5 44t-50 44.5t-78 50.5q-102 62 -150.5 129.5t-48.5 152.5q0 62 23 118.5t68.5 100t114.5 69.5t161 26q72 0 136.5 -14t109.5 -36zM610 1219h-135l-145 331h112l115 -231l215 231h119z" />
    <glyph glyph-name="Tcedilla" unicode="&#x162;" horiz-adv-x="1077" 
d="M614 -238q0 -89 -75 -142.5t-218 -53.5q-20 0 -43 1.5t-45 4.5l18 88q41 -6 76 -6q87 0 128.5 25t41.5 67q0 35 -28.5 55.5t-90.5 20.5q-14 0 -27.5 -1t-27.5 -3l39 182h-22l272 1282h-417l32 152h996l-33 -152h-408l-270 -1282h-54l-24 -104q37 0 69.5 -8.5t57 -25.5
t39 -42t14.5 -58z" />
    <glyph glyph-name="tcedilla" unicode="&#x163;" horiz-adv-x="662" 
d="M495 -238q0 -89 -75 -142.5t-218 -53.5q-20 0 -43 1.5t-45 4.5l18 88q41 -6 76 -6q87 0 128.5 25t41.5 67q0 35 -28.5 55.5t-90.5 20.5q-14 0 -27.5 -1t-27.5 -3l38 179q-38 15 -63 41q-25 27 -36.5 65.5t-11.5 86.5q0 29 5.5 67.5t13.5 70.5l118 557h-170l31 139h168
l53 250q4 2 30.5 9.5t58 17t58 17.5t29.5 9l-63 -303h258l-31 -139h-258l-115 -543q-6 -31 -12 -67t-6 -58q0 -51 22.5 -73.5t71.5 -22.5q12 0 31 4t39 10t39.5 13.5t34.5 13.5l-31 -144q-35 -15 -79.5 -25.5t-84.5 -10.5h-7l-20 -86q37 0 69.5 -8.5t57 -25.5t39 -42
t14.5 -58z" />
    <glyph glyph-name="Tcaron" unicode="&#x164;" horiz-adv-x="1077" 
d="M1190 1282h-408l-270 -1282h-172l272 1282h-417l32 152h996zM811 1567h-135l-145 331h112l115 -231l215 231h119z" />
    <glyph glyph-name="tcaron" unicode="&#x165;" horiz-adv-x="745" 
d="M690 885h-258l-115 -543q-6 -31 -12 -67t-6 -58q0 -51 22.5 -73.5t71.5 -22.5q12 0 31 4t39 10t39.5 13.5t34.5 13.5l-31 -144q-35 -15 -79.5 -25.5t-84.5 -10.5q-57 0 -97 14.5t-65.5 41.5t-37 65.5t-11.5 86.5q0 29 5.5 67.5t13.5 70.5l118 557h-170l31 139h168l53 250
q4 2 30.5 9.5t58 17t58 17.5t29.5 9l-63 -303h258zM1049 1516l-221 -260h-123l172 260h172z" />
    <glyph glyph-name="Tbar" unicode="&#x166;" horiz-adv-x="1073" 
d="M1190 1282h-408l-103 -489h244l-34 -152h-242l-135 -641h-172l136 641h-250l34 152h248l104 489h-417l32 152h996z" />
    <glyph glyph-name="tbar" unicode="&#x167;" horiz-adv-x="662" 
d="M690 885h-258l-44 -205h248l-28 -133h-248l-43 -205q-6 -31 -12 -67t-6 -58q0 -51 22.5 -73.5t71.5 -22.5q12 0 31 4t39 10t39.5 13.5t34.5 13.5l-31 -144q-35 -15 -79.5 -25.5t-84.5 -10.5q-57 0 -97 14.5t-65.5 41.5t-37 65.5t-11.5 86.5q0 29 5.5 67.5t13.5 70.5
l46 219h-164l28 133h164l44 205h-170l31 139h168l53 250q4 2 30.5 9.5t58 17t58 17.5t29.5 9l-63 -303h258z" />
    <glyph glyph-name="Utilde" unicode="&#x168;" horiz-adv-x="1411" 
d="M1247 563q-30 -140 -75.5 -249.5t-117 -184.5t-174.5 -114.5t-247 -39.5q-111 0 -198 35t-146 96t-90 144t-31 180q0 43 5.5 97t14.5 102l174 805h173l-173 -795q-4 -23 -8.5 -50t-8 -54t-5.5 -51t-2 -42q0 -80 24 -139t66.5 -98t100 -58.5t124.5 -19.5q85 0 152 24
t118 75t87.5 130t60.5 189l191 889h172zM1265 1806q-3 -45 -20.5 -85t-46 -70t-67 -47t-83.5 -17q-48 0 -80.5 14.5t-58 31.5t-49 31.5t-54.5 14.5q-51 0 -80.5 -33t-34.5 -79h-96q3 48 21.5 89t48.5 70t70.5 45.5t87.5 16.5q44 0 73.5 -15t54.5 -33.5t49.5 -33.5t57.5 -15
q22 0 41 9t34 24.5t24 36.5t12 45h96z" />
    <glyph glyph-name="utilde" unicode="&#x169;" horiz-adv-x="1143" 
d="M930 291q-9 -39 -16.5 -81t-14.5 -81t-12 -73t-8 -56h-160q5 39 11.5 81.5t12.5 78.5q7 42 13 82h-4q-35 -55 -77.5 -103.5t-92 -85t-105 -57.5t-115.5 -21q-66 0 -115.5 20.5t-82.5 57.5t-49.5 89t-16.5 116q0 13 4 39t9 56t11.5 59.5t10.5 50.5l119 561h166l-127 -600
q-4 -16 -8 -37t-7.5 -42t-5.5 -38.5t-2 -27.5q0 -75 36.5 -119.5t109.5 -44.5q44 0 88 18t85.5 48.5t78.5 71t67 86t51 93.5t31 92l107 500h165zM1034 1458q-3 -45 -20.5 -85t-46 -70t-67 -47t-83.5 -17q-48 0 -80.5 14.5t-58 31.5t-49 31.5t-54.5 14.5q-51 0 -80.5 -33
t-34.5 -79h-96q3 48 21.5 89t48.5 70t70.5 45.5t87.5 16.5q44 0 73.5 -15t54.5 -33.5t49.5 -33.5t57.5 -15q22 0 41 9t34 24.5t24 36.5t12 45h96z" />
    <glyph glyph-name="Umacron" unicode="&#x16a;" horiz-adv-x="1411" 
d="M1247 563q-30 -140 -75.5 -249.5t-117 -184.5t-174.5 -114.5t-247 -39.5q-111 0 -198 35t-146 96t-90 144t-31 180q0 43 5.5 97t14.5 102l174 805h173l-173 -795q-4 -23 -8.5 -50t-8 -54t-5.5 -51t-2 -42q0 -80 24 -139t66.5 -98t100 -58.5t124.5 -19.5q85 0 152 24
t118 75t87.5 130t60.5 189l191 889h172zM652 1566l16 108h508l-16 -108h-508z" />
    <glyph glyph-name="umacron" unicode="&#x16b;" horiz-adv-x="1143" 
d="M930 291q-9 -39 -16.5 -81t-14.5 -81t-12 -73t-8 -56h-160q5 39 11.5 81.5t12.5 78.5q7 42 13 82h-4q-35 -55 -77.5 -103.5t-92 -85t-105 -57.5t-115.5 -21q-66 0 -115.5 20.5t-82.5 57.5t-49.5 89t-16.5 116q0 13 4 39t9 56t11.5 59.5t10.5 50.5l119 561h166l-127 -600
q-4 -16 -8 -37t-7.5 -42t-5.5 -38.5t-2 -27.5q0 -75 36.5 -119.5t109.5 -44.5q44 0 88 18t85.5 48.5t78.5 71t67 86t51 93.5t31 92l107 500h165zM443 1219l16 108h508l-16 -108h-508z" />
    <glyph glyph-name="Ubreve" unicode="&#x16c;" horiz-adv-x="1411" 
d="M1247 563q-30 -140 -75.5 -249.5t-117 -184.5t-174.5 -114.5t-247 -39.5q-111 0 -198 35t-146 96t-90 144t-31 180q0 43 5.5 97t14.5 102l174 805h173l-173 -795q-4 -23 -8.5 -50t-8 -54t-5.5 -51t-2 -42q0 -80 24 -139t66.5 -98t100 -58.5t124.5 -19.5q85 0 152 24
t118 75t87.5 130t60.5 189l191 889h172zM1218 1821q-18 -60 -48.5 -107t-72 -80t-91.5 -50t-107 -17q-55 0 -100.5 16t-77 44.5t-49 68t-17.5 86.5q0 12 1.5 20t4.5 19h105q-2 -7 -2 -13v-14q0 -60 38.5 -93.5t100.5 -33.5q77 0 128 37.5t77 116.5h110z" />
    <glyph glyph-name="ubreve" unicode="&#x16d;" horiz-adv-x="1143" 
d="M930 291q-9 -39 -16.5 -81t-14.5 -81t-12 -73t-8 -56h-160q5 39 11.5 81.5t12.5 78.5q7 42 13 82h-4q-35 -55 -77.5 -103.5t-92 -85t-105 -57.5t-115.5 -21q-66 0 -115.5 20.5t-82.5 57.5t-49.5 89t-16.5 116q0 13 4 39t9 56t11.5 59.5t10.5 50.5l119 561h166l-127 -600
q-4 -16 -8 -37t-7.5 -42t-5.5 -38.5t-2 -27.5q0 -75 36.5 -119.5t109.5 -44.5q44 0 88 18t85.5 48.5t78.5 71t67 86t51 93.5t31 92l107 500h165zM1013 1473q-18 -60 -48.5 -107t-72 -80t-91.5 -50t-107 -17q-55 0 -100.5 16t-77 44.5t-49 68t-17.5 86.5q0 12 1.5 20t4.5 19
h105q-2 -7 -2 -13v-14q0 -60 38.5 -93.5t100.5 -33.5q77 0 128 37.5t77 116.5h110z" />
    <glyph glyph-name="Uring" unicode="&#x16e;" horiz-adv-x="1411" 
d="M1247 563q-30 -140 -75.5 -249.5t-117 -184.5t-174.5 -114.5t-247 -39.5q-111 0 -198 35t-146 96t-90 144t-31 180q0 43 5.5 97t14.5 102l174 805h173l-173 -795q-4 -23 -8.5 -50t-8 -54t-5.5 -51t-2 -42q0 -80 24 -139t66.5 -98t100 -58.5t124.5 -19.5q85 0 152 24
t118 75t87.5 130t60.5 189l191 889h172zM1127 1765q0 -42 -16 -78t-44 -63t-66 -42t-81 -15t-80 13.5t-64.5 38.5t-43 60t-15.5 78q0 46 16.5 83t44.5 62.5t66.5 39.5t81.5 14q45 0 82 -14t63.5 -39.5t41 -60.5t14.5 -77zM1035 1763q0 25 -9 45.5t-24.5 35t-36.5 22.5t-45 8
q-49 0 -80.5 -31.5t-31.5 -79.5q0 -54 32 -84.5t80 -30.5q25 0 46 9t36.5 25t24 36.5t8.5 44.5z" />
    <glyph glyph-name="uring" unicode="&#x16f;" horiz-adv-x="1143" 
d="M930 291q-9 -39 -16.5 -81t-14.5 -81t-12 -73t-8 -56h-160q5 39 11.5 81.5t12.5 78.5q7 42 13 82h-4q-35 -55 -77.5 -103.5t-92 -85t-105 -57.5t-115.5 -21q-66 0 -115.5 20.5t-82.5 57.5t-49.5 89t-16.5 116q0 13 4 39t9 56t11.5 59.5t10.5 50.5l119 561h166l-127 -600
q-4 -16 -8 -37t-7.5 -42t-5.5 -38.5t-2 -27.5q0 -75 36.5 -119.5t109.5 -44.5q44 0 88 18t85.5 48.5t78.5 71t67 86t51 93.5t31 92l107 500h165zM919 1374q0 -42 -16 -78t-44 -63t-66 -42t-81 -15t-80 13.5t-64.5 38.5t-43 60t-15.5 78q0 46 16.5 83t44.5 62.5t66.5 39.5
t81.5 14q45 0 82 -14t63.5 -39.5t41 -60.5t14.5 -77zM827 1372q0 25 -9 45.5t-24.5 35t-36.5 22.5t-45 8q-49 0 -80.5 -31.5t-31.5 -79.5q0 -54 32 -84.5t80 -30.5q25 0 46 9t36.5 25t24 36.5t8.5 44.5z" />
    <glyph glyph-name="Uhungarumlaut" unicode="&#x170;" horiz-adv-x="1411" 
d="M1247 563q-30 -140 -75.5 -249.5t-117 -184.5t-174.5 -114.5t-247 -39.5q-111 0 -198 35t-146 96t-90 144t-31 180q0 43 5.5 97t14.5 102l174 805h173l-173 -795q-4 -23 -8.5 -50t-8 -54t-5.5 -51t-2 -42q0 -80 24 -139t66.5 -98t100 -58.5t124.5 -19.5q85 0 152 24
t118 75t87.5 130t60.5 189l191 889h172zM1000 1567h-102l247 325h142zM744 1567h-102l249 325h136z" />
    <glyph glyph-name="uhungarumlaut" unicode="&#x171;" horiz-adv-x="1143" 
d="M930 291q-9 -39 -16.5 -81t-14.5 -81t-12 -73t-8 -56h-160q5 39 11.5 81.5t12.5 78.5q7 42 13 82h-4q-35 -55 -77.5 -103.5t-92 -85t-105 -57.5t-115.5 -21q-66 0 -115.5 20.5t-82.5 57.5t-49.5 89t-16.5 116q0 13 4 39t9 56t11.5 59.5t10.5 50.5l119 561h166l-127 -600
q-4 -16 -8 -37t-7.5 -42t-5.5 -38.5t-2 -27.5q0 -75 36.5 -119.5t109.5 -44.5q44 0 88 18t85.5 48.5t78.5 71t67 86t51 93.5t31 92l107 500h165zM818 1219h-102l247 325h142zM562 1219h-102l249 325h136z" />
    <glyph glyph-name="Uogonek" unicode="&#x172;" horiz-adv-x="1411" 
d="M1247 563q-30 -140 -75.5 -249.5t-117 -184.5t-174.5 -115q-94 -35 -221 -39q-34 -32 -60 -58q-36 -36 -58 -65.5t-32 -54t-10 -47.5q0 -80 80 -80q23 0 48.5 8.5t41.5 16.5l-15 -103q-18 -9 -46 -15.5t-62 -6.5q-82 0 -122 41.5t-40 114.5q0 27 10 56.5t33 63t61 72.5
q29 29 70 62q-67 8 -123 30q-87 35 -146 96t-90 144t-31 180q0 43 5.5 97t14.5 102l174 805h173l-173 -795q-4 -23 -8.5 -50t-8 -54t-5.5 -51t-2 -42q0 -80 24 -139t66.5 -98t100 -58.5t124.5 -19.5q85 0 152 24t118 75t87.5 130t60.5 189l191 889h172z" />
    <glyph glyph-name="uogonek" unicode="&#x173;" horiz-adv-x="1143" 
d="M822 0q-52 -47 -88 -83t-58 -65.5t-32 -54t-10 -47.5q0 -80 80 -80q23 0 48.5 8.5t41.5 16.5l-15 -103q-18 -9 -46 -15.5t-62 -6.5q-82 0 -122 41.5t-40 114.5q0 27 10 56.5t33 63t61.5 72t96.5 82.5h-1q5 39 11.5 81.5t12.5 78.5q7 42 13 82h-4q-35 -55 -77.5 -103.5
t-92 -85t-105 -57.5t-115.5 -21q-66 0 -115.5 20.5t-82.5 57.5t-49.5 89t-16.5 116q0 13 4 39t9 56t11.5 59.5t10.5 50.5l119 561h166l-127 -600q-4 -16 -8 -37t-7.5 -42t-5.5 -38.5t-2 -27.5q0 -75 36.5 -119.5t109.5 -44.5q44 0 88 18t85.5 48.5t78.5 71t67 86t51 93.5
t31 92l107 500h165l-157 -733q-9 -39 -16.5 -81t-14.5 -81t-12 -73t-8 -56h-57z" />
    <glyph glyph-name="Wcircumflex" unicode="&#x174;" horiz-adv-x="1903" 
d="M1362 0h-178l-92 1063q-2 31 0.5 70t5.5 73h-4q-10 -32 -25 -72t-31 -69l-544 -1065h-183l-114 1434h178l74 -1092q2 -34 0 -73t-7 -70h4q5 14 12 32t15 37.5t16.5 38.5t16.5 35l557 1092h154l90 -1100q3 -28 2 -66t-4 -69h4q5 16 11.5 34.5t14 37t15 36t14.5 31.5
l526 1096h187zM1309 1567l-114 231l-213 -231h-121l283 331h133l145 -331h-113z" />
    <glyph glyph-name="wcircumflex" unicode="&#x175;" horiz-adv-x="1475" 
d="M1024 0h-162l-59 727q-1 9 -1 23t0.5 28t2 27.5t2.5 21.5h-4q-3 -10 -8 -23t-11 -27.5t-12.5 -28t-11.5 -23.5l-383 -725h-162l-90 1024h158l49 -766q2 -22 0.5 -47.5t-4.5 -48.5h6q8 23 18.5 51.5t20.5 48.5l399 762h146l57 -768q2 -23 -0.5 -49.5t-5.5 -46.5h8
q2 10 6.5 22.5t9.5 26t10.5 26.5t10.5 23l368 766h166zM1042 1219l-114 231l-213 -231h-121l283 331h133l145 -331h-113z" />
    <glyph glyph-name="Ycircumflex" unicode="&#x176;" horiz-adv-x="1135" 
d="M651 545l-114 -545h-172l114 541l-268 893h182l178 -660q7 -23 11.5 -46.5t7.5 -39.5h2q8 16 22 38.5t29 45.5l477 662h193zM919 1566l-114 231l-213 -231h-121l283 331h133l145 -331h-113z" />
    <glyph glyph-name="ycircumflex" unicode="&#x177;" horiz-adv-x="991" 
d="M367 -170q-46 -75 -93 -132.5t-98.5 -97.5t-110 -60.5t-128.5 -20.5q-23 0 -51.5 4.5t-45.5 9.5l31 145q15 -8 39 -13t47 -5q69 0 124.5 38t104.5 116l123 190l-186 1020h170l119 -786q3 -22 3.5 -42.5t-1.5 -35.5h6q5 12 15.5 34t23.5 42l454 788h181zM798 1219
l-114 231l-213 -231h-121l283 331h133l145 -331h-113z" />
    <glyph glyph-name="Ydieresis" unicode="&#x178;" horiz-adv-x="1135" 
d="M651 545l-114 -545h-172l114 541l-268 893h182l178 -660q7 -23 11.5 -46.5t7.5 -39.5h2q8 16 22 38.5t29 45.5l477 662h193zM1071 1665q0 -42 -29 -70t-70 -28q-40 0 -69 27.5t-29 70.5q0 21 8 39t21 31t30.5 20.5t36.5 7.5q21 0 39.5 -7.5t32 -21t21.5 -31t8 -38.5z
M686 1665q0 -21 -8 -38.5t-21.5 -31t-32 -21t-39.5 -7.5q-19 0 -37 7.5t-31.5 20.5t-21.5 31t-8 39t8 39t21.5 31t31.5 20.5t37 7.5q21 0 39.5 -7.5t32 -21t21.5 -31t8 -38.5z" />
    <glyph glyph-name="Zacute" unicode="&#x179;" horiz-adv-x="1167" 
d="M1309 1391l-1082 -1239h799l-33 -152h-1071l10 51l1074 1231h-744l31 152h1026zM799 1568h-123l289 327h161z" />
    <glyph glyph-name="zacute" unicode="&#x17a;" horiz-adv-x="926" 
d="M981 975l-768 -836h582l-31 -139h-842l12 53l768 832h-534l31 139h792zM616 1219h-123l289 327h161z" />
    <glyph glyph-name="Zdotaccent" unicode="&#x17b;" horiz-adv-x="1167" 
d="M1309 1391l-1082 -1239h799l-33 -152h-1071l10 51l1074 1231h-744l31 152h1026zM909 1666q0 -42 -28 -71t-70 -29q-19 0 -36.5 7.5t-30.5 21t-21 32t-8 39.5t8 38.5t21 30t30.5 20t36.5 7.5q20 0 37.5 -7.5t31 -20t21.5 -30t8 -38.5z" />
    <glyph glyph-name="zdotaccent" unicode="&#x17c;" horiz-adv-x="926" 
d="M981 975l-768 -836h582l-31 -139h-842l12 53l768 832h-534l31 139h792zM716 1319q0 -42 -28 -71t-70 -29q-19 0 -36.5 7.5t-30.5 21t-21 32t-8 39.5t8 38.5t21 30t30.5 20t36.5 7.5q20 0 37.5 -7.5t31 -20t21.5 -30t8 -38.5z" />
    <glyph glyph-name="Zcaron" unicode="&#x17d;" horiz-adv-x="1167" 
d="M1309 1391l-1082 -1239h799l-33 -152h-1071l10 51l1074 1231h-744l31 152h1026zM876 1567h-135l-145 331h112l115 -231l215 231h119z" />
    <glyph glyph-name="zcaron" unicode="&#x17e;" horiz-adv-x="926" 
d="M981 975l-768 -836h582l-31 -139h-842l12 53l768 832h-534l31 139h792zM682 1219h-135l-145 331h112l115 -231l215 231h119z" />
    <glyph glyph-name="longs" unicode="&#x17f;" horiz-adv-x="600" 
d="M793 1374q-10 5 -24 9.5t-30 8.5t-33.5 6.5t-33.5 2.5q-82 0 -126.5 -53.5t-67.5 -159.5l-332 -1528h-166l336 1554q19 88 53 150t81 101t106.5 57t130.5 18q37 0 72.5 -6t60.5 -14z" />
    <glyph glyph-name="uni0180" unicode="&#x180;" horiz-adv-x="1110" 
d="M1032 666q0 -68 -14 -145.5t-45 -154t-79 -147.5t-115.5 -125t-156 -86.5t-200.5 -32.5q-46 0 -95 6.5t-96 18.5t-90 29t-78 39l241 1136h-131l29 140h132l37 172h166l-36 -172h244l-29 -140h-245l-37 -178q-11 -49 -22.5 -103t-22.5 -96h2q32 51 68 92t77.5 70t89 44.5
t103.5 15.5q146 0 224.5 -100t78.5 -283zM864 662q0 57 -10.5 103t-33 78t-57.5 49t-85 17q-63 0 -121 -37t-106 -98t-83 -138t-51 -157l-67 -319q34 -19 85.5 -32t106.5 -13q71 0 130 23.5t106 64.5t82 95t58 114.5t34.5 125t11.5 124.5z" />
    <glyph glyph-name="uni0181" unicode="&#x181;" horiz-adv-x="1266" 
d="M1218 1124q0 -67 -19 -128.5t-58.5 -111.5t-101 -86.5t-146.5 -52.5v-4q62 -10 108.5 -36.5t77.5 -64.5t46.5 -86t15.5 -101q0 -111 -40.5 -195.5t-112.5 -141.5t-170 -86.5t-214 -29.5h-438l271 1282q-106 -2 -156 -64t-50 -168q0 -24 4 -44h-157q-2 11 -3 23t-1 24
q0 186 101.5 283.5t296.5 97.5h392q86 0 152 -24t111 -66t68 -98.5t23 -121.5zM964 442q0 105 -73 165.5t-224 60.5h-190l-106 -516h231q94 0 162 20.5t112.5 58.5t66 91.5t21.5 119.5zM1042 1092q0 38 -12 72t-38.5 60.5t-69 42t-103.5 15.5h-209l-100 -463h188
q86 0 150.5 20t107 56t63.5 86t21 111h2z" />
    <glyph glyph-name="uni0182" unicode="&#x182;" horiz-adv-x="1171" 
d="M1118 1278h-601l-97 -454h228q101 0 182 -26.5t137.5 -76t87 -119.5t30.5 -156q0 -105 -35.5 -188t-105 -140t-173.5 -87.5t-241 -30.5h-456l303 1434h774zM905 433q0 114 -73.5 177t-226.5 63h-218l-108 -521h248q182 0 280 68t98 213z" />
    <glyph glyph-name="uni0183" unicode="&#x183;" horiz-adv-x="1110" 
d="M1032 666q0 -68 -14 -145.5t-45 -154t-79 -147.5t-115.5 -125t-156.5 -86.5t-200 -32.5q-46 0 -95 6.5t-96 18.5t-90 29t-78 39l308 1448h733l-30 -140h-567l-73 -350q-11 -49 -22.5 -103t-22.5 -96h2q32 51 68 92t77.5 70t89.5 44.5t103 15.5q147 0 225 -99.5t78 -283.5
zM864 662q0 115 -43.5 181t-142.5 66q-63 0 -121 -37t-106 -98t-83 -138t-51 -157l-67 -319q34 -19 85.5 -32t106.5 -13q71 0 130 23.5t106 64.5t82 95t58 114.5t34.5 125t11.5 124.5z" />
    <glyph glyph-name="uni0184" unicode="&#x184;" horiz-adv-x="1171" 
d="M205 1272l5 22l317 164h28l-135 -634h228q101 0 182 -26.5t137.5 -76t87 -119.5t30.5 -156q0 -105 -35.5 -188t-105 -140t-173.5 -87.5t-241 -30.5h-456l243 1153zM905 433q0 114 -73.5 177t-226.5 63h-218l-108 -521h248q182 0 280 68t98 213z" />
    <glyph glyph-name="uni0185" unicode="&#x185;" horiz-adv-x="1110" 
d="M537 1516l-103 -490q-11 -49 -22.5 -103t-22.5 -96h2q32 51 68 92t77.5 70t89.5 44.5t103 15.5q147 0 225 -99.5t78 -283.5q0 -68 -14 -145.5t-45 -154t-79 -147.5t-115.5 -125t-156.5 -86.5t-200 -32.5q-46 0 -95 6.5t-96 18.5t-90 29t-78 39l243 1150l-109 115l5 23
l306 160h29zM864 662q0 115 -43.5 181t-142.5 66q-63 0 -121 -37t-106 -98t-83 -138t-51 -157l-67 -319q34 -19 85.5 -32t106.5 -13q71 0 130 23.5t106 64.5t82 95t58 114.5t34.5 125t11.5 124.5z" />
    <glyph glyph-name="uni0186" unicode="&#x186;" horiz-adv-x="1282" 
d="M1237 881q0 -121 -24.5 -235.5t-72.5 -215.5t-119.5 -184.5t-165.5 -143.5t-210 -93.5t-254 -33.5q-127 0 -217 21t-147 47l34 167q29 -15 65 -30t78.5 -27t90.5 -19.5t102 -7.5q149 0 270.5 55t207.5 154t133 236t47 301q0 93 -28.5 173t-85 138.5t-141 91.5t-196.5 33
q-100 0 -186.5 -22.5t-149.5 -51.5l33 167q60 23 143 40t191 17q138 0 249.5 -39t190 -113.5t120.5 -181.5t42 -243z" />
    <glyph glyph-name="uni0187" unicode="&#x187;" horiz-adv-x="1270" 
d="M1325 1196q-29 19 -66.5 39t-82.5 36t-98 26t-115 10q-150 0 -270.5 -53t-204.5 -146t-129.5 -218.5t-45.5 -271.5q0 -119 33 -210.5t94 -154t146 -94.5t188 -32q66 0 120 7.5t100 21t86 32t79 39.5l-39 -176q-81 -37 -173.5 -56.5t-207.5 -19.5q-136 0 -247.5 45
t-190 127.5t-121.5 198.5t-43 258q0 188 59.5 345t169 270t263 176t340.5 63q75 0 139 -10t119 -26q12 56 34.5 101t57.5 76.5t83.5 48.5t111.5 17q24 0 49.5 -4.5t48.5 -14.5l-30 -140q-38 20 -74 20q-55 0 -92 -41.5t-54 -116.5z" />
    <glyph glyph-name="uni0188" unicode="&#x188;" horiz-adv-x="954" 
d="M864 821q-42 37 -101.5 62.5t-131.5 25.5q-69 0 -124.5 -24t-98.5 -64t-74 -92t-51 -108t-29.5 -111.5t-9.5 -103.5q0 -144 63 -217.5t172 -73.5q66 0 137 27.5t134 70.5l-35 -164q-66 -35 -130 -54.5t-136 -19.5q-94 0 -163.5 32t-115.5 88t-69 132.5t-23 165.5
q0 84 17 165.5t50.5 154t82.5 134.5t112.5 106.5t141.5 70t169 25.5q36 0 69.5 -4.5t62.5 -12.5q9 43 30.5 80.5t53.5 65t73 43.5t88 16q20 0 44.5 -4.5t45.5 -14.5l-27 -128q-30 18 -63 18q-95 0 -127 -125z" />
    <glyph glyph-name="uni0189" unicode="&#x189;" horiz-adv-x="1458" 
d="M1401 844q0 -108 -22 -213t-67.5 -198.5t-116 -173t-168 -137t-223 -90t-280.5 -32.5h-450l139 649h-166l29 152h168l135 633h391q143 0 259.5 -41.5t199 -118t127.5 -185.5t45 -245zM1225 831q0 105 -31 189t-92.5 142t-152.5 89t-212 31h-219l-104 -481h342l-31 -152
h-342l-107 -497h252q179 0 310 51.5t217 142.5t128 215.5t42 269.5z" />
    <glyph glyph-name="uni018A" unicode="&#x18a;" horiz-adv-x="1549" 
d="M1492 854q0 -106 -21.5 -211t-66 -200t-114.5 -176t-167 -140.5t-222.5 -93t-281.5 -33.5h-454l273 1283l-1 -1q-106 -2 -156 -64t-50 -168q0 -24 4 -44h-157q-2 11 -3 23t-1 24q0 186 100.5 283t295.5 98h399q140 0 255 -39.5t196.5 -114.5t126.5 -182.5t45 -243.5z
M1316 842q0 210 -123 325t-365 115h-219l-242 -1130h267q169 0 296.5 54t213 148t129 219.5t43.5 268.5z" />
    <glyph glyph-name="uni018B" unicode="&#x18b;" horiz-adv-x="1172" 
d="M977 1280h-598l33 154h766l-305 -1434h-374q-101 0 -182 26.5t-137.5 76t-87 119.5t-30.5 156q0 105 35.5 188t105 140t173.5 87.5t241 30.5h263zM242 391q0 -114 73.5 -177t226.5 -63h196l108 521h-226q-181 0 -279.5 -67.5t-98.5 -213.5z" />
    <glyph glyph-name="uni018C" unicode="&#x18c;" horiz-adv-x="1110" 
d="M901 315q-7 -32 -13.5 -77t-12 -90.5t-8.5 -85.5t-3 -62h-170q0 17 2.5 45.5t6 59.5t7.5 59.5t7 46.5h-4q-36 -58 -72.5 -102t-76 -74t-84.5 -45t-99 -15q-70 0 -126 25t-95.5 73.5t-60.5 120t-21 164.5q0 74 15.5 154t48 157t82.5 146t119 121t158 82.5t199 30.5
q57 0 104.5 -7.5t82.5 -15.5l74 350h-554l30 140h716zM858 885q-38 11 -79 17.5t-89 6.5q-87 0 -153.5 -27t-116 -72t-83 -102.5t-54 -118t-29 -119t-8.5 -105.5q0 -56 9.5 -102t31 -79t55.5 -51t82 -18q50 0 94 21t81.5 57t68.5 83t55.5 100t42.5 107.5t29 104.5z" />
    <glyph glyph-name="uni018D" unicode="&#x18d;" horiz-adv-x="1212" 
d="M28 -276q34 -22 74.5 -39.5t83 -30t86 -19t82.5 -6.5q127 0 197 43t70 118q0 44 -18.5 81t-51 71.5t-76 69t-94.5 71.5q-65 48 -115.5 99t-84.5 107.5t-51.5 119.5t-17.5 135q0 108 33.5 200.5t103 160t175.5 105.5t251 38q106 0 191 -29.5t144.5 -85t91.5 -133.5
t32 -176q0 -88 -23.5 -158t-62.5 -125t-91 -96.5t-108.5 -72t-115 -51t-111.5 -34.5q34 -28 64.5 -61t53.5 -71t36.5 -80t13.5 -87q0 -85 -38 -142.5t-101.5 -92t-145.5 -49.5t-169 -15q-100 0 -189.5 19.5t-152.5 50.5zM516 176q89 23 170 56.5t143 85.5t98.5 125.5
t36.5 176.5q0 66 -19.5 119.5t-56.5 91t-91 57.5t-124 20q-89 0 -161 -23.5t-123 -68.5t-79 -111.5t-28 -152.5q0 -68 19.5 -123t52 -100t75 -82.5t87.5 -70.5z" />
    <glyph glyph-name="uni018E" unicode="&#x18e;" horiz-adv-x="1038" 
d="M739 0h-759l32 152h591l104 489h-518l32 151h518l105 490h-559l32 152h727z" />
    <glyph glyph-name="uni018F" unicode="&#x18f;" horiz-adv-x="1508" 
d="M147 794h1119q3 21 5.5 46.5t2.5 50.5q0 97 -27.5 174t-80 130.5t-127.5 82t-170 28.5q-109 0 -213 -24t-193 -72l37 172q88 42 187 59t213 17q140 0 243.5 -42t172 -116.5t102 -175.5t33.5 -219t-23.5 -233t-69.5 -218t-114.5 -190.5t-158.5 -151.5t-201 -100t-243 -36
q-136 0 -236 38.5t-165.5 107.5t-97.5 163.5t-32 205.5q0 72 10 147.5t27 155.5zM295 643q-17 -79 -17 -147q0 -79 23 -146.5t68.5 -117t114.5 -77.5t161 -28q133 0 234.5 44t174 116t118 165t67.5 191h-944z" />
    <glyph glyph-name="uni0190" unicode="&#x190;" horiz-adv-x="1108" 
d="M883 48q-45 -19 -87.5 -33t-85.5 -23t-88.5 -13t-97.5 -4q-105 0 -187.5 26t-138.5 74.5t-85.5 118t-29.5 157.5q0 84 29 149.5t80.5 114.5t122 81.5t152.5 51.5l1 6q-43 15 -79 43t-62.5 64t-41 78t-14.5 85q0 113 43 195t115 135t165 78.5t193 25.5q45 0 92 -4.5
t92 -13t85.5 -21.5t73.5 -31l-36 -170q-67 45 -148 66.5t-169 21.5q-63 0 -122 -15.5t-105 -48.5t-73.5 -85t-27.5 -125q0 -62 28 -104t74 -67t104 -35.5t118 -10.5h105l-32 -151h-107q-242 0 -362.5 -79t-120.5 -228q0 -56 20 -99t56.5 -72t87.5 -44t112 -15q200 0 387 92z
" />
    <glyph glyph-name="uni0191" unicode="&#x191;" horiz-adv-x="1003" 
d="M1074 1282h-560l-105 -496h518l-32 -151h-518l-124 -582q-22 -104 -54.5 -182t-79 -129.5t-109.5 -77.5t-147 -26q-39 0 -80.5 7.5t-68.5 18.5l32 154q20 -11 53.5 -20t68.5 -9q89 0 139 66t78 198l293 1381h728z" />
    <glyph glyph-name="florin" unicode="&#x192;" horiz-adv-x="1104" 
d="M1014 1260q-20 12 -52 23t-61 11q-62 0 -107.5 -39t-64.5 -120l-45 -209h174l-31 -138h-172l-139 -649q-26 -123 -61.5 -203.5t-79 -127.5t-94.5 -65.5t-109 -18.5q-10 0 -25 1t-31.5 3.5t-32 6.5t-26.5 9l17 145q21 -14 45 -20t41 -6q32 0 60 13t52 46t45 90.5t39 145.5
l136 628h-119l30 140h115l47 219q14 66 42.5 119.5t70 91t95.5 58t118 20.5q40 0 82.5 -8t68.5 -17z" />
    <glyph glyph-name="uni0193" unicode="&#x193;" horiz-adv-x="1409" 
d="M1350 1190q-33 22 -75.5 43t-93.5 37.5t-110.5 26.5t-126.5 10q-148 0 -265.5 -53t-198.5 -144.5t-124 -215.5t-43 -265q0 -117 32.5 -210t93.5 -158t147.5 -99.5t195.5 -34.5q75 0 135.5 12.5t112.5 32.5l86 418h-332l33 149h504l-141 -661q-85 -45 -188 -75t-230 -30
q-147 0 -263 49t-196.5 134.5t-123 202t-42.5 251.5q0 116 24 224t71 202.5t117 172t162 133t205.5 86t248.5 30.5q85 0 155 -11.5t127 -28.5q13 57 35.5 103t56.5 78.5t81.5 50t109.5 17.5q24 0 52.5 -4.5t50.5 -14.5l-30 -140q-37 20 -73 20q-38 0 -63.5 -14.5t-42 -38.5
t-26.5 -54t-17 -61z" />
    <glyph glyph-name="uni0194" unicode="&#x194;" horiz-adv-x="1272" 
d="M1436 1434l-799 -1331l4 -16q17 -68 33 -138t16 -152q0 -63 -17 -114t-50.5 -88t-83.5 -57t-117 -20q-43 0 -80.5 12.5t-65.5 37t-44 61t-16 83.5q0 42 12.5 81.5t36.5 83t60 93.5t83 111l39 51l-247 1302h177l178 -1024q2 -10 4 -27t4 -34.5t3.5 -32.5t1.5 -21v-17
t-1 -17h4q7 16 16.5 39.5t20.5 41.5l637 1092h191zM497 -39q-31 -44 -53 -75.5t-35.5 -57.5t-20 -49t-6.5 -49q0 -29 14.5 -47.5t43.5 -18.5q34 0 59.5 30t25.5 90q0 32 -7 78.5t-21 98.5z" />
    <glyph glyph-name="uni0195" unicode="&#x195;" horiz-adv-x="1806" 
d="M821 599q3 16 6.5 37t6.5 42t5 39t2 28q0 78 -34 121t-106 43q-61 0 -123 -37.5t-114.5 -97t-91.5 -133t-54 -145.5l-103 -496h-166l324 1516h164l-156 -732h4q35 57 77 105.5t89 84t98.5 55.5t106.5 20q122 0 184.5 -75.5t62.5 -207.5q0 -13 -3 -34.5t-7.5 -46l-9 -49
t-8.5 -44.5l-26 -125q-3 -17 -6.5 -36t-5.5 -37.5t-3.5 -35t-1.5 -28.5q0 -105 58 -161t168 -56q70 0 124.5 25t95 69t68.5 104t45.5 129t25 144.5t7.5 150.5q0 152 -35 289h182q16 -63 24.5 -137t8.5 -150q0 -92 -12 -184t-39 -177t-70.5 -158t-105.5 -127t-144.5 -85
t-187.5 -31q-95 0 -165 23.5t-116 67.5t-68.5 106.5t-22.5 140.5q0 32 6 74t16 87z" />
    <glyph glyph-name="uni0196" unicode="&#x196;" horiz-adv-x="590" 
d="M429 4q-25 -8 -56.5 -13t-62.5 -5q-52 0 -90 13.5t-62.5 38.5t-36.5 59t-12 75q0 15 2 34t5 39t7 38.5t7 31.5l239 1120h166l-240 -1124q-3 -12 -6 -27t-5 -30t-3.5 -27.5t-1.5 -19.5q0 -27 9 -43.5t23 -25.5t30.5 -12t31.5 -3q26 0 45.5 3t36.5 9z" />
    <glyph glyph-name="uni0197" unicode="&#x197;" horiz-adv-x="570" 
d="M543 654h-160l-139 -654h-168l139 654h-159l32 151h159l134 629h168l-134 -629h160z" />
    <glyph glyph-name="uni0198" unicode="&#x198;" horiz-adv-x="1188" 
d="M569 727l502 -727h-209l-434 653q-6 11 -15 27t-14 27h-4l-149 -707h-172l303 1434h174l-143 -674h4q11 12 23.5 25t23.5 24l395 381q72 70 126 120.5t100 83.5t88.5 48.5t92.5 15.5q34 0 68 -7t62 -19l-31 -149q-26 11 -49.5 17t-47.5 6q-51 0 -107.5 -42.5
t-135.5 -116.5z" />
    <glyph glyph-name="uni0199" unicode="&#x199;" horiz-adv-x="1004" 
d="M340 590h4l510 434h213l-569 -473l362 -551h-190l-336 541h-4l-115 -541h-166l258 1202q35 164 125 250t244 86q35 0 71 -4.5t63 -13.5l-29 -138q-21 8 -50 12.5t-55 4.5q-49 0 -83.5 -15t-59 -42.5t-40 -65.5t-25.5 -84z" />
    <glyph glyph-name="uni019A" unicode="&#x19a;" horiz-adv-x="496" 
d="M504 708h-145l-151 -708h-164l151 708h-146l30 140h146l142 668h164l-142 -668h145z" />
    <glyph glyph-name="uni019B" unicode="&#x19b;" horiz-adv-x="1020" 
d="M888 0h-170l-105 828l-532 -828h-185l680 1021l-10 73l-301 -134l-34 113l317 139q-19 156 -122 156q-61 0 -126 -18l33 153q63 15 133 15q104 0 157 -53t78 -185l270 119l34 -113l-283 -125z" />
    <glyph glyph-name="uni019C" unicode="&#x19c;" horiz-adv-x="1819" 
d="M1517 0h-164l34 162h-4q-147 -186 -356 -186q-53 0 -96.5 15t-75.5 42.5t-51.5 66t-25.5 85.5q-80 -106 -172.5 -157.5t-207.5 -51.5q-134 0 -201 68t-67 199q0 39 6.5 87t17.5 98l213 1006h168l-209 -986q-13 -60 -21 -106.5t-8 -72.5q0 -77 40 -112t121 -35
q60 0 117 31t103.5 79t79.5 106.5t45 113.5l208 982h168l-213 -1006q-4 -17 -8 -39t-8 -44.5t-6.5 -42.5t-2.5 -33q0 -80 42.5 -113.5t118.5 -33.5q65 0 122.5 31t102.5 79.5t75.5 107t42.5 112.5l208 982h168z" />
    <glyph glyph-name="uni019D" unicode="&#x19d;" horiz-adv-x="1532" 
d="M251 52q-22 -104 -55.5 -181.5t-82 -129.5t-113 -77.5t-148.5 -25.5q-16 0 -35 2t-38 5t-36.5 7.5t-30.5 9.5l33 151q20 -10 48 -17t59 -7q178 0 233 264l292 1381h201l507 -1125q5 -9 10 -21.5t10 -26t9.5 -26.5t7.5 -22h4q1 12 3 28t4.5 33.5t5 34.5t4.5 29l233 1096
h170l-305 -1434h-186l-529 1149q-3 8 -7 20t-8 24.5t-7 24.5t-4 19h-6q-1 -10 -3 -24.5t-4 -29.5t-4 -29.5t-4 -25.5z" />
    <glyph glyph-name="uni019E" unicode="&#x19e;" horiz-adv-x="1193" 
d="M1088 779q0 -19 -3 -45t-8 -54t-10 -55t-10 -47l-223 -1057h-164l221 1063q3 16 7.5 39t8 46t6.5 44.5t3 34.5q0 36 -9 65.5t-28 51t-47.5 33.5t-67.5 12q-48 0 -94 -21t-88.5 -55t-79.5 -78.5t-66.5 -92t-49.5 -94t-29 -85.5l-103 -484h-166l146 678q5 28 10 53.5
t8.5 46.5t5.5 36t2 22q0 59 -61 59q-9 0 -21.5 -1.5t-23.5 -4.5l26 129q16 5 45.5 7.5t56.5 2.5q65 0 103 -29.5t38 -85.5q0 -12 -2.5 -33.5t-5.5 -44.5t-6 -42.5t-5 -27.5h4q42 63 90.5 115.5t102.5 90t113 58t122 20.5q62 0 109.5 -19.5t79 -54.5t47.5 -85t16 -111z" />
    <glyph glyph-name="uni019F" unicode="&#x19f;" horiz-adv-x="1544" 
d="M1487 852q0 -113 -23.5 -221.5t-68.5 -206t-111.5 -180t-151.5 -142.5t-189 -93.5t-224 -33.5q-135 0 -243 46.5t-183.5 128t-115.5 193.5t-40 243q0 117 24 226.5t70 206.5t113 177.5t153 139t190 90.5t224 32q132 0 238.5 -45t181.5 -126t115.5 -192t40.5 -243z
M1309 846q0 107 -29 192t-83 145t-130 92t-170 32q-106 0 -199 -42t-166 -113t-123 -164t-72 -196h970q1 14 1.5 27t0.5 27zM313 584q0 -100 27.5 -184t80 -144.5t129.5 -94.5t177 -34q107 0 199.5 41t165.5 110.5t122.5 162.5t68.5 196h-969q-1 -14 -1 -27v-26z" />
    <glyph glyph-name="Ohorn" unicode="&#x1a0;" horiz-adv-x="1587" 
d="M1487 852q0 -113 -23.5 -221.5t-68.5 -206t-111.5 -180t-151.5 -142.5t-189 -93.5t-224 -33.5q-135 0 -243 46.5t-183.5 128t-115.5 193.5t-40 243q0 117 24 226.5t70 206.5t113 177.5t153 139t190 90.5t224 32q106 0 195 -29t160 -83q21 -5 40 -6.5t34 -1.5
q72 0 120.5 12.5t77.5 38.5t41 65.5t12 93.5q0 11 -0.5 25t-2.5 25h135q1 -8 2 -22t1 -29q0 -73 -23 -133t-65.5 -102.5t-103 -66t-134.5 -23.5h-18q51 -75 78 -168.5t27 -201.5zM1309 846q0 107 -29 192t-83 145t-130 92t-170 32q-92 0 -171.5 -29t-144 -80t-114.5 -120
t-84.5 -149.5t-52 -168.5t-17.5 -176q0 -100 27.5 -184t80 -144.5t129.5 -94.5t177 -34q94 0 173.5 30t144.5 82t114 122t82.5 150t50.5 166t17 169z" />
    <glyph glyph-name="ohorn" unicode="&#x1a1;" horiz-adv-x="1141" 
d="M1018 645q0 -136 -38.5 -258t-111 -213.5t-176 -145t-233.5 -53.5q-88 0 -158.5 28t-120 80.5t-76 127t-26.5 168.5q0 141 40.5 263.5t114 213t176 142t226.5 51.5q32 0 61 -4t56 -11q30 -5 65 -9.5t90 -4.5q50 0 85.5 19t58 50t33 70t10.5 79q0 10 -0.5 19.5t-1.5 18.5
h134q1 -8 1.5 -21.5t0.5 -22.5q0 -64 -17 -120t-52 -99.5t-88.5 -71.5t-127.5 -37q36 -51 55.5 -115.5t19.5 -143.5zM850 637q0 65 -16 115.5t-45 85t-70 53t-92 18.5q-88 0 -159 -45t-120 -118.5t-75.5 -167t-26.5 -191.5q0 -62 15.5 -112.5t44 -86t70 -54.5t93.5 -19
q89 0 160 44.5t120 118t75 167.5t26 192z" />
    <glyph glyph-name="uni01A2" unicode="&#x1a2;" horiz-adv-x="2017" 
d="M1266 1423q46 -8 94.5 -14.5t94 -10.5t84.5 -6t66 -2q214 0 418 68l-310 -1458h-168l270 1268q-122 -25 -254 -25q-53 0 -131 9l-250 -1174q-85 -45 -188 -75t-230 -30q-147 0 -263 49t-196.5 134.5t-123 202t-42.5 251.5q0 116 24 224t71 202.5t117 172t162 133
t205.5 86t248.5 30.5q38 0 82 -4t85.5 -9.5t77 -11.5t56.5 -10zM1264 1268q-31 8 -69 15t-79.5 12t-85 8.5t-86.5 3.5q-148 0 -265.5 -53t-198.5 -144.5t-124 -215.5t-43 -265q0 -117 32.5 -210t93.5 -158t147.5 -99.5t195.5 -34.5q75 0 137 12.5t114 32.5z" />
    <glyph glyph-name="uni01A3" unicode="&#x1a3;" horiz-adv-x="1621" 
d="M684 1049q75 0 142.5 -10.5t130.5 -23.5t123 -23.5t119 -10.5q180 0 366 67l-222 -1048h-164l184 866q-105 -24 -197 -24q-31 0 -61.5 2t-60.5 6l-167 -788q-94 -42 -190.5 -64.5t-212.5 -22.5q-91 0 -164.5 27t-125 79.5t-79 130t-27.5 178.5q0 150 46 271.5t127 207.5
t192 133t241 47zM676 909q-97 0 -176.5 -40.5t-136 -110t-87 -162.5t-30.5 -198q0 -137 66.5 -210.5t198.5 -73.5q27 0 58 3t61.5 9t58 14t48.5 17l154 723q-30 8 -61 13t-59.5 9t-52.5 5.5t-42 1.5z" />
    <glyph glyph-name="uni01A4" unicode="&#x1a4;" horiz-adv-x="1273" 
d="M1094 1042q0 54 -18.5 98.5t-54.5 76t-89.5 48.5t-123.5 17h-195l-125 -588h201q106 0 182.5 26.5t126 73t73 110t23.5 138.5zM166 0l271 1282q-106 -2 -156 -64t-50 -168q0 -24 4 -44h-157q-2 11 -3 23t-1 24q0 186 101.5 283.5t296.5 97.5h371q116 0 197 -31.5
t132.5 -84t75 -120.5t23.5 -141q0 -106 -36 -199.5t-109.5 -163.5t-186.5 -110.5t-266 -40.5h-218l-114 -543h-175z" />
    <glyph glyph-name="uni01A5" unicode="&#x1a5;" horiz-adv-x="1110" 
d="M430 1017q-8 -38 -25 -94.5t-34 -113.5h4q142 240 354 240q70 0 126 -24t95.5 -72t60.5 -120t21 -167q0 -74 -16 -153.5t-49 -156.5t-82.5 -146t-116.5 -121.5t-152 -83t-188 -30.5q-60 0 -117 11t-100 26l-102 -487h-166l361 1677q35 165 126 250.5t246 85.5
q35 0 71 -4.5t63 -13.5l-29 -138q-21 8 -50 12.5t-55 4.5q-49 0 -83.5 -15t-59 -42.5t-40 -65.5t-25.5 -84zM864 659q0 54 -9.5 100t-31.5 79t-56.5 52t-84.5 19q-51 0 -97 -21.5t-85 -57.5t-71.5 -83.5t-57 -98.5t-42 -102.5t-26.5 -96.5l-63 -297q18 -8 43 -14.5t52 -11.5
t55 -8t52 -3q69 0 127.5 23t105 62.5t82 93t59.5 114t36 125t12 126.5z" />
    <glyph glyph-name="uni01A6" unicode="&#x1a6;" horiz-adv-x="1158" 
d="M1135 927q0 -93 -32.5 -168t-89.5 -129t-136 -86.5t-172 -40.5v-4q97 -31 140 -192l120 -459h-184l-106 428q-23 94 -73 138t-134 44h-125l-97 -458h-172l303 1434h170l-32 -152h223q105 0 180 -28t123 -76.5t71 -113t23 -137.5zM959 909q0 48 -15 88.5t-46 70t-79 46
t-114 16.5h-221l-110 -520h198q105 0 178.5 25t120 66t67.5 95.5t21 112.5z" />
    <glyph glyph-name="uni01A7" unicode="&#x1a7;" horiz-adv-x="1088" 
d="M852 63q-32 -19 -75.5 -35t-92 -27.5t-100 -18t-98.5 -6.5q-111 0 -190.5 25.5t-130 70.5t-74.5 106t-24 131q0 100 32.5 174.5t91.5 132.5t141 102t180 83q92 36 162.5 67.5t118 68t72 83t24.5 113.5q0 47 -21 80t-56 53.5t-81 30t-96 9.5q-88 0 -179.5 -21.5
t-165.5 -66.5l40 189q57 21 138.5 36t181.5 15q83 0 158.5 -18.5t132.5 -56t90.5 -95.5t33.5 -136q0 -90 -28.5 -158.5t-84 -122.5t-138.5 -98t-191 -86q-78 -30 -147 -62.5t-120.5 -74t-81.5 -96t-30 -129.5q0 -41 13.5 -77t43 -63t77 -42.5t114.5 -15.5q51 0 105.5 9.5
t107.5 26.5t102 40.5t88 52.5z" />
    <glyph glyph-name="uni01A8" unicode="&#x1a8;" horiz-adv-x="869" 
d="M679 37q-128 -61 -287 -61q-78 0 -142 17t-109.5 50t-71 81.5t-25.5 111.5q0 76 27 128.5t75.5 91t115 67.5t145.5 57q55 20 102.5 39t82.5 42t55 52t20 68q0 32 -13 56t-36 40t-55.5 24.5t-70.5 8.5q-74 1 -142.5 -18t-133.5 -56l36 166q113 46 247 46q68 0 128.5 -15.5
t107 -45.5t73.5 -75t27 -104q0 -74 -25 -126.5t-70.5 -91.5t-109.5 -69t-142 -59q-56 -21 -106 -40t-88 -44t-60.5 -58t-22.5 -81q0 -25 11.5 -47.5t35 -40t59 -27.5t83.5 -10q162 0 316 99z" />
    <glyph glyph-name="uni01A9" unicode="&#x1a9;" horiz-adv-x="1057" 
d="M1155 1282h-663l303 -532l-608 -598h774l-31 -152h-1028l20 96l676 662l-340 600l15 76h913z" />
    <glyph glyph-name="uni01AA" unicode="&#x1aa;" horiz-adv-x="606" 
d="M515 -453q-29 -14 -63 -21.5t-78 -7.5q-105 0 -164 49t-59 149q0 25 4 56t9 54l267 1254q-62 -28 -130 -28q-44 0 -79.5 16.5t-61 44.5t-39.5 65t-14 78q0 64 23 116t63 89t92.5 57t112.5 20q112 0 173.5 -54.5t61.5 -152.5q0 -12 -2.5 -33t-5.5 -44.5t-7 -45.5t-7 -36
l-279 -1318q-2 -11 -4.5 -25t-4.5 -28.5t-3 -27.5t-1 -22q0 -51 28.5 -72t74.5 -21q28 0 59.5 9t63.5 24zM460 1218q14 62 14 92q0 39 -22.5 64t-65.5 25q-26 0 -48.5 -9.5t-39 -26t-26 -38.5t-9.5 -48q-2 -38 22.5 -61.5t68.5 -23.5q52 0 106 26z" />
    <glyph glyph-name="uni01AB" unicode="&#x1ab;" horiz-adv-x="662" 
d="M690 885h-258l-115 -543q-6 -31 -12 -67t-6 -58q0 -51 22.5 -73.5t71.5 -22.5q13 0 31.5 4t38.5 10.5t39.5 13.5t34.5 13l-49 -230q-32 -152 -106 -223t-203 -71q-41 0 -78 8t-61 20l30 139q22 -13 48.5 -20.5t56.5 -7.5q126 0 160 159l10 46h-3q-57 0 -97 14.5
t-65.5 41.5t-37 65.5t-11.5 86.5q0 29 6 67.5t13 70.5l118 557h-170l31 139h168l53 250q2 1 15.5 5t32.5 9.5t40.5 12t40.5 12t32 9.5t15 5l-63 -303h258z" />
    <glyph glyph-name="uni01AC" unicode="&#x1ac;" horiz-adv-x="1075" 
d="M482 1282q-106 -2 -156 -64t-50 -168q0 -24 4 -44h-157q-2 11 -3 23t-1 24q0 186 101.5 283.5t296.5 97.5h731l-32 -152h-414l-273 -1282h-168l273 1282h-149h-3z" />
    <glyph glyph-name="uni01AD" unicode="&#x1ad;" horiz-adv-x="696" 
d="M463 1024h258l-31 -139h-258l-115 -543q-6 -31 -12 -67t-6 -58q0 -51 22.5 -73.5t71.5 -22.5q13 0 31.5 4t38.5 10.5t39.5 13.5t34.5 13l-31 -144q-35 -15 -79.5 -25.5t-84.5 -10.5q-57 0 -97 14.5t-65.5 41.5t-37 65.5t-11.5 86.5q0 29 6 67.5t13 70.5l118 557h-170
l31 139h168l42 192q16 72 42.5 131t67 101.5t96.5 66t131 23.5q37 0 77.5 -7t69.5 -21l-31 -146q-53 35 -117 35q-135 0 -174 -191z" />
    <glyph glyph-name="uni01AE" unicode="&#x1ae;" horiz-adv-x="1077" 
d="M520 42q-3 -9 -5.5 -24t-5 -31.5t-4 -33.5t-1.5 -30q0 -66 32.5 -100t96.5 -34q69 0 127 23l-32 -148q-9 -4 -24.5 -8.5t-33.5 -8.5t-36.5 -6.5t-34.5 -2.5q-129 0 -198.5 62.5t-69.5 190.5q0 66 18 152l263 1239h-417l32 152h996l-33 -152h-408z" />
    <glyph glyph-name="Uhorn" unicode="&#x1af;" horiz-adv-x="1454" 
d="M1367 1434q72 0 120.5 12.5t77.5 38t41 65t12 93.5q0 11 -0.5 25t-2.5 25h135q1 -8 2 -22t1 -29q0 -73 -23 -133t-65.5 -102.5t-103 -66t-134.5 -23.5h-18l-162 -754q-30 -140 -75.5 -249.5t-117 -184.5t-174.5 -114.5t-247 -39.5q-111 0 -198 35t-146 96t-90 144
t-31 180q0 27 2 56.5t5.5 59t8 56t8.5 47.5l170 785h173l-173 -795q-10 -47 -17 -98t-7 -99q0 -79 24 -138.5t66.5 -98.5t100 -58.5t124.5 -19.5q85 0 152 24t118 75t87.5 130t60.5 189l191 889h105z" />
    <glyph glyph-name="uhorn" unicode="&#x1b0;" horiz-adv-x="1188" 
d="M1025 1024q50 0 85.5 19t58 50t33 70t10.5 79q0 10 -0.5 19.5t-1.5 18.5h134q1 -8 1.5 -21.5t0.5 -22.5q0 -64 -17 -120t-52 -99.5t-88.5 -71.5t-127.5 -37l-131 -617q-9 -39 -17 -81t-14.5 -81t-11.5 -72.5t-8 -56.5h-160q5 39 11.5 81.5t12.5 78.5q4 21 7 41.5t6 40.5
h-4q-35 -55 -77.5 -103.5t-92 -85t-105 -57.5t-115.5 -21q-66 0 -115.5 20.5t-82.5 57.5t-49.5 89t-16.5 116q0 14 4 39.5t9.5 55.5t11.5 59.5t10 50.5l119 561h166l-127 -600q-4 -16 -8 -37t-7.5 -42t-5.5 -38.5t-2 -27.5q0 -75 36.5 -119.5t109.5 -44.5q44 0 88 18
t85.5 48.5t78 71t66.5 86t51.5 93.5t31.5 92l107 500h103z" />
    <glyph glyph-name="uni01B1" unicode="&#x1b1;" horiz-adv-x="1623" 
d="M137 541q0 136 41 251t109 209t158 165.5t187 120.5h-339l30 147h516l-32 -162q-99 -51 -186.5 -120t-152 -157.5t-102 -197.5t-37.5 -240q0 -96 29.5 -175t85 -135.5t135 -88t178.5 -31.5q130 0 239.5 49t189 137t124 210.5t44.5 269.5q0 88 -16 157t-45 126t-69 104
t-88 92l33 162h516l-29 -147h-356q42 -35 85.5 -84t78 -113t56.5 -141.5t22 -169.5q0 -181 -61 -329t-168 -253.5t-251.5 -163t-312.5 -57.5q-145 0 -259 44t-192.5 120t-119.5 179.5t-41 221.5z" />
    <glyph glyph-name="uni01B2" unicode="&#x1b2;" horiz-adv-x="1458" 
d="M356 1434h168l-181 -852q-5 -25 -10 -53.5t-8.5 -56.5t-5.5 -53.5t-2 -45.5q0 -121 71.5 -183.5t201.5 -62.5q110 0 202.5 43t167 115.5t131.5 167t95 198t57.5 208t19.5 196.5q0 251 -190 251q-73 0 -142 -28l33 158q41 13 72.5 17.5t74.5 4.5q68 0 127 -23t103 -71
t69 -122t25 -176q0 -108 -22.5 -231t-68.5 -244t-116.5 -232.5t-165 -196.5t-214.5 -135.5t-266 -50.5q-100 0 -181 24t-137 71.5t-86.5 119t-30.5 166.5q0 54 7.5 111.5t18.5 105.5z" />
    <glyph glyph-name="uni01B3" unicode="&#x1b3;" horiz-adv-x="1166" 
d="M381 1434l202 -648q7 -26 12.5 -47.5t7.5 -40.5h2l54 88l285 410q40 59 80.5 107.5t84 83t91 53t107.5 18.5q57 0 110 -24l-33 -156q-40 28 -99 28q-89 0 -209 -170l-432 -610l-113 -526h-168l114 530l-281 904h185z" />
    <glyph glyph-name="uni01B4" unicode="&#x1b4;" horiz-adv-x="1059" 
d="M367 -170q-46 -75 -93 -132.5t-98.5 -97.5t-110.5 -60.5t-128 -20.5q-23 0 -51.5 4.5t-45.5 9.5l31 145q15 -8 39 -13t47 -5q69 0 124.5 38t104.5 116l123 190l-186 1020h170l119 -786q3 -22 3.5 -42.5t-1.5 -35.5h6q5 12 15.5 34t23.5 42l299 518q42 74 84 129t87 91.5
t96 55t112 18.5q20 0 49 -4t52 -12l-31 -143q-39 19 -84 19q-25 0 -49.5 -8.5t-49 -28.5t-50 -52t-54.5 -79z" />
    <glyph glyph-name="uni01B5" unicode="&#x1b5;" horiz-adv-x="1167" 
d="M1309 1391l-512 -586h246l-32 -151h-346l-438 -502h799l-33 -152h-1071l10 51l526 603h-209l32 151h309l416 477h-744l31 152h1026z" />
    <glyph glyph-name="uni01B6" unicode="&#x1b6;" horiz-adv-x="926" 
d="M981 975l-349 -379h177l-29 -140h-276l-291 -317h582l-31 -139h-842l12 53l372 403h-158l29 140h258l267 289h-534l31 139h792z" />
    <glyph glyph-name="uni01B7" unicode="&#x1b7;" horiz-adv-x="1250" 
d="M-153 -375l38 181q49 -34 106.5 -59.5t118.5 -42.5t122.5 -25.5t116.5 -8.5q144 0 252.5 37t181 103.5t108.5 158t36 200.5q0 79 -30 145.5t-89.5 114.5t-147 74.5t-202.5 26.5h-112l18 101l623 651h-760l32 152h1026l-16 -76l-656 -686q94 -6 182.5 -41t157.5 -96.5
t111 -148.5t42 -198q0 -158 -52.5 -282.5t-150.5 -210.5t-237 -131.5t-313 -45.5q-58 0 -126.5 6.5t-137 20t-132 33.5t-110.5 47z" />
    <glyph glyph-name="uni01B8" unicode="&#x1b8;" horiz-adv-x="1250" 
d="M1032 -380q-103 -51 -212 -76.5t-236 -25.5q-148 0 -261.5 37.5t-191 104.5t-117.5 158.5t-40 198.5q0 105 28.5 193t80 159t121.5 125.5t153 92.5t175.5 59t187.5 26l-374 686l16 76h1026l-32 -152h-788l366 -676l-16 -76h-123q-78 0 -155.5 -11.5t-148.5 -36
t-132.5 -63.5t-106.5 -95t-71 -129.5t-26 -166.5t34 -160.5t93 -111.5t139.5 -65t173.5 -21q239 0 474 125z" />
    <glyph glyph-name="uni01B9" unicode="&#x1b9;" horiz-adv-x="905" 
d="M749 -404q-82 -38 -166 -56.5t-185 -18.5q-106 0 -195 27.5t-154 80t-101.5 128.5t-36.5 173q0 121 44.5 212t121.5 153t181 95.5t224 39.5l-289 543l11 51h813l-30 -140h-581l275 -532l-11 -51h-84q-101 0 -192 -20t-160 -65t-110 -116t-41 -173q0 -67 26 -117t70 -83.5
t104 -50t127 -16.5q195 0 373 98z" />
    <glyph glyph-name="uni01BA" unicode="&#x1ba;" horiz-adv-x="838" 
d="M529 -252l-33 -163q-31 -15 -70 -27t-81 -21t-84 -14t-80 -5q-73 0 -131.5 16.5t-99.5 47t-62.5 75t-21.5 100.5q0 57 25.5 102.5t74.5 82.5t119.5 67.5t159.5 57.5q65 20 128 42.5t112 53.5t79 74t30 104q0 74 -72 115.5t-219 41.5h-54l13 61l351 325h-502l30 140h728
l-15 -70l-370 -343q66 -8 118 -30t87.5 -55t54 -76t18.5 -93q0 -93 -37.5 -156.5t-100.5 -107.5t-145 -74.5t-171 -58.5q-52 -17 -100 -34.5t-85.5 -40.5t-60 -53.5t-22.5 -73.5q0 -45 37 -72.5t108 -27.5q85 0 175.5 22.5t168.5 67.5z" />
    <glyph glyph-name="uni01BB" unicode="&#x1bb;" horiz-adv-x="1104" 
d="M1074 1130q0 -59 -14 -114t-41.5 -107.5t-67 -103.5t-90.5 -103h152l-31 -147h-282l-493 -403v-5h654l-31 -147h-866l30 143l492 412h-240l31 147h381q63 57 109.5 106.5t77.5 98t46 98t15 105.5q0 42 -14 80t-43.5 66.5t-75 45.5t-107.5 17q-44 0 -93 -11t-97.5 -30
t-94 -43t-83.5 -51l38 178q29 16 67 33t83 31t96.5 23t108.5 9q101 0 173.5 -27t119 -72t68.5 -104.5t22 -124.5z" />
    <glyph glyph-name="uni01BC" unicode="&#x1bc;" horiz-adv-x="1104" 
d="M1003 1284h-489l-88 -418q29 2 54 3t52 1q115 0 195.5 -30.5t131.5 -82t74 -119.5t23 -144q0 -57 -12.5 -117.5t-40.5 -118.5t-72.5 -109t-109 -90t-149 -61.5t-193.5 -22.5q-45 0 -91 4t-88 11t-78 17t-61 22l37 161q24 -16 58 -30t73 -24t80.5 -15.5t81.5 -5.5
q114 0 190 34t122 86t65.5 113.5t19.5 116.5q0 129 -72 195.5t-229 66.5q-30 0 -64.5 -1t-68 -2.5t-64 -3t-52.5 -3.5l120 569h-157l31 148h801z" />
    <glyph glyph-name="uni01BD" unicode="&#x1bd;" horiz-adv-x="778" 
d="M23 185q47 -32 103 -51.5t117 -19.5q138 0 203.5 60t65.5 159q0 161 -208 161q-41 0 -60.5 -0.5t-35 -1.5t-35.5 -2.5t-62 -3.5l146 398h-104l30 140h604l-30 -140h-350l-94 -253q13 0 19.5 0.5t10.5 1t6.5 0.5h7.5q74 0 134.5 -19.5t104 -56t67.5 -88t24 -114.5
q0 -71 -19.5 -139t-70 -121.5t-136.5 -86t-219 -32.5q-38 0 -76 4t-71.5 11t-60.5 16.5t-45 19.5z" />
    <glyph glyph-name="uni01BE" unicode="&#x1be;" horiz-adv-x="807" 
d="M36 37l34 165q20 -15 48 -30.5t60.5 -28t68 -21t71.5 -8.5q107 0 168.5 46t61.5 136q0 27 -9 49t-27 41t-44 37t-59 38q-45 27 -79.5 50t-57.5 47.5t-35 54.5t-12 71q0 43 12 98l22 102h-126l30 140h126l53 250l175 53l-64 -303h258l-30 -140h-258l-21 -98
q-4 -17 -6.5 -40.5t-2.5 -36.5q0 -44 31.5 -74.5t94.5 -66.5q42 -24 78.5 -50t63 -57t42 -69t15.5 -86q0 -78 -28 -139.5t-80.5 -104t-126.5 -64.5t-166 -22q-41 0 -82 4.5t-78 13t-68 19.5t-53 24z" />
    <glyph glyph-name="uni01BF" unicode="&#x1bf;" horiz-adv-x="1159" 
d="M198 -45l-91 -426h-164l318 1495h164l-28 -129q103 77 194 115t188 38q66 0 121.5 -18.5t95.5 -55.5t62.5 -93t22.5 -131q0 -103 -37.5 -192t-102 -165t-150.5 -140t-184.5 -118t-203 -98.5t-205.5 -81.5zM361 725l-130 -613q76 28 155.5 63t154.5 78t142 94.5t117 112.5
t79 131.5t29 150.5q0 36 -11 65.5t-32 51.5t-52 34t-70 12q-157 0 -382 -180z" />
    <glyph glyph-name="uni01C0" unicode="&#x1c0;" horiz-adv-x="490" 
d="M102 -482h-147l434 2048h148z" />
    <glyph glyph-name="uni01C1" unicode="&#x1c1;" horiz-adv-x="784" 
d="M396 -482h-147l435 2048h147zM102 -482h-147l434 2048h148z" />
    <glyph glyph-name="uni01C2" unicode="&#x1c2;" horiz-adv-x="934" 
d="M836 326h-342l-172 -808h-147l172 808h-342l29 139h342l59 279h-342l30 138h342l145 684h147l-145 -684h342l-30 -138h-342l-59 -279h342z" />
    <glyph glyph-name="uni01C3" unicode="&#x1c3;" horiz-adv-x="653" 
d="M367 403h-136l201 1031h172zM354 92q0 -23 -9 -43t-24 -35t-35 -23.5t-42 -8.5q-23 0 -43.5 8.5t-35.5 23.5t-23.5 35t-8.5 43t8.5 43.5t23.5 35.5t35.5 23.5t43.5 8.5q22 0 42 -8.5t35 -23.5t24 -35.5t9 -43.5z" />
    <glyph glyph-name="uni01C4" unicode="&#x1c4;" horiz-adv-x="2535" 
d="M1401 854q0 -106 -21.5 -211t-66 -200t-114.5 -176t-167 -140.5t-222.5 -93t-281.5 -33.5h-454l305 1434h399q140 0 255 -39.5t196.5 -114.5t126.5 -182.5t45 -243.5zM1225 842q0 210 -123 325t-365 115h-219l-242 -1130h267q169 0 296.5 54t213 148t129 219.5
t43.5 268.5zM2677 1391l-1082 -1239h799l-33 -152h-1071l10 51l1074 1231h-744l31 152h1026zM2228 1561h-135l-145 331h112l115 -231l215 231h119z" />
    <glyph glyph-name="uni01C5" unicode="&#x1c5;" horiz-adv-x="2333" 
d="M1401 854q0 -106 -21.5 -211t-66 -200t-114.5 -176t-167 -140.5t-222.5 -93t-281.5 -33.5h-454l305 1434h399q140 0 255 -39.5t196.5 -114.5t126.5 -182.5t45 -243.5zM1225 842q0 210 -123 325t-365 115h-219l-242 -1130h267q169 0 296.5 54t213 148t129 219.5
t43.5 268.5zM2388 975l-768 -836h582l-31 -139h-842l12 53l768 832h-534l31 139h792zM2084 1219h-135l-145 331h112l115 -231l215 231h119z" />
    <glyph glyph-name="uni01C6" unicode="&#x1c6;" horiz-adv-x="2066" 
d="M901 315q-7 -32 -13.5 -77t-11.5 -90.5t-8.5 -85.5t-3.5 -62h-170q0 17 2.5 45.5t6 59.5t7.5 59.5t7 46.5h-4q-36 -58 -72 -102.5t-76 -74t-85 -44.5t-99 -15q-70 0 -126 25t-95.5 73.5t-60.5 120t-21 164.5q0 74 15.5 154t48 157t82.5 146t119 121t158 82.5t199 30.5
q56 0 104 -7.5t83 -15.5l104 490h162zM858 885q-38 11 -79.5 17.5t-88.5 6.5q-87 0 -153.5 -27t-116 -72t-83 -102.5t-54 -118t-29 -119t-8.5 -105.5q0 -56 9.5 -102t31 -79t55.5 -51t82 -18q50 0 93.5 21t81.5 57t69 83t56 100t42.5 107.5t28.5 104.5zM2121 975l-768 -836
h582l-31 -139h-842l12 53l768 832h-534l31 139h792zM1818 1219h-135l-145 331h112l115 -231l215 231h119z" />
    <glyph glyph-name="uni01C7" unicode="&#x1c7;" horiz-adv-x="1731" 
d="M817 0h-743l303 1434h174l-272 -1278h571zM1557 508q-28 -130 -69.5 -230t-99.5 -167t-134 -101.5t-173 -34.5q-18 0 -43 3t-49 8.5t-44 11.5t-29 12l28 160q11 -9 26.5 -17.5t33.5 -14.5t38 -9.5t39 -3.5q54 0 100 19.5t83.5 64t67.5 116t52 175.5l197 934h172z" />
    <glyph glyph-name="uni01C8" unicode="&#x1c8;" horiz-adv-x="1471" 
d="M817 0h-743l303 1434h174l-272 -1278h571zM1204 47q-55 -264 -170.5 -396t-298.5 -132q-17 0 -36.5 2t-39 6t-38 9.5t-33.5 12.5l29 154q12 -8 28 -16t34 -14.5t36.5 -10.5t34.5 -4q103 0 174 89t108 269l215 1008h164zM1512 1389q0 -45 -30.5 -77t-75.5 -32
q-44 0 -76.5 31.5t-32.5 77.5t32.5 75t76.5 29t75 -29.5t31 -74.5z" />
    <glyph glyph-name="uni01C9" unicode="&#x1c9;" horiz-adv-x="1021" 
d="M416 4q-25 -8 -56.5 -13t-62.5 -5q-101 0 -151 50.5t-50 135.5q0 25 5 59t16 84l256 1202h166l-257 -1206q-9 -42 -12.5 -65t-3.5 -39q0 -41 22.5 -62.5t71.5 -21.5q26 0 45.5 3t36.5 9zM754 47q-55 -264 -170.5 -396t-298.5 -132q-17 0 -36.5 2t-39 6t-38 9.5
t-33.5 12.5l29 154q12 -8 28 -16t34 -14.5t36.5 -10.5t34.5 -4q103 0 174 89t108 269l215 1008h164zM1062 1389q0 -45 -30.5 -77t-75.5 -32q-44 0 -76.5 31.5t-32.5 77.5t32.5 75t76.5 29t75 -29.5t31 -74.5z" />
    <glyph glyph-name="uni01CA" unicode="&#x1ca;" horiz-adv-x="2247" 
d="M1241 0h-186l-529 1149q-3 8 -7 19.5t-8 24.5t-7 25t-4 19h-6q-1 -10 -2.5 -24.5t-3.5 -29.5t-4.5 -29.5t-4.5 -25.5l-239 -1128h-166l303 1434h201l507 -1125q5 -9 10 -21.5t10 -26t9.5 -26.5t7.5 -22h4q1 12 3 28t4 33.5t5 34.5t5 29l233 1096h170zM2073 508
q-28 -130 -69.5 -230t-99.5 -167t-134 -101.5t-173 -34.5q-18 0 -43 3t-49 8.5t-44 11.5t-29 12l28 160q11 -9 26.5 -17.5t33.5 -14.5t38 -9.5t39 -3.5q54 0 100 19.5t83.5 64t67.5 116t52 175.5l197 934h172z" />
    <glyph glyph-name="uni01CB" unicode="&#x1cb;" horiz-adv-x="2030" 
d="M1241 0h-186l-529 1149q-3 8 -7 19.5t-8 24.5t-7 25t-4 19h-6q-1 -10 -2.5 -24.5t-3.5 -29.5t-4.5 -29.5t-4.5 -25.5l-239 -1128h-166l303 1434h201l507 -1125q5 -9 10 -21.5t10 -26t9.5 -26.5t7.5 -22h4q1 12 3 28t4 33.5t5 34.5t5 29l233 1096h170zM1763 47
q-55 -264 -170.5 -396t-298.5 -132q-17 0 -36.5 2t-39 6t-38 9.5t-33.5 12.5l29 154q12 -8 28 -16t34 -14.5t36.5 -10.5t34.5 -4q103 0 174 89t108 269l215 1008h164zM2071 1389q0 -45 -30.5 -77t-75.5 -32q-44 0 -76.5 31.5t-32.5 77.5t32.5 75t76.5 29t75 -29.5t31 -74.5z
" />
    <glyph glyph-name="uni01CC" unicode="&#x1cc;" horiz-adv-x="1642" 
d="M1046 768q0 -15 -3.5 -41t-9 -56t-11 -59.5t-10.5 -50.5l-119 -561h-166l125 600q4 16 8 37t7 42t5 38.5t2 27.5q0 76 -36.5 120t-108.5 44q-66 0 -131 -39t-120 -99t-94.5 -132t-53.5 -139l-107 -500h-166l158 731q8 39 16 81.5t15 82t12 73.5t8 56h160
q-5 -39 -12 -81.5t-12 -78.5q-6 -42 -13 -82h4q35 55 77.5 103.5t92 85t105 57.5t116.5 21q68 0 117 -20.5t81.5 -57.5t48 -89t15.5 -114zM1375 47q-55 -264 -170.5 -396t-298.5 -132q-17 0 -36.5 2t-39 6t-38 9.5t-33.5 12.5l29 154q12 -8 28 -16t34 -14.5t36.5 -10.5
t34.5 -4q103 0 174 89t108 269l215 1008h164zM1683 1389q0 -45 -30.5 -77t-75.5 -32q-44 0 -76.5 31.5t-32.5 77.5t32.5 75t76.5 29t75 -29.5t31 -74.5z" />
    <glyph glyph-name="uni01CD" unicode="&#x1cd;" horiz-adv-x="1294" 
d="M999 0l-65 401h-608l-232 -401h-198l854 1434h176l250 -1434h-177zM815 1163q-1 10 -1.5 23t-0.5 26v26v22h-4q-3 -9 -8 -21.5t-11 -26t-12.5 -26.5l-11.5 -23l-354 -610h495zM908 1561h-135l-145 331h112l115 -231l215 231h119z" />
    <glyph glyph-name="uni01CE" unicode="&#x1ce;" horiz-adv-x="1110" 
d="M905 328q-8 -38 -15.5 -85.5t-13 -94t-9 -86.5t-3.5 -62h-170q1 20 3 48t5.5 58t7 59t7.5 50h-4q-31 -49 -63 -92.5t-71 -76.5t-87 -52t-113 -19q-67 0 -122.5 24t-95.5 71.5t-61.5 119t-21.5 166.5q0 58 12 132t40.5 151t76 150.5t118 131.5t166.5 93t222 35
q80 0 165 -12t169 -29zM858 889q-35 8 -82 14t-88 6q-87 0 -153.5 -27.5t-115.5 -72t-82.5 -102.5t-53.5 -118.5t-28.5 -119.5t-8.5 -107q0 -57 10 -102.5t31.5 -77.5t55 -49.5t79.5 -17.5q50 0 93.5 20.5t81.5 55.5t69 81t56 97.5t42.5 105t28.5 103.5zM733 1219h-135
l-145 331h112l115 -231l215 231h119z" />
    <glyph glyph-name="uni01CF" unicode="&#x1cf;" horiz-adv-x="545" 
d="M246 0h-172l303 1434h174zM548 1561h-135l-145 331h112l115 -231l215 231h119z" />
    <glyph glyph-name="uni01D0" unicode="&#x1d0;" horiz-adv-x="530" 
d="M416 4q-25 -8 -56.5 -13t-62.5 -5q-101 0 -151 50.5t-50 135.5q0 25 5 59t16 84l149 709h166l-150 -713q-9 -42 -12.5 -65t-3.5 -39q0 -41 22.5 -62.5t71.5 -21.5q26 0 45.5 3t36.5 9zM439 1219h-135l-145 331h112l115 -231l215 231h119z" />
    <glyph glyph-name="uni01D1" unicode="&#x1d1;" horiz-adv-x="1544" 
d="M1487 852q0 -93 -17 -184.5t-49 -176.5t-78.5 -161t-105.5 -137q-48 -50 -104 -90.5t-120 -69t-137 -43.5t-157 -15q-135 0 -243 46.5t-183.5 128t-115.5 193.5t-40 243q0 208 67.5 373t188.5 286q98 98 226.5 155.5t291.5 57.5q132 0 238.5 -45t181.5 -126t115.5 -192
t40.5 -243zM1309 846q0 107 -29 192t-83 145t-130 92t-170 32q-111 0 -212 -48t-179 -133q-44 -48 -79.5 -110t-61 -132t-39 -146t-13.5 -154q0 -100 27.5 -184t80 -144.5t129.5 -94.5t177 -34q111 0 212.5 44.5t178.5 131.5q48 54 83.5 120.5t59.5 138t36 144.5t12 140z
M967 1561h-135l-145 331h112l115 -231l215 231h119z" />
    <glyph glyph-name="uni01D2" unicode="&#x1d2;" horiz-adv-x="1096" 
d="M1018 645q0 -136 -38.5 -258t-111 -213.5t-176 -145t-233.5 -53.5q-88 0 -158.5 28t-120 80.5t-76 127t-26.5 168.5q0 141 40.5 263.5t114 213t176 142t226.5 51.5q87 0 157.5 -28t120.5 -80.5t77.5 -127t27.5 -168.5zM850 637q0 65 -16 115.5t-45 85t-70 53t-92 18.5
q-88 0 -159 -45t-120 -118.5t-75.5 -167t-26.5 -191.5q0 -62 15.5 -112.5t44 -86t70 -54.5t93.5 -19q89 0 160 44.5t120 118t75 167.5t26 192zM726 1219h-135l-145 331h112l115 -231l215 231h119z" />
    <glyph glyph-name="uni01D3" unicode="&#x1d3;" horiz-adv-x="1411" 
d="M1247 563q-30 -140 -75.5 -249.5t-117 -184.5t-174.5 -114.5t-247 -39.5q-111 0 -198 35t-146 96t-90 144t-31 180q0 43 5.5 97t14.5 102l174 805h173l-173 -795q-4 -23 -8.5 -50t-8 -54t-5.5 -51t-2 -42q0 -80 24 -139t66.5 -98t100 -58.5t124.5 -19.5q85 0 152 24
t118 75t87.5 130t60.5 189l191 889h172zM960 1561h-135l-145 331h112l115 -231l215 231h119z" />
    <glyph glyph-name="uni01D4" unicode="&#x1d4;" horiz-adv-x="1143" 
d="M930 291q-9 -39 -16.5 -81t-14.5 -81t-12 -73t-8 -56h-160q5 39 11.5 81.5t12.5 78.5q7 42 13 82h-4q-35 -55 -77.5 -103.5t-92 -85t-105 -57.5t-115.5 -21q-66 0 -115.5 20.5t-82.5 57.5t-49.5 89t-16.5 116q0 13 4 39t9 56t11.5 59.5t10.5 50.5l119 561h166l-127 -600
q-4 -16 -8 -37t-7.5 -42t-5.5 -38.5t-2 -27.5q0 -75 36.5 -119.5t109.5 -44.5q44 0 88 18t85.5 48.5t78.5 71t67 86t51 93.5t31 92l107 500h165zM758 1219h-135l-145 331h112l115 -231l215 231h119z" />
    <glyph glyph-name="uni01D5" unicode="&#x1d5;" horiz-adv-x="1411" 
d="M1247 563q-30 -140 -75.5 -249.5t-117 -184.5t-174.5 -114.5t-247 -39.5q-111 0 -198 35t-146 96t-90 144t-31 180q0 43 5.5 97t14.5 102l174 805h173l-173 -795q-4 -23 -8.5 -50t-8 -54t-5.5 -51t-2 -42q0 -80 24 -139t66.5 -98t100 -58.5t124.5 -19.5q85 0 152 24
t118 75t87.5 130t60.5 189l191 889h172zM1127 1569q-42 0 -70.5 28t-28.5 71q0 21 7.5 39t21 31t31 20.5t37.5 7.5q41 0 70 -29q30 -28 30 -69q0 -21 -7.5 -39t-21 -31.5t-31 -21t-38.5 -7.5zM742 1569q-43 0 -71.5 28.5t-28.5 70.5t28 70t70 28q41 0 70 -29q30 -28 30 -69
q0 -21 -7.5 -39t-21 -31.5t-31 -21t-38.5 -7.5zM698 1837l16 108h508l-16 -108h-508z" />
    <glyph glyph-name="uni01D6" unicode="&#x1d6;" horiz-adv-x="1143" 
d="M930 291q-9 -39 -16.5 -81t-14.5 -81t-12 -73t-8 -56h-160q5 39 11.5 81.5t12.5 78.5q7 42 13 82h-4q-35 -55 -77.5 -103.5t-92 -85t-105 -57.5t-115.5 -21q-66 0 -115.5 20.5t-82.5 57.5t-49.5 89t-16.5 116q0 13 4 39t9 56t11.5 59.5t10.5 50.5l119 561h166l-127 -600
q-4 -16 -8 -37t-7.5 -42t-5.5 -38.5t-2 -27.5q0 -75 36.5 -119.5t109.5 -44.5q44 0 88 18t85.5 48.5t78.5 71t67 86t51 93.5t31 92l107 500h165zM999 1484h-508l23 109h508zM907 1219q-42 0 -70.5 28t-28.5 71q0 21 7.5 39t21 31t31 20.5t37.5 7.5q41 0 70 -29
q30 -28 30 -69q0 -21 -7.5 -39t-21 -31.5t-31 -21t-38.5 -7.5zM522 1219q-43 0 -71.5 28.5t-28.5 70.5t28 70t70 28q41 0 70 -29q30 -28 30 -69q0 -21 -7.5 -39t-21 -31.5t-31 -21t-38.5 -7.5z" />
    <glyph glyph-name="uni01D7" unicode="&#x1d7;" horiz-adv-x="1411" 
d="M1247 563q-30 -140 -75.5 -249.5t-117 -184.5t-174.5 -114.5t-247 -39.5q-111 0 -198 35t-146 96t-90 144t-31 180q0 43 5.5 97t14.5 102l174 805h173l-173 -795q-4 -23 -8.5 -50t-8 -54t-5.5 -51t-2 -42q0 -80 24 -139t66.5 -98t100 -58.5t124.5 -19.5q85 0 152 24
t118 75t87.5 130t60.5 189l191 889h172zM1120 1571q-42 0 -70.5 28t-28.5 71q0 21 7.5 39t21 31t31 20.5t37.5 7.5q41 0 70 -29q30 -28 30 -69q0 -21 -7.5 -39t-21 -31.5t-31 -21t-38.5 -7.5zM735 1571q-43 0 -71.5 28.5t-28.5 70.5t28 70t70 28q41 0 70 -29q30 -28 30 -69
q0 -21 -7.5 -39t-21 -31.5t-31 -21t-38.5 -7.5zM833 1786l233 246h168l-274 -246h-127z" />
    <glyph glyph-name="uni01D8" unicode="&#x1d8;" horiz-adv-x="1143" 
d="M930 291q-9 -39 -16.5 -81t-14.5 -81t-12 -73t-8 -56h-160q5 39 11.5 81.5t12.5 78.5q7 42 13 82h-4q-35 -55 -77.5 -103.5t-92 -85t-105 -57.5t-115.5 -21q-66 0 -115.5 20.5t-82.5 57.5t-49.5 89t-16.5 116q0 13 4 39t9 56t11.5 59.5t10.5 50.5l119 561h166l-127 -600
q-4 -16 -8 -37t-7.5 -42t-5.5 -38.5t-2 -27.5q0 -75 36.5 -119.5t109.5 -44.5q44 0 88 18t85.5 48.5t78.5 71t67 86t51 93.5t31 92l107 500h165zM900 1219q-42 0 -70.5 28t-28.5 71q0 21 7.5 39t21 31t31 20.5t37.5 7.5q41 0 70 -29q30 -28 30 -69q0 -21 -7.5 -39t-21 -31.5
t-31 -21t-38.5 -7.5zM515 1219q-43 0 -71.5 28.5t-28.5 70.5t28 70t70 28q41 0 70 -29q30 -28 30 -69q0 -21 -7.5 -39t-21 -31.5t-31 -21t-38.5 -7.5zM613 1434l233 246h168l-274 -246h-127z" />
    <glyph glyph-name="uni01D9" unicode="&#x1d9;" horiz-adv-x="1411" 
d="M1247 563q-30 -140 -75.5 -249.5t-117 -184.5t-174.5 -114.5t-247 -39.5q-111 0 -198 35t-146 96t-90 144t-31 180q0 43 5.5 97t14.5 102l174 805h173l-173 -795q-4 -23 -8.5 -50t-8 -54t-5.5 -51t-2 -42q0 -80 24 -139t66.5 -98t100 -58.5t124.5 -19.5q85 0 152 24
t118 75t87.5 130t60.5 189l191 889h172zM824 2035l114 -149l213 149h121l-283 -249h-133l-145 249h113zM1109 1571q-42 0 -70.5 28t-28.5 71q0 21 7.5 39t21 31t31 20.5t37.5 7.5q41 0 70 -29q30 -28 30 -69q0 -21 -7.5 -39t-21 -31.5t-31 -21t-38.5 -7.5zM724 1571
q-43 0 -71.5 28.5t-28.5 70.5t28 70t70 28q41 0 70 -29q30 -28 30 -69q0 -21 -7.5 -39t-21 -31.5t-31 -21t-38.5 -7.5z" />
    <glyph glyph-name="uni01DA" unicode="&#x1da;" horiz-adv-x="1143" 
d="M930 291q-9 -39 -16.5 -81t-14.5 -81t-12 -73t-8 -56h-160q5 39 11.5 81.5t12.5 78.5q7 42 13 82h-4q-35 -55 -77.5 -103.5t-92 -85t-105 -57.5t-115.5 -21q-66 0 -115.5 20.5t-82.5 57.5t-49.5 89t-16.5 116q0 13 4 39t9 56t11.5 59.5t10.5 50.5l119 561h166l-127 -600
q-4 -16 -8 -37t-7.5 -42t-5.5 -38.5t-2 -27.5q0 -75 36.5 -119.5t109.5 -44.5q44 0 88 18t85.5 48.5t78.5 71t67 86t51 93.5t31 92l107 500h165zM614 1683l114 -149l213 149h121l-283 -249h-133l-145 249h113zM899 1219q-42 0 -70.5 28t-28.5 71q0 21 7.5 39t21 31t31 20.5
t37.5 7.5q41 0 70 -29q30 -28 30 -69q0 -21 -7.5 -39t-21 -31.5t-31 -21t-38.5 -7.5zM514 1219q-43 0 -71.5 28.5t-28.5 70.5t28 70t70 28q41 0 70 -29q30 -28 30 -69q0 -21 -7.5 -39t-21 -31.5t-31 -21t-38.5 -7.5z" />
    <glyph glyph-name="uni01DB" unicode="&#x1db;" horiz-adv-x="1411" 
d="M1247 563q-30 -140 -75.5 -249.5t-117 -184.5t-174.5 -114.5t-247 -39.5q-111 0 -198 35t-146 96t-90 144t-31 180q0 43 5.5 97t14.5 102l174 805h173l-173 -795q-4 -23 -8.5 -50t-8 -54t-5.5 -51t-2 -42q0 -80 24 -139t66.5 -98t100 -58.5t124.5 -19.5q85 0 152 24
t118 75t87.5 130t60.5 189l191 889h172zM1125 1571q-42 0 -70.5 28t-28.5 71q0 21 7.5 39t21 31t31 20.5t37.5 7.5q41 0 70 -29q30 -28 30 -69q0 -21 -7.5 -39t-21 -31.5t-31 -21t-38.5 -7.5zM740 1571q-43 0 -71.5 28.5t-28.5 70.5t28 70t70 28q41 0 70 -29q30 -28 30 -69
q0 -21 -7.5 -39t-21 -31.5t-31 -21t-38.5 -7.5zM1015 1786h-106l-189 246h168z" />
    <glyph glyph-name="uni01DC" unicode="&#x1dc;" horiz-adv-x="1143" 
d="M930 291q-9 -39 -16.5 -81t-14.5 -81t-12 -73t-8 -56h-160q5 39 11.5 81.5t12.5 78.5q7 42 13 82h-4q-35 -55 -77.5 -103.5t-92 -85t-105 -57.5t-115.5 -21q-66 0 -115.5 20.5t-82.5 57.5t-49.5 89t-16.5 116q0 13 4 39t9 56t11.5 59.5t10.5 50.5l119 561h166l-127 -600
q-4 -16 -8 -37t-7.5 -42t-5.5 -38.5t-2 -27.5q0 -75 36.5 -119.5t109.5 -44.5q44 0 88 18t85.5 48.5t78.5 71t67 86t51 93.5t31 92l107 500h165zM908 1219q-42 0 -70.5 28t-28.5 71q0 21 7.5 39t21 31t31 20.5t37.5 7.5q41 0 70 -29q30 -28 30 -69q0 -21 -7.5 -39t-21 -31.5
t-31 -21t-38.5 -7.5zM523 1219q-43 0 -71.5 28.5t-28.5 70.5t28 70t70 28q41 0 70 -29q30 -28 30 -69q0 -21 -7.5 -39t-21 -31.5t-31 -21t-38.5 -7.5zM798 1434h-106l-189 246h168z" />
    <glyph glyph-name="uni01DD" unicode="&#x1dd;" horiz-adv-x="997" 
d="M38 240q0 81 36 147.5t119 114t219 73.5t336 27q2 11 2 23v20q0 54 -15 102t-46.5 84t-81 57t-117.5 21q-69 0 -151.5 -26.5t-157.5 -75.5l31 162q55 32 131 56t170 24q113 0 190.5 -35t125 -93.5t68.5 -135t21 -160.5q0 -90 -20 -173.5t-56.5 -155.5t-87.5 -131.5
t-113 -101.5t-133 -65t-147 -23q-79 0 -139.5 21t-101 57.5t-61.5 84.5t-21 102zM205 248q0 -63 46.5 -98t123.5 -35q61 0 118 26.5t105 73t83 111t51 139.5q-143 0 -243 -14.5t-163 -42.5t-92 -68.5t-29 -91.5z" />
    <glyph glyph-name="uni01DE" unicode="&#x1de;" horiz-adv-x="1294" 
d="M999 0l-65 401h-608l-232 -401h-198l854 1434h176l250 -1434h-177zM815 1163q-1 10 -1.5 23t-0.5 26v26v22h-4q-3 -9 -8 -21.5t-11 -26t-12.5 -26.5l-11.5 -23l-354 -610h495zM1059 1569q-42 0 -70.5 28t-28.5 71q0 21 7.5 39t21 31t31 20.5t37.5 7.5q41 0 70 -29
q30 -28 30 -69q0 -21 -7.5 -39t-21 -31.5t-31 -21t-38.5 -7.5zM674 1569q-43 0 -71.5 28.5t-28.5 70.5t28 70t70 28q41 0 70 -29q30 -28 30 -69q0 -21 -7.5 -39t-21 -31.5t-31 -21t-38.5 -7.5zM630 1837l16 108h508l-16 -108h-508z" />
    <glyph glyph-name="uni01DF" unicode="&#x1df;" horiz-adv-x="1110" 
d="M905 328q-8 -38 -15.5 -85.5t-13 -94t-9 -86.5t-3.5 -62h-170q1 20 3 48t5.5 58t7 59t7.5 50h-4q-31 -49 -63 -92.5t-71 -76.5t-87 -52t-113 -19q-67 0 -122.5 24t-95.5 71.5t-61.5 119t-21.5 166.5q0 58 12 132t40.5 151t76 150.5t118 131.5t166.5 93t222 35
q80 0 165 -12t169 -29zM858 889q-35 8 -82 14t-88 6q-87 0 -153.5 -27.5t-115.5 -72t-82.5 -102.5t-53.5 -118.5t-28.5 -119.5t-8.5 -107q0 -57 10 -102.5t31.5 -77.5t55 -49.5t79.5 -17.5q50 0 93.5 20.5t81.5 55.5t69 81t56 97.5t42.5 105t28.5 103.5zM1007 1484h-508
l23 109h508zM915 1219q-42 0 -70.5 28t-28.5 71q0 21 7.5 39t21 31t31 20.5t37.5 7.5q41 0 70 -29q30 -28 30 -69q0 -21 -7.5 -39t-21 -31.5t-31 -21t-38.5 -7.5zM530 1219q-43 0 -71.5 28.5t-28.5 70.5t28 70t70 28q41 0 70 -29q30 -28 30 -69q0 -21 -7.5 -39t-21 -31.5
t-31 -21t-38.5 -7.5z" />
    <glyph glyph-name="uni01E0" unicode="&#x1e0;" horiz-adv-x="1294" 
d="M999 0l-65 401h-608l-232 -401h-198l854 1434h176l250 -1434h-177zM815 1163q-1 10 -1.5 23t-0.5 26v26v22h-4q-3 -9 -8 -21.5t-11 -26t-12.5 -26.5l-11.5 -23l-354 -610h495zM885 1575q-20 0 -37.5 7.5t-31 21t-21.5 31.5t-8 39t8 38.5t21.5 30t31 20t37.5 7.5
q42 0 70 -27t28 -69t-28 -70.5t-70 -28.5zM635 1842l16 108h508l-16 -108h-508z" />
    <glyph glyph-name="uni01E1" unicode="&#x1e1;" horiz-adv-x="1110" 
d="M905 328q-8 -38 -15.5 -85.5t-13 -94t-9 -86.5t-3.5 -62h-170q1 20 3 48t5.5 58t7 59t7.5 50h-4q-31 -49 -63 -92.5t-71 -76.5t-87 -52t-113 -19q-67 0 -122.5 24t-95.5 71.5t-61.5 119t-21.5 166.5q0 58 12 132t40.5 151t76 150.5t118 131.5t166.5 93t222 35
q80 0 165 -12t169 -29zM858 889q-35 8 -82 14t-88 6q-87 0 -153.5 -27.5t-115.5 -72t-82.5 -102.5t-53.5 -118.5t-28.5 -119.5t-8.5 -107q0 -57 10 -102.5t31.5 -77.5t55 -49.5t79.5 -17.5q50 0 93.5 20.5t81.5 55.5t69 81t56 97.5t42.5 105t28.5 103.5zM971 1480h-508
l23 109h508zM710 1219q-43 0 -71.5 28.5t-28.5 70.5t28 70t70 28q41 0 70 -29q30 -28 30 -69q0 -21 -7.5 -39t-21 -31.5t-31 -21t-38.5 -7.5z" />
    <glyph glyph-name="uni01E2" unicode="&#x1e2;" horiz-adv-x="1751" 
d="M1800 1280h-555l-104 -487h514l-33 -152h-514l-104 -489h587l-30 -152h-760l86 401h-508l-293 -401h-207l1067 1434h887zM1016 1280l-522 -723h426l151 723h-55zM1118 1568l16 108h508l-16 -108h-508z" />
    <glyph glyph-name="uni01E3" unicode="&#x1e3;" horiz-adv-x="1692" 
d="M1655 784q0 -81 -36 -147.5t-119 -114t-220 -73.5t-338 -27q0 -11 -1 -20.5t-1 -18.5q0 -54 14.5 -102.5t46 -85t81.5 -58.5t120 -22q69 0 151.5 26.5t157.5 75.5l-30 -162q-56 -32 -131.5 -56t-169.5 -24q-90 0 -159 25.5t-117 70.5t-75 107.5t-34 136.5h-4
q-36 -64 -80 -125t-97.5 -109t-116.5 -77t-137 -29q-76 0 -129.5 27.5t-87.5 76.5t-49.5 116.5t-15.5 146.5q0 71 16.5 151t51 158.5t88.5 150.5t129.5 127t174 87.5t220.5 32.5q96 0 172.5 -22.5t136.5 -51.5q56 35 122.5 54.5t147.5 19.5q64 0 121.5 -18t101 -52
t69.5 -83.5t26 -111.5zM1487 774q0 33 -13 58t-36.5 42.5t-55 26t-69.5 8.5q-61 0 -117.5 -24t-103.5 -69t-82 -109.5t-52 -145.5q144 0 245 15t164 42.5t91.5 67t28.5 88.5zM942 868q-17 8 -40 15.5t-49 13t-54 9t-54 3.5q-89 0 -161 -27t-128 -71.5t-96 -103t-65.5 -121
t-38 -125t-12.5 -115.5q0 -51 8.5 -93.5t25.5 -73t43.5 -47.5t63.5 -17q42 0 88 20.5t94.5 68t99 125.5t101.5 193q12 27 30 69t40 90t48.5 97t55.5 90zM777 1219l16 108h508l-16 -108h-508z" />
    <glyph glyph-name="uni01E4" unicode="&#x1e4;" horiz-adv-x="1409" 
d="M1350 1190q-33 22 -75.5 43t-93.5 37.5t-110.5 26.5t-126.5 10q-148 0 -265.5 -53t-198.5 -144.5t-124 -215.5t-43 -265q0 -117 32.5 -210t93.5 -158t147.5 -99.5t195.5 -34.5q75 0 135.5 12.5t112.5 32.5l27 133h-311l29 139h311l30 146h-332l33 149h504l-63 -295h142
l-29 -139h-143l-48 -227q-85 -45 -188 -75t-230 -30q-147 0 -263 49t-196.5 134.5t-123 202t-42.5 251.5q0 116 24 224t71 202.5t117 172t162 133t205.5 86t248.5 30.5q74 0 137.5 -9t116 -23t93.5 -30.5t70 -31.5z" />
    <glyph glyph-name="uni01E5" unicode="&#x1e5;" horiz-adv-x="1110" 
d="M850 74q-8 -40 -18 -77.5t-22 -73.5h183l-29 -139h-213q-33 -61 -77.5 -110t-103.5 -83.5t-133.5 -53t-168.5 -18.5q-98 0 -170.5 23t-132.5 55l31 153q63 -38 134 -64t153 -26q98 0 167.5 31.5t118.5 92.5h-334l29 139h380q11 30 20.5 62t17.5 68l42 192h-4
q-38 -61 -74.5 -105.5t-76.5 -74t-84 -44t-97 -14.5q-69 0 -126 22t-98 67.5t-63.5 115t-22.5 163.5q0 134 43.5 256t123 215t193 148t252.5 55q94 0 186.5 -12t170.5 -27zM858 889q-34 8 -82.5 14t-103.5 6q-94 0 -172 -41t-134.5 -112t-88 -167.5t-31.5 -206.5
q0 -108 43 -171.5t136 -63.5q55 0 101.5 23t85.5 61t69.5 86.5t54 99.5t39.5 100.5t25 89.5z" />
    <glyph glyph-name="uni01E6" unicode="&#x1e6;" horiz-adv-x="1409" 
d="M1350 1190q-33 22 -75.5 43t-93.5 37.5t-110.5 26.5t-126.5 10q-149 0 -266 -53t-198 -144.5t-124 -215.5t-43 -265q0 -117 32.5 -210t93.5 -158t147.5 -99.5t195.5 -34.5q75 0 135.5 12.5t112.5 32.5l86 418h-332l33 149h504l-141 -661q-85 -45 -188 -75t-230 -30
q-147 0 -263 49t-196.5 134.5t-123 202t-42.5 251.5q0 116 24 224t71 202.5t117 172t162 133t205.5 86t248.5 30.5q74 0 137.5 -9t116 -23t93.5 -30.5t70 -31.5zM1017 1561h-135l-145 331h112l115 -231l215 231h119z" />
    <glyph glyph-name="uni01E7" unicode="&#x1e7;" horiz-adv-x="1110" 
d="M850 74q-25 -120 -66 -221.5t-108.5 -176t-166.5 -116t-241 -41.5q-98 0 -170.5 23t-132.5 55l31 153q63 -38 134 -64t153 -26q89 0 154.5 26t113 76.5t79 123.5t52.5 167l35 160h-4q-38 -61 -74.5 -105.5t-76.5 -74t-84 -44t-97 -14.5q-69 0 -125 24.5t-95.5 72.5
t-61 120t-21.5 166q0 89 19.5 175t56.5 163t90.5 141.5t121.5 111.5t149.5 73.5t174.5 26.5t186 -12t171 -27zM858 889q-34 8 -82.5 14t-103.5 6q-94 0 -172 -43.5t-134.5 -118t-88 -173.5t-31.5 -209q0 -54 9.5 -100t30 -79t53 -52t79.5 -19q55 0 101.5 23t85.5 61
t69.5 86.5t54 99.5t39.5 100.5t25 89.5zM753 1219h-135l-145 331h112l115 -231l215 231h119z" />
    <glyph glyph-name="uni01E8" unicode="&#x1e8;" horiz-adv-x="1228" 
d="M573 723l498 -723h-209l-434 653q-6 11 -15 27t-14 27h-4l-149 -707h-172l303 1434h174l-143 -674h4q11 12 23.5 25t23.5 24l659 625h228zM890 1561h-135l-145 331h112l115 -231l215 231h119z" />
    <glyph glyph-name="uni01E9" unicode="&#x1e9;" horiz-adv-x="1004" 
d="M498 551l362 -551h-190l-336 541h-4l-115 -541h-166l324 1516h164l-197 -926h4l510 434h213zM758 1561h-135l-145 331h112l115 -231l215 231h119z" />
    <glyph glyph-name="uni01EA" unicode="&#x1ea;" horiz-adv-x="1544" 
d="M757 -25q-17 -16 -32 -30.5t-28 -27.5q-54 -54 -77 -93.5t-23 -73.5q0 -80 80 -80q23 0 48.5 8.5t41.5 16.5l-15 -103q-18 -9 -46 -15.5t-62 -6.5q-82 0 -122 41.5t-40 114.5q0 41 23.5 87t80.5 105q14 14 30.5 29t36.5 31q-121 11 -216.5 61.5t-162 131t-102 186.5
t-35.5 229q0 209 67.5 373.5t188.5 285.5q98 98 226.5 155.5t291.5 57.5q132 0 238.5 -45t181.5 -126t115.5 -192t40.5 -243q0 -93 -17 -184.5t-49 -176.5t-78.5 -161t-105.5 -137q-92 -96 -209.5 -153t-271.5 -64q1 0 1 -1zM1309 846q0 107 -29 192t-83 145t-130 92
t-170 32q-112 0 -212.5 -48t-178.5 -133q-44 -48 -80 -109.5t-61 -132t-38.5 -147t-13.5 -153.5q0 -100 27.5 -184t80 -144.5t129.5 -94.5t177 -34q112 0 212.5 44t178.5 132q48 54 83.5 120.5t59.5 138t36 144.5t12 140z" />
    <glyph glyph-name="uni01EB" unicode="&#x1eb;" horiz-adv-x="1096" 
d="M1018 645q0 -126 -33 -239.5t-94.5 -202.5t-150.5 -147.5t-202 -74.5q-17 -15 -31 -29t-26 -27q-107 -107 -107 -175q0 -80 80 -80q23 0 48.5 8.5t41.5 16.5l-15 -103q-18 -9 -46 -15.5t-62 -6.5q-82 0 -122 41.5t-40 114.5q0 41 27 91t84 109q11 12 25 24.5t30 25.5
q-81 6 -145 36t-109 82t-69 124t-24 161q0 141 40.5 263.5t114 213t176 142t226.5 51.5q87 0 157.5 -28t120.5 -80.5t77.5 -127t27.5 -168.5zM850 637q0 65 -16 115.5t-45 85t-70 53t-92 18.5q-88 0 -159 -45t-120 -118.5t-75.5 -167t-26.5 -191.5q0 -62 15.5 -112.5t44 -86
t70 -54.5t93.5 -19q89 0 160 44.5t120 118t75 167.5t26 192z" />
    <glyph glyph-name="uni01EC" unicode="&#x1ec;" horiz-adv-x="1544" 
d="M757 -25q-17 -16 -32 -30.5t-28 -27.5q-54 -54 -77 -93.5t-23 -73.5q0 -80 80 -80q23 0 48.5 8.5t41.5 16.5l-15 -103q-18 -9 -46 -15.5t-62 -6.5q-82 0 -122 41.5t-40 114.5q0 41 23.5 87t80.5 105q14 14 30.5 29t36.5 31q-121 11 -216.5 61.5t-162 131t-102 186.5
t-35.5 229q0 209 67.5 373.5t188.5 285.5q98 98 226.5 155.5t291.5 57.5q132 0 238.5 -45t181.5 -126t115.5 -192t40.5 -243q0 -93 -17 -184.5t-49 -176.5t-78.5 -161t-105.5 -137q-92 -96 -209.5 -153t-271.5 -64q1 0 1 -1zM1309 846q0 107 -29 192t-83 145t-130 92
t-170 32q-112 0 -212.5 -48t-178.5 -133q-44 -48 -80 -109.5t-61 -132t-38.5 -147t-13.5 -153.5q0 -100 27.5 -184t80 -144.5t129.5 -94.5t177 -34q112 0 212.5 44t178.5 132q48 54 83.5 120.5t59.5 138t36 144.5t12 140zM706 1568l16 108h508l-16 -108h-508z" />
    <glyph glyph-name="uni01ED" unicode="&#x1ed;" horiz-adv-x="1096" 
d="M1018 645q0 -126 -33 -239.5t-94.5 -202.5t-150.5 -147.5t-202 -74.5q-17 -15 -31 -29t-26 -27q-107 -107 -107 -175q0 -80 80 -80q23 0 48.5 8.5t41.5 16.5l-15 -103q-18 -9 -46 -15.5t-62 -6.5q-82 0 -122 41.5t-40 114.5q0 41 27 91t84 109q11 12 25 24.5t30 25.5
q-81 6 -145 36t-109 82t-69 124t-24 161q0 141 40.5 263.5t114 213t176 142t226.5 51.5q87 0 157.5 -28t120.5 -80.5t77.5 -127t27.5 -168.5zM850 637q0 65 -16 115.5t-45 85t-70 53t-92 18.5q-88 0 -159 -45t-120 -118.5t-75.5 -167t-26.5 -191.5q0 -62 15.5 -112.5t44 -86
t70 -54.5t93.5 -19q89 0 160 44.5t120 118t75 167.5t26 192zM437 1219l16 108h508l-16 -108h-508z" />
    <glyph glyph-name="uni01EE" unicode="&#x1ee;" horiz-adv-x="1250" 
d="M-153 -375l38 181q49 -34 106.5 -59.5t118.5 -42.5t122.5 -25.5t116.5 -8.5q144 0 252.5 37t181 103.5t108.5 158t36 200.5q0 79 -30 145.5t-89.5 114.5t-147 74.5t-202.5 26.5h-112l18 101l623 651h-760l32 152h1026l-16 -76l-656 -686q94 -6 182.5 -41t157.5 -96.5
t111 -148.5t42 -198q0 -158 -52.5 -282.5t-150.5 -210.5t-237 -131.5t-313 -45.5q-58 0 -126.5 6.5t-137 20t-132 33.5t-110.5 47zM849 1561h-135l-145 331h112l115 -231l215 231h119z" />
    <glyph glyph-name="uni01EF" unicode="&#x1ef;" horiz-adv-x="905" 
d="M-201 -398l34 162q36 -26 78 -45.5t86.5 -32.5t90.5 -19.5t90 -6.5q104 0 187 23.5t141 71t89 119t31 166.5q0 128 -93 194.5t-279 66.5h-79l11 51l497 532h-578l30 140h813l-17 -70l-500 -531q79 -9 146 -38.5t116.5 -78t77.5 -113.5t28 -145q0 -107 -35.5 -202.5
t-110.5 -167.5t-190.5 -114.5t-275.5 -42.5q-52 0 -106.5 5t-105.5 15t-96.5 25.5t-79.5 35.5zM616 1219h-135l-145 331h112l115 -231l215 231h119z" />
    <glyph glyph-name="uni01F0" unicode="&#x1f0;" horiz-adv-x="492" 
d="M225 47q-55 -264 -170.5 -396t-298.5 -132q-17 0 -36.5 2t-39 6t-38 9.5t-33.5 12.5l29 154q12 -8 28 -16t34 -14.5t36.5 -10.5t34.5 -4q103 0 174 89t108 269l215 1008h164zM446 1219h-135l-145 331h112l115 -231l215 231h119z" />
    <glyph glyph-name="uni01F1" unicode="&#x1f1;" horiz-adv-x="2535" 
d="M1401 854q0 -106 -21.5 -211t-66 -200t-114.5 -176t-167 -140.5t-222.5 -93t-281.5 -33.5h-454l305 1434h399q140 0 255 -39.5t196.5 -114.5t126.5 -182.5t45 -243.5zM1225 842q0 210 -123 325t-365 115h-219l-242 -1130h267q169 0 296.5 54t213 148t129 219.5
t43.5 268.5zM2677 1391l-1082 -1239h799l-33 -152h-1071l10 51l1074 1231h-744l31 152h1026z" />
    <glyph glyph-name="uni01F2" unicode="&#x1f2;" horiz-adv-x="2333" 
d="M1401 854q0 -106 -21.5 -211t-66 -200t-114.5 -176t-167 -140.5t-222.5 -93t-281.5 -33.5h-454l305 1434h399q140 0 255 -39.5t196.5 -114.5t126.5 -182.5t45 -243.5zM1225 842q0 210 -123 325t-365 115h-219l-242 -1130h267q169 0 296.5 54t213 148t129 219.5
t43.5 268.5zM2388 975l-768 -836h582l-31 -139h-842l12 53l768 832h-534l31 139h792z" />
    <glyph glyph-name="uni01F3" unicode="&#x1f3;" horiz-adv-x="2066" 
d="M901 315q-7 -32 -13.5 -77t-11.5 -90.5t-8.5 -85.5t-3.5 -62h-170q0 17 2.5 45.5t6 59.5t7.5 59.5t7 46.5h-4q-36 -58 -72 -102.5t-76 -74t-85 -44.5t-99 -15q-70 0 -126 25t-95.5 73.5t-60.5 120t-21 164.5q0 74 15.5 154t48 157t82.5 146t119 121t158 82.5t199 30.5
q56 0 104 -7.5t83 -15.5l104 490h162zM858 885q-38 11 -79.5 17.5t-88.5 6.5q-87 0 -153.5 -27t-116 -72t-83 -102.5t-54 -118t-29 -119t-8.5 -105.5q0 -56 9.5 -102t31 -79t55.5 -51t82 -18q50 0 93.5 21t81.5 57t69 83t56 100t42.5 107.5t28.5 104.5zM2121 975l-768 -836
h582l-31 -139h-842l12 53l768 832h-534l31 139h792z" />
    <glyph glyph-name="uni01F4" unicode="&#x1f4;" horiz-adv-x="1409" 
d="M1350 1190q-33 22 -75.5 43t-93.5 37.5t-110.5 26.5t-126.5 10q-149 0 -266 -53t-198 -144.5t-124 -215.5t-43 -265q0 -117 32.5 -210t93.5 -158t147.5 -99.5t195.5 -34.5q75 0 135.5 12.5t112.5 32.5l86 418h-332l33 149h504l-141 -661q-85 -45 -188 -75t-230 -30
q-147 0 -263 49t-196.5 134.5t-123 202t-42.5 251.5q0 116 24 224t71 202.5t117 172t162 133t205.5 86t248.5 30.5q74 0 137.5 -9t116 -23t93.5 -30.5t70 -31.5zM1006 1569h-123l289 327h161z" />
    <glyph glyph-name="uni01F5" unicode="&#x1f5;" horiz-adv-x="1110" 
d="M850 74q-25 -120 -66 -221.5t-108.5 -176t-166.5 -116t-241 -41.5q-98 0 -170.5 23t-132.5 55l31 153q63 -38 134 -64t153 -26q89 0 154.5 26t113 76.5t79 123.5t52.5 167l35 160h-4q-38 -61 -74.5 -105.5t-76.5 -74t-84 -44t-97 -14.5q-69 0 -125 24.5t-95.5 72.5
t-61 120t-21.5 166q0 89 19.5 175t56.5 163t90.5 141.5t121.5 111.5t149.5 73.5t174.5 26.5t186 -12t171 -27zM858 889q-34 8 -82.5 14t-103.5 6q-94 0 -172 -43.5t-134.5 -118t-88 -173.5t-31.5 -209q0 -54 9.5 -100t30 -79t53 -52t79.5 -19q55 0 101.5 23t85.5 61
t69.5 86.5t54 99.5t39.5 100.5t25 89.5zM797 1219h-123l289 327h161z" />
    <glyph glyph-name="uni01F6" unicode="&#x1f6;" horiz-adv-x="2046" 
d="M1890 428q-21 -99 -58.5 -182t-97.5 -143t-146.5 -93.5t-205.5 -33.5q-85 0 -153 20t-115.5 59t-72.5 96.5t-25 131.5q0 31 5 69.5t10 63.5l51 238h-701l-139 -654h-168l304 1434h168l-133 -629h701l133 629h167l-213 -1004q-3 -15 -6 -33t-6 -36.5t-4.5 -35t-1.5 -28.5
q0 -88 54.5 -129t160.5 -41q260 0 323 297l127 600h168z" />
    <glyph glyph-name="uni01F7" unicode="&#x1f7;" horiz-adv-x="1411" 
d="M234 -58l-88 -413h-173l404 1905h174l-48 -226q72 63 138 109.5t130 78t129.5 47t136.5 15.5q95 0 167.5 -26.5t121.5 -76t74.5 -119.5t25.5 -156q0 -148 -52.5 -275t-141.5 -236t-207.5 -201t-251 -169.5t-271 -141t-268.5 -115.5zM462 1014l-192 -904q101 43 212.5 97
t219.5 120t206 144t172.5 169t118.5 195t44 221q0 120 -62 183t-176 63q-118 0 -251.5 -71.5t-291.5 -216.5z" />
    <glyph glyph-name="uni01F8" unicode="&#x1f8;" horiz-adv-x="1538" 
d="M1241 0h-186l-529 1149q-3 8 -7 19.5t-8 24.5t-7 25t-4 19h-6q-1 -10 -2.5 -24.5t-3.5 -29.5t-4.5 -29.5t-4.5 -25.5l-239 -1128h-166l303 1434h201l507 -1125q5 -9 10 -21.5t10 -26t9.5 -26.5t7.5 -22h4q1 12 3 28t4 33.5t5 34.5t5 29l233 1096h170zM909 1569l-239 327
h153l207 -327h-121z" />
    <glyph glyph-name="uni01F9" unicode="&#x1f9;" horiz-adv-x="1151" 
d="M1046 768q0 -15 -3.5 -41t-9 -56t-11 -59.5t-10.5 -50.5l-119 -561h-166l125 600q4 16 8 37t7 42t5 38.5t2 27.5q0 76 -36.5 120t-108.5 44q-66 0 -131 -39t-120 -99t-94.5 -132t-53.5 -139l-107 -500h-166l158 731q8 39 16 81.5t15 82t12 73.5t8 56h160
q-5 -39 -12 -81.5t-12 -78.5q-6 -42 -13 -82h4q35 55 77.5 103.5t92 85t105 57.5t116.5 21q68 0 117 -20.5t81.5 -57.5t48 -89t15.5 -114zM739 1219l-239 327h153l207 -327h-121z" />
    <glyph glyph-name="Aringacute" unicode="&#x1fa;" horiz-adv-x="1294" 
d="M999 0l-65 401h-608l-232 -401h-198l825 1384q-38 23 -62 63.5t-24 94.5q0 45 16.5 82t45 63t66.5 40t81 14q45 0 82 -14.5t64 -40t42 -61t15 -77.5q0 -59 -31 -104t-80 -68l240 -1376h-177zM954 1548q0 25 -9 45.5t-24.5 35t-36 22.5t-44.5 8q-51 0 -82 -31.5t-31 -79.5
q0 -55 31.5 -84.5t81.5 -29.5q49 0 81.5 32.5t32.5 81.5zM815 1163q-1 10 -1.5 23t-0.5 26v26v22h-4q-3 -9 -8 -21.5t-11 -26t-12.5 -26.5l-11.5 -23l-354 -610h495zM875 1802h-123l289 327h161z" />
    <glyph glyph-name="aringacute" unicode="&#x1fb;" horiz-adv-x="1110" 
d="M905 328q-8 -38 -15.5 -85.5t-13 -94t-9 -86.5t-3.5 -62h-170q1 20 3 48t5.5 58t7 59t7.5 50h-4q-31 -49 -63 -92.5t-71 -76.5t-87 -52t-113 -19q-67 0 -122.5 24t-95.5 71.5t-61.5 119t-21.5 166.5q0 58 12 132t40.5 151t76 150.5t118 131.5t166.5 93t222 35
q80 0 165 -12t169 -29zM858 889q-35 8 -82 14t-88 6q-87 0 -153.5 -27.5t-115.5 -72t-82.5 -102.5t-53.5 -118.5t-28.5 -119.5t-8.5 -107q0 -57 10 -102.5t31.5 -77.5t55 -49.5t79.5 -17.5q50 0 93.5 20.5t81.5 55.5t69 81t56 97.5t42.5 105t28.5 103.5zM934 1374
q0 -42 -16 -78t-44 -63t-66 -42t-81 -15t-80 13.5t-64.5 38.5t-43 60t-15.5 78q0 46 16.5 83t44.5 62.5t66.5 39.5t81.5 14q45 0 82 -14t63.5 -39.5t41 -60.5t14.5 -77zM842 1372q0 25 -9 45.5t-24.5 35t-36.5 22.5t-45 8q-49 0 -80.5 -31.5t-31.5 -79.5q0 -54 32 -84.5
t80 -30.5q25 0 46 9t36.5 25t24 36.5t8.5 44.5zM788 1660h-123l289 327h161z" />
    <glyph glyph-name="AEacute" unicode="&#x1fc;" horiz-adv-x="1751" 
d="M1800 1280h-555l-104 -487h514l-33 -152h-514l-104 -489h587l-30 -152h-760l86 401h-508l-293 -401h-207l1067 1434h887zM1016 1280l-522 -723h426l151 723h-55zM1271 1567h-123l289 327h161z" />
    <glyph glyph-name="aeacute" unicode="&#x1fd;" horiz-adv-x="1692" 
d="M1655 784q0 -81 -36 -147.5t-119 -114t-220 -73.5t-338 -27q0 -11 -1 -20.5t-1 -18.5q0 -54 14.5 -102.5t46 -85t81.5 -58.5t120 -22q69 0 151.5 26.5t157.5 75.5l-30 -162q-56 -32 -131.5 -56t-169.5 -24q-90 0 -159 25.5t-117 70.5t-75 107.5t-34 136.5h-4
q-36 -64 -80 -125t-97.5 -109t-116.5 -77t-137 -29q-76 0 -129.5 27.5t-87.5 76.5t-49.5 116.5t-15.5 146.5q0 71 16.5 151t51 158.5t88.5 150.5t129.5 127t174 87.5t220.5 32.5q96 0 172.5 -22.5t136.5 -51.5q56 35 122.5 54.5t147.5 19.5q64 0 121.5 -18t101 -52
t69.5 -83.5t26 -111.5zM1487 774q0 33 -13 58t-36.5 42.5t-55 26t-69.5 8.5q-61 0 -117.5 -24t-103.5 -69t-82 -109.5t-52 -145.5q144 0 245 15t164 42.5t91.5 67t28.5 88.5zM942 868q-17 8 -40 15.5t-49 13t-54 9t-54 3.5q-89 0 -161 -27t-128 -71.5t-96 -103t-65.5 -121
t-38 -125t-12.5 -115.5q0 -51 8.5 -93.5t25.5 -73t43.5 -47.5t63.5 -17q42 0 88 20.5t94.5 68t99 125.5t101.5 193q12 27 30 69t40 90t48.5 97t55.5 90zM1044 1219h-123l289 327h161z" />
    <glyph glyph-name="Oslashacute" unicode="&#x1fe;" horiz-adv-x="1544" 
d="M1384 1219q51 -79 77 -172.5t26 -198.5q0 -94 -17.5 -188t-52.5 -182.5t-87.5 -168.5t-121.5 -145q-94 -90 -215 -139.5t-280 -49.5q-68 0 -128 12.5t-112 34.5t-95 52t-77 65l-170 -168l-82 78l180 180q-43 76 -67.5 165t-24.5 192q0 208 69 372t187 283
q100 100 226.5 156.5t293.5 56.5q130 0 229.5 -41.5t168.5 -107.5l159 161l80 -80zM1190 1186q-51 52 -124 84.5t-163 32.5q-61 0 -117.5 -13t-106.5 -36t-94 -54.5t-79 -69.5q-46 -51 -82 -113.5t-60.5 -133t-37.5 -147.5t-13 -158q0 -62 12 -118t33 -106zM1309 850
q0 71 -14.5 132.5t-39.5 111.5l-833 -838q51 -63 127 -96t178 -33q106 0 198.5 37t164.5 108q52 51 93 117t69 141t42.5 156.5t14.5 163.5zM961 1567h-123l289 327h161z" />
    <glyph glyph-name="oslashacute" unicode="&#x1ff;" horiz-adv-x="1096" 
d="M979 838q19 -39 29 -88t10 -105q0 -142 -40.5 -264.5t-114 -212.5t-176.5 -141.5t-228 -51.5q-90 0 -161.5 29.5t-121.5 85.5l-156 -145l-75 82l170 157q-17 44 -27 91.5t-10 103.5q0 140 40.5 262t114 213t176.5 143t228 52q91 0 160.5 -30t120.5 -83l180 168l78 -82z
M799 823q-29 44 -73 65t-99 21q-88 0 -159 -45t-120 -118.5t-75.5 -168t-26.5 -194.5q0 -38 6 -70zM850 643q0 39 -6 70l-549 -512q26 -38 71.5 -62t102.5 -24q89 0 160 45t120 118.5t75 169t26 195.5zM695 1219h-123l289 327h161z" />
    <glyph glyph-name="uni0200" unicode="&#x200;" horiz-adv-x="1294" 
d="M999 0l-65 401h-608l-232 -401h-198l854 1434h176l250 -1434h-177zM815 1163q-1 10 -1.5 23t-0.5 26v26v22h-4q-3 -9 -8 -21.5t-11 -26t-12.5 -26.5l-11.5 -23l-354 -610h495zM1046 1568h-87l-181 318h128zM804 1568h-85l-189 318h133z" />
    <glyph glyph-name="uni0201" unicode="&#x201;" horiz-adv-x="1110" 
d="M905 328q-8 -38 -15.5 -85.5t-13 -94t-9 -86.5t-3.5 -62h-170q1 20 3 48t5.5 58t7 59t7.5 50h-4q-31 -49 -63 -92.5t-71 -76.5t-87 -52t-113 -19q-67 0 -122.5 24t-95.5 71.5t-61.5 119t-21.5 166.5q0 58 12 132t40.5 151t76 150.5t118 131.5t166.5 93t222 35
q80 0 165 -12t169 -29zM858 889q-35 8 -82 14t-88 6q-87 0 -153.5 -27.5t-115.5 -72t-82.5 -102.5t-53.5 -118.5t-28.5 -119.5t-8.5 -107q0 -57 10 -102.5t31.5 -77.5t55 -49.5t79.5 -17.5q50 0 93.5 20.5t81.5 55.5t69 81t56 97.5t42.5 105t28.5 103.5zM939 1218h-87
l-181 318h128zM697 1218h-85l-189 318h133z" />
    </font>
</defs>
</svg>
